<svg xmlns="http://www.w3.org/2000/svg" width="96" height="96" viewBox="0 0 96 96">
  <g id="info-svg" transform="translate(-1.25 -1.25)">
    <path id="Path_126273" data-name="Path 126273" d="M49.25,1.25a48,48,0,1,1-48,48A48.023,48.023,0,0,1,49.25,1.25Zm0,6.7a41.3,41.3,0,1,0,41.3,41.3A41.323,41.323,0,0,0,49.25,7.948Z" fill="#bf8b5d" fill-rule="evenodd"/>
    <circle id="Ellipse_306" data-name="Ellipse 306" cx="4.465" cy="4.465" r="4.465" transform="translate(44.785 65.436)" fill="#bf8b5d"/>
    <path id="Path_126274" data-name="Path 126274" d="M10.75,11.956l2.233,26.791a3.349,3.349,0,1,0,6.7,0l2.233-26.791a5.39,5.39,0,0,0-5.581-5.581A5.39,5.39,0,0,0,10.75,11.956Z" transform="translate(32.919 17.759)" fill="#bf8b5d" fill-rule="evenodd"/>
  </g>
</svg>
