<svg xmlns="http://www.w3.org/2000/svg" width="96" height="96" viewBox="0 0 96 96">
  <g id="Success-svg" transform="translate(-1.25 -1.25)">
    <g id="Flat_Color" data-name="Flat Color" transform="translate(1.25 1.25)">
      <path id="Path_126275" data-name="Path 126275" d="M49.207,97.25a48,48,0,0,1,0-96,46.941,46.941,0,0,1,21.5,5.135,3.354,3.354,0,0,1-3.034,5.983A40.121,40.121,0,0,0,49.207,7.9,41.3,41.3,0,1,0,90.472,49.25a8.937,8.937,0,0,0,0-1.116,3.36,3.36,0,1,1,6.692-.625V49.25a48.023,48.023,0,0,1-47.957,48Z" transform="translate(-1.25 -1.25)" fill="#20bf55"/>
      <path id="Path_126276" data-name="Path 126276" d="M31.1,55.246a3.121,3.121,0,0,1-2.32-.982L7.229,33.1a3.351,3.351,0,0,1,0-4.733,3.433,3.433,0,0,1,4.773,0L31.141,47.253,74.19,4.879a3.433,3.433,0,0,1,4.773,0,3.351,3.351,0,0,1,0,4.733L33.55,54.264a3.3,3.3,0,0,1-2.454.982Z" transform="translate(16.058 7.981)" fill="#20bf55"/>
    </g>
  </g>
</svg>
