<svg xmlns="http://www.w3.org/2000/svg" width="40" height="40" viewBox="0 0 40 40">
  <g id="Chart" transform="translate(-27 -175.86)">
    <g id="Circle" transform="translate(27 175.86)" fill="#fff" stroke="#e4eceb" stroke-width="1">
      <circle cx="20" cy="20" r="20" stroke="none"/>
      <circle cx="20" cy="20" r="19.5" fill="none"/>
    </g>
    <g id="Icon" transform="translate(36 137.189)">
      <g id="Group_125270" data-name="Group 125270" transform="translate(0 50)">
        <path id="Path_126258" data-name="Path 126258" d="M21.027,60.535H19.292V58.292a.4.4,0,0,0-.423-.423H11.381V56.05h1.735A.868.868,0,0,0,14,55.162V50.888A.868.868,0,0,0,13.115,50H8.8a.868.868,0,0,0-.888.888V55.2a.868.868,0,0,0,.888.888h1.735v1.777H3.046a.4.4,0,0,0-.423.423v2.242H.888A.868.868,0,0,0,0,61.423v4.315a.868.868,0,0,0,.888.888H5.2a.868.868,0,0,0,.888-.888V61.423a.868.868,0,0,0-.888-.888H3.469V58.715h7.065v1.819H8.8a.868.868,0,0,0-.888.888v4.315a.868.868,0,0,0,.888.888h4.315A.868.868,0,0,0,14,65.738V61.423a.868.868,0,0,0-.888-.888H11.381V58.715h7.065v1.819H16.712a.868.868,0,0,0-.888.888v4.315a.868.868,0,0,0,.888.888h4.315a.868.868,0,0,0,.888-.888V61.423A.894.894,0,0,0,21.027,60.535Zm-15.781.888c-.042-.042,0-.042,0,0v4.315c0,.042,0,.042-.042.042H.888c-.042,0-.042,0-.042-.042V61.423c0-.042,0-.042.042-.042Zm7.912,0c-.042-.042,0-.042,0,0v4.315c0,.042,0,.042-.042.042H8.8c-.042,0-.042,0-.042-.042V61.423c0-.042,0-.042.042-.042Zm-4.4-6.262c.042.042,0,.042,0,0V50.888c0-.042,0-.042.042-.042h4.315c.042,0,.042,0,.042.042V55.2c0,.042,0,.042-.042.042ZM21.069,65.7c0,.042-.042.042,0,0l-4.358.042c-.042,0-.042,0-.042-.042V61.423c0-.042,0-.042.042-.042h4.315c.042,0,.042,0,.042.042Z" transform="translate(0 -50)" fill="#bbb"/>
      </g>
    </g>
  </g>
</svg>
