<svg xmlns="http://www.w3.org/2000/svg" width="40" height="40" viewBox="0 0 40 40">
  <g id="Email" transform="translate(-27 -175.86)">
    <g id="Circle" transform="translate(27 175.86)" fill="#fff" stroke="#e4eceb" stroke-width="1">
      <circle cx="20" cy="20" r="20" stroke="none"/>
      <circle cx="20" cy="20" r="19.5" fill="none"/>
    </g>
    <g id="Icon" transform="translate(35.377 103.04)">
      <g id="Group_125269" data-name="Group 125269" transform="translate(0 85.333)">
        <path id="Path_126257" data-name="Path 126257" d="M21.684,85.333H1.172A1.176,1.176,0,0,0,0,86.505V99.4a1.176,1.176,0,0,0,1.172,1.172H21.684A1.176,1.176,0,0,0,22.856,99.4V86.505A1.176,1.176,0,0,0,21.684,85.333Zm-.44.879L12.1,93.069a1.225,1.225,0,0,1-1.349,0L1.612,86.212Zm-4.883,7.309,4.981,6.153c0,.006.011.011.016.016H1.5c.005-.006.011-.01.016-.016L6.5,93.521a.44.44,0,0,0-.683-.553L.879,99.061v-12.3l9.347,7.011a2.1,2.1,0,0,0,2.4,0l9.347-7.011v12.3l-4.933-6.093a.44.44,0,0,0-.683.553Z" transform="translate(0 -85.333)" fill="#bbb"/>
      </g>
    </g>
  </g>
</svg>
