<svg xmlns="http://www.w3.org/2000/svg" width="60" height="60" viewBox="0 0 60 60">
  <g id="IconWkala" transform="translate(-1)">
    <g id="Group_125281" data-name="Group 125281" transform="translate(1)">
      <path id="Path_59403" data-name="Path 59403" d="M46,50.613v5.871a1.175,1.175,0,0,1-1.172,1.172H4.516a1.175,1.175,0,0,1-1.172-1.172V3.515A1.175,1.175,0,0,1,4.516,2.344h30v7.969a3.526,3.526,0,0,0,3.516,3.515H46V23.8a15.158,15.158,0,0,1,2.334,2l.012.012V12.656h0a1.18,1.18,0,0,0-.34-.832L36.523.34A1.2,1.2,0,0,0,35.691,0H4.516A3.526,3.526,0,0,0,1,3.515V56.484A3.526,3.526,0,0,0,4.516,60H44.832a3.526,3.526,0,0,0,3.516-3.515V52.957ZM36.863,4l7.475,7.489h-6.3a1.175,1.175,0,0,1-1.172-1.172Z" transform="translate(-1)" fill="#007066"/>
      <path id="Path_59404" data-name="Path 59404" d="M66.82,280.8H56.272a1.172,1.172,0,1,0,0,2.344H66.82a1.172,1.172,0,1,0,0-2.344Z" transform="translate(-48.759 -247.894)" fill="#007066"/>
      <path id="Path_59405" data-name="Path 59405" d="M71.121,346H56.705c-.879,0-1.605.527-1.605,1.172s.715,1.172,1.605,1.172H71.121c.879,0,1.605-.527,1.605-1.172S72,346,71.121,346Z" transform="translate(-48.759 -305.454)" fill="#007066"/>
      <path id="Path_59406" data-name="Path 59406" d="M67.611,211.5H56.372a1.172,1.172,0,1,0,0,2.344H67.611a1.172,1.172,0,1,0,0-2.344Z" transform="translate(-48.848 -186.715)" fill="#007066"/>
      <path id="Path_59407" data-name="Path 59407" d="M182.172,419.5a1.232,1.232,0,0,0-.832.34,1.16,1.16,0,0,0-.34.832,1.232,1.232,0,0,0,.34.832,1.16,1.16,0,0,0,.832.34,1.232,1.232,0,0,0,.832-.34,1.16,1.16,0,0,0,.34-.832,1.232,1.232,0,0,0-.34-.832A1.18,1.18,0,0,0,182.172,419.5Z" transform="translate(-159.904 -370.34)" fill="#007066"/>
      <path id="Path_59408" data-name="Path 59408" d="M66.3,419.5H56.372a1.172,1.172,0,1,0,0,2.344H66.31A1.172,1.172,0,1,0,66.3,419.5Z" transform="translate(-48.848 -370.34)" fill="#007066"/>
      <path id="Path_59409" data-name="Path 59409" d="M56.272,144.444a1.232,1.232,0,0,0,.832-.34,1.16,1.16,0,0,0,.34-.832,1.232,1.232,0,0,0-.34-.832,1.16,1.16,0,0,0-.832-.34,1.21,1.21,0,0,0-.832.34,1.16,1.16,0,0,0-.34.832,1.232,1.232,0,0,0,.34.832,1.18,1.18,0,0,0,.832.34Z" transform="translate(-48.759 -125.447)" fill="#007066"/>
      <path id="Path_59410" data-name="Path 59410" d="M116.193,142.1H98.672a1.172,1.172,0,1,0,0,2.344h17.521a1.172,1.172,0,1,0,0-2.344Z" transform="translate(-86.19 -125.448)" fill="#007066"/>
      <path id="Path_59411" data-name="Path 59411" d="M56.372,75.144H78.851a1.172,1.172,0,1,0,0-2.344H56.372a1.172,1.172,0,1,0,0,2.344Z" transform="translate(-48.848 -64.269)" fill="#007066"/>
    </g>
    <g id="Group_25694" data-name="Group 25694" transform="translate(22.145 21.084)">
      <path id="Path_59412" data-name="Path 59412" d="M233.314,222a10.313,10.313,0,1,0,10.314,10.313A10.313,10.313,0,0,0,233.314,222Zm0,18.281a7.969,7.969,0,1,1,7.969-7.969A7.969,7.969,0,0,1,233.314,240.281Z" transform="translate(-218.127 -217.069)" fill="#cca079"/>
      <path id="Path_59413" data-name="Path 59413" d="M219.1,212.034l-8.884-8.883-.422-.422-.07-.07c.023-.047.047-.082.07-.129a15.186,15.186,0,0,0-2.11-17.8c0-.012-.012-.012-.023-.023l-.07-.07c0-.012-.012-.012-.012-.023a15.247,15.247,0,0,0-2.334-2v.012a15.218,15.218,0,0,0-19.185,1.488c-.07.07-.153.141-.223.223a15.176,15.176,0,0,0,18.236,23.918l3.516,3.515,5.872,5.871a3.973,3.973,0,1,0,5.638-5.6Zm-22.514-4a12.892,12.892,0,1,1,9.786-4.5,12.893,12.893,0,0,1-9.786,4.5ZM217.439,216a1.642,1.642,0,0,1-2.309,0l-9.06-9.095a.358.358,0,0,1,.082-.059c.094-.07.187-.152.267-.223q.475-.4.914-.844a7.985,7.985,0,0,0,1.1-1.078l8.989,8.988a1.631,1.631,0,0,1,.017,2.309Z" transform="translate(-181.403 -179.904)" fill="#cca079"/>
      <path id="Path_59414" data-name="Path 59414" d="M302.172,265a1.172,1.172,0,1,0,0,2.344,2.933,2.933,0,0,1,2.93,2.93,1.172,1.172,0,0,0,2.344,0A5.282,5.282,0,0,0,302.172,265Z" transform="translate(-286.985 -255.03)" fill="#cca079"/>
    </g>
  </g>
</svg>
