<svg xmlns="http://www.w3.org/2000/svg" width="31.5" height="33.75" viewBox="0 0 31.5 33.75">
  <g id="IconDepartment" transform="translate(-2.25 -1.125)">
    <path id="Path_126261" data-name="Path 126261" d="M12.375,29.25v4.5M5.625,2.25h13.5a2.25,2.25,0,0,1,2.25,2.25V33.469a.281.281,0,0,1-.281.281H3.375V4.5a2.25,2.25,0,0,1,2.25-2.25ZM22.5,13.5h7.875a2.25,2.25,0,0,1,2.25,2.25v18H21.375V14.625A1.125,1.125,0,0,1,22.5,13.5Z" fill="none" stroke="#cca079" stroke-linecap="round" stroke-linejoin="round" stroke-width="2.25"/>
    <path id="Path_126262" data-name="Path 126262" d="M6.9,30.366a1.125,1.125,0,1,1,.97-.97A1.125,1.125,0,0,1,6.9,30.366Zm0-5.625a1.125,1.125,0,1,1,.97-.97A1.125,1.125,0,0,1,6.9,24.741Zm0-5.625a1.125,1.125,0,1,1,.97-.97A1.125,1.125,0,0,1,6.9,19.116Zm0-5.625a1.125,1.125,0,1,1,.97-.97A1.125,1.125,0,0,1,6.9,13.491Zm0-5.625a1.125,1.125,0,1,1,.97-.97A1.125,1.125,0,0,1,6.9,7.866Zm5.625,16.875a1.125,1.125,0,1,1,.97-.97A1.125,1.125,0,0,1,12.521,24.741Zm0-5.625a1.125,1.125,0,1,1,.97-.97A1.125,1.125,0,0,1,12.521,19.116Zm0-5.625a1.125,1.125,0,1,1,.97-.97A1.125,1.125,0,0,1,12.521,13.491Zm0-5.625a1.125,1.125,0,1,1,.97-.97,1.125,1.125,0,0,1-.97.97Zm5.625,22.5a1.125,1.125,0,1,1,.97-.97,1.125,1.125,0,0,1-.97.97Zm0-5.625a1.125,1.125,0,1,1,.97-.97,1.125,1.125,0,0,1-.97.97Zm0-5.625a1.125,1.125,0,1,1,.97-.97,1.125,1.125,0,0,1-.97.97Z" fill="#cca079"/>
    <path id="Path_126263" data-name="Path 126263" d="M18.793,11.581a1.121,1.121,0,1,1-1.59,0,1.124,1.124,0,0,1,1.59,0Z" fill="#cca079"/>
    <path id="Path_126264" data-name="Path 126264" d="M18.146,7.866a1.125,1.125,0,1,1,.97-.97A1.125,1.125,0,0,1,18.146,7.866Zm9.979,20.259A1.125,1.125,0,1,0,29.25,29.25,1.125,1.125,0,0,0,28.125,28.125Zm0-5.625a1.125,1.125,0,1,0,1.125,1.125A1.125,1.125,0,0,0,28.125,22.5Zm0-5.625A1.125,1.125,0,1,0,29.25,18,1.125,1.125,0,0,0,28.125,16.875Zm-4.5,11.25A1.125,1.125,0,1,0,24.75,29.25,1.125,1.125,0,0,0,23.625,28.125Zm0-5.625a1.125,1.125,0,1,0,1.125,1.125A1.125,1.125,0,0,0,23.625,22.5Zm0-5.625A1.125,1.125,0,1,0,24.75,18,1.125,1.125,0,0,0,23.625,16.875Z" fill="#cca079"/>
  </g>
</svg>
