<svg xmlns="http://www.w3.org/2000/svg" width="40" height="40" viewBox="0 0 40 40">
  <g id="Phone" transform="translate(-27 -175.86)">
    <g id="Circle" transform="translate(27 175.86)" fill="#fff" stroke="#e4eceb" stroke-width="1">
      <circle cx="20" cy="20" r="20" stroke="none"/>
      <circle cx="20" cy="20" r="19.5" fill="none"/>
    </g>
    <g id="Icon" transform="translate(36.834 186.57)">
      <path id="Path_126256" data-name="Path 126256" d="M4.663,12.351a19.712,19.712,0,0,0,6.557,5.136,10.2,10.2,0,0,0,3.669,1.086c.089,0,.173.008.262.008a3.038,3.038,0,0,0,2.356-1.013.084.084,0,0,0,.015-.019,9.921,9.921,0,0,1,.743-.77c.181-.173.366-.354.543-.539a1.859,1.859,0,0,0-.008-2.768l-2.314-2.314a1.873,1.873,0,0,0-1.355-.624,1.936,1.936,0,0,0-1.371.62l-1.378,1.378c-.127-.073-.258-.139-.381-.2a4.761,4.761,0,0,1-.424-.231A14.587,14.587,0,0,1,8.093,8.928,8.4,8.4,0,0,1,6.915,7.05c.362-.327.7-.67,1.028-1,.116-.119.235-.239.354-.358A1.974,1.974,0,0,0,8.936,4.3,1.958,1.958,0,0,0,8.3,2.915L7.15,1.767c-.135-.135-.262-.266-.393-.4C6.5,1.1,6.237.835,5.976.593A1.919,1.919,0,0,0,4.62,0,1.976,1.976,0,0,0,3.25.6L1.81,2.037A2.959,2.959,0,0,0,.928,3.931a7.126,7.126,0,0,0,.535,3.08A17.919,17.919,0,0,0,4.663,12.351Zm-2.8-8.339A2.036,2.036,0,0,1,2.48,2.7L3.912,1.271A1.037,1.037,0,0,1,4.62.943a.984.984,0,0,1,.693.335c.258.239.5.489.762.755.131.135.266.27.4.408L7.623,3.588a1.046,1.046,0,0,1,.362.72,1.046,1.046,0,0,1-.362.72c-.119.119-.239.243-.358.362-.358.362-.693.7-1.063,1.032l-.019.019a.753.753,0,0,0-.193.855c0,.012.008.019.012.031a9.061,9.061,0,0,0,1.351,2.2,15.4,15.4,0,0,0,3.711,3.38,5.511,5.511,0,0,0,.508.277,4.761,4.761,0,0,1,.424.231l.042.023a.8.8,0,0,0,.373.1.817.817,0,0,0,.574-.262l1.44-1.44a1.019,1.019,0,0,1,.7-.343.967.967,0,0,1,.681.343l2.322,2.318a.928.928,0,0,1-.012,1.451c-.162.173-.331.339-.512.512a11.087,11.087,0,0,0-.8.835,2.114,2.114,0,0,1-1.652.7c-.065,0-.135,0-.2-.008a9.271,9.271,0,0,1-3.319-.993,18.726,18.726,0,0,1-6.241-4.89A17.152,17.152,0,0,1,2.353,6.7,6.21,6.21,0,0,1,1.867,4.012Z" transform="translate(0)" fill="#bbb"/>
    </g>
  </g>
</svg>
