<svg xmlns="http://www.w3.org/2000/svg" width="41.784" height="40.169" viewBox="0 0 41.784 40.169">
  <path id="favorite-like-stars" d="M21.667,1.725l4.816,9.722a1.545,1.545,0,0,0,1.242.909l10.631,1.575a1.636,1.636,0,0,1,.909,2.817l-7.663,7.6a1.6,1.6,0,0,0-.485,1.454l1.847,10.691a1.666,1.666,0,0,1-2.423,1.757L20.97,33.193a1.786,1.786,0,0,0-1.575,0L9.825,38.251A1.666,1.666,0,0,1,7.4,36.494L9.249,25.682a1.605,1.605,0,0,0-.485-1.454L1.011,16.747a1.635,1.635,0,0,1,1-2.817l10.631-1.575a1.544,1.544,0,0,0,1.242-.909L18.7,1.725a1.635,1.635,0,0,1,2.968,0Z" transform="translate(0.751 0.473)" fill="none" stroke="#cca079" stroke-linecap="round" stroke-linejoin="round" stroke-width="2.5"/>
</svg>
