<svg xmlns="http://www.w3.org/2000/svg" width="34.3" height="34.3" viewBox="0 0 34.3 34.3">
  <g id="IconYDark" transform="translate(34.3 -0.257) rotate(90)">
    <rect id="Circle" width="34.3" height="34.3" rx="17.15" transform="translate(0.257)" fill="#fff" opacity="0.1"/>
    <path id="Icon" d="M10.051,5.025A.452.452,0,0,0,9.815,4.6L5.8,2.089a.473.473,0,0,0-.51-.016.468.468,0,0,0-.259.44V7.538a.468.468,0,0,0,.259.44.543.543,0,0,0,.243.063A.447.447,0,0,0,5.8,7.962L9.815,5.45a.452.452,0,0,0,.236-.424Zm4.02,0q0,.754-.008,1.178T14,7.275a8.686,8.686,0,0,1-.177,1.158,1.837,1.837,0,0,1-.542.966,1.656,1.656,0,0,1-.974.455,51.48,51.48,0,0,1-5.269.2,51.48,51.48,0,0,1-5.269-.2A1.674,1.674,0,0,1,.789,9.4a1.825,1.825,0,0,1-.546-.966A9.72,9.72,0,0,1,.075,7.275Q.016,6.627.008,6.2T0,5.025q0-.754.008-1.178T.075,2.776A8.686,8.686,0,0,1,.251,1.618,1.837,1.837,0,0,1,.793.652,1.656,1.656,0,0,1,1.767.2,51.48,51.48,0,0,1,7.036,0,51.479,51.479,0,0,1,12.3.2a1.674,1.674,0,0,1,.978.455,1.826,1.826,0,0,1,.546.966A9.72,9.72,0,0,1,14,2.776q.059.648.067,1.072T14.071,5.025Z" transform="translate(12.257 23.842) rotate(-90)" fill="#cca079"/>
  </g>
</svg>
