<svg xmlns="http://www.w3.org/2000/svg" width="34.3" height="34.3" viewBox="0 0 34.3 34.3">
  <g id="IconCallDark" transform="translate(34.3) rotate(90)">
    <rect id="Circle" width="34.3" height="34.3" rx="17.15" fill="#fff" opacity="0.1"/>
    <path id="Icon" d="M15.03,12.118A13,13,0,0,0,12.314,10.3c-.814-.391-1.112-.383-1.688.032-.479.346-.79.669-1.342.548a8,8,0,0,1-2.7-1.994,7.946,7.946,0,0,1-1.994-2.7c-.117-.556.205-.862.548-1.342.415-.576.427-.874.032-1.688A12.742,12.742,0,0,0,3.358.446C2.766-.146,2.633-.018,2.306.1a5.984,5.984,0,0,0-.963.512A2.9,2.9,0,0,0,.187,1.832c-.23.5-.5,1.418.858,3.828A21.357,21.357,0,0,0,4.8,10.667h0l0,0,0,0h0A21.441,21.441,0,0,0,9.816,14.43c2.409,1.354,3.332,1.088,3.828.858a2.855,2.855,0,0,0,1.221-1.156,5.984,5.984,0,0,0,.512-.963C15.493,12.843,15.626,12.71,15.03,12.118Z" transform="translate(9.53 25.139) rotate(-90)" fill="#cca079"/>
  </g>
</svg>
