<svg id="LogoGaft" xmlns="http://www.w3.org/2000/svg" width="341.53" height="98.721" viewBox="0 0 341.53 98.721">
  <g id="Ar" transform="translate(0)">
    <g id="Icon" transform="translate(239.367)">
      <g id="Group_542" data-name="Group 542" transform="translate(84.231 44.634)">
        <path id="Path_256" data-name="Path 256" d="M801.645,365.729a1,1,0,0,1-.743-.325,41.162,41.162,0,0,0-5.667-4.193,58.614,58.614,0,0,0-8.718-4.42l-.766-.31a1,1,0,1,1,.744-1.854l.763.308a59.661,59.661,0,0,1,9.039,4.58,43.185,43.185,0,0,1,6.017,4.468,1,1,0,0,1-.668,1.747Z" transform="translate(-785.122 -354.556)" fill="#c48e61"/>
      </g>
      <g id="Group_543" data-name="Group 543" transform="translate(83.387 70.015)">
        <path id="Path_257" data-name="Path 257" d="M794.236,386.2a.99.99,0,0,1-.5-.135,62.045,62.045,0,0,0-8.811-4.152,1,1,0,1,1,.718-1.865,64.263,64.263,0,0,1,9.1,4.292,1,1,0,0,1-.5,1.863Z" transform="translate(-784.28 -379.982)" fill="#c48e61"/>
      </g>
      <g id="Group_544" data-name="Group 544" transform="translate(15.377 78.476)">
        <path id="Path_258" data-name="Path 258" d="M717.415,395.4a1,1,0,0,1-.38-1.923,81.957,81.957,0,0,1,13.974-4.216c.013,0,2.149-.421,4.351-.791a1,1,0,1,1,.333,1.97c-2.175.363-4.283.778-4.283.778a79.765,79.765,0,0,0-13.615,4.108A1.02,1.02,0,0,1,717.415,395.4Z" transform="translate(-716.411 -388.458)" fill="#c48e61"/>
      </g>
      <g id="Group_545" data-name="Group 545" transform="translate(94.766 56.533)">
        <path id="Path_259" data-name="Path 259" d="M800.583,371.312a.994.994,0,0,1-.637-.23c-.7-.58-1.444-1.15-2.2-1.7h0s-.72-.476-1.646-1.07a1,1,0,1,1,1.086-1.679c.958.617,1.7,1.107,1.7,1.107.829.593,1.6,1.192,2.344,1.8a1,1,0,0,1-.64,1.768Z" transform="translate(-795.635 -366.476)" fill="#c48e61"/>
      </g>
      <g id="Group_546" data-name="Group 546" transform="translate(85.158 51.462)">
        <path id="Path_260" data-name="Path 260" d="M793.286,366.384a1,1,0,0,1-.485-.125,62.429,62.429,0,0,0-6.169-2.957,1,1,0,0,1,.771-1.842,64.034,64.034,0,0,1,6.369,3.052,1,1,0,0,1-.486,1.872Z" transform="translate(-786.047 -361.396)" fill="#c48e61"/>
      </g>
      <g id="Group_547" data-name="Group 547" transform="translate(1.426 55.87)">
        <path id="Path_261" data-name="Path 261" d="M703.492,371.29a1,1,0,0,1-.639-1.768,45.811,45.811,0,0,1,4.953-3.559,1,1,0,1,1,1.061,1.7,43.721,43.721,0,0,0-4.737,3.4A1,1,0,0,1,703.492,371.29Z" transform="translate(-702.489 -365.812)" fill="#c48e61"/>
      </g>
      <g id="Group_548" data-name="Group 548" transform="translate(9.568 50.703)">
        <path id="Path_262" data-name="Path 262" d="M711.618,365.931a1,1,0,0,1-.466-1.883,75.321,75.321,0,0,1,7.315-3.334,1,1,0,1,1,.733,1.858,73.028,73.028,0,0,0-7.115,3.245,1,1,0,0,1-.467.114Z" transform="translate(-710.615 -360.636)" fill="#c48e61"/>
      </g>
      <g id="Group_549" data-name="Group 549" transform="translate(20.676 19.462)">
        <path id="Path_263" data-name="Path 263" d="M723.2,335.861a1.5,1.5,0,0,1-.452-2.926q.854-.269,1.727-.521l2.917-.79c2.522-.637,5.118-1.174,7.739-1.6,1.571-.258,3.191-.482,4.81-.67a1.5,1.5,0,1,1,.347,2.976c-1.573.181-3.146.4-4.671.65-2.536.415-5.047.935-7.462,1.544l-2.866.776c-.533.156-1.089.323-1.637.5a1.509,1.509,0,0,1-.451.066Z" transform="translate(-721.699 -329.34)" fill="#005f54"/>
      </g>
      <g id="Group_550" data-name="Group 550" transform="translate(11.787 25.217)">
        <path id="Path_264" data-name="Path 264" d="M714.334,345.725a1.5,1.5,0,0,1-.64-2.853c1.625-.76,3.351-1.482,5.128-2.146l.1-.035.154-.057a96.5,96.5,0,0,1,33.051-5.525q.84,0,1.675.012c1.89.03,3.772.107,5.6.229a1.5,1.5,0,1,1-.2,2.989c-1.774-.12-3.608-.2-5.439-.223q-.811-.012-1.63-.012a93.488,93.488,0,0,0-32.017,5.343l-.145.053c-1.786.667-3.435,1.359-4.988,2.083A1.5,1.5,0,0,1,714.334,345.725Z" transform="translate(-712.829 -335.105)" fill="#005f54"/>
      </g>
      <g id="Group_551" data-name="Group 551" transform="translate(31.373 63.788)">
        <path id="Path_265" data-name="Path 265" d="M780.695,380.85a1.547,1.547,0,0,1-.447-.067,96.523,96.523,0,0,0-28.165-4.042c-3.407,0-6.826.165-10.156.49q-1.036.1-2.062.223c-1.943.232-3.879.52-5.755.858a1.5,1.5,0,0,1-.536-2.946c1.935-.349,3.932-.648,5.935-.886q1.057-.124,2.123-.23c3.428-.334,6.944-.5,10.451-.5a99.6,99.6,0,0,1,29.06,4.176,1.5,1.5,0,0,1-.446,2.928Z" transform="translate(-732.374 -373.745)" fill="#005f54"/>
      </g>
      <g id="Group_552" data-name="Group 552" transform="translate(34.854 70.211)">
        <path id="Path_266" data-name="Path 266" d="M774.8,385.69a1.525,1.525,0,0,1-.334-.037c-2.525-.573-5.6-1.113-5.63-1.117a101.891,101.891,0,0,0-16.762-1.363c-2.062,0-4.14.061-6.174.179-.415.025-.829.051-1.242.081-2.382.168-4.769.42-7.095.752a1.5,1.5,0,1,1-.425-2.966c2.4-.34,4.854-.6,7.305-.773q.634-.045,1.279-.083c2.1-.123,4.232-.185,6.352-.185a104.966,104.966,0,0,1,17.27,1.406c.14.024,3.19.56,5.788,1.148a1.5,1.5,0,0,1-.332,2.958Z" transform="translate(-735.847 -380.179)" fill="#005f54"/>
      </g>
      <g id="Group_553" data-name="Group 553" transform="translate(38.54 76.648)">
        <path id="Path_267" data-name="Path 267" d="M769.844,391.133a1.556,1.556,0,0,1-.263-.022c-1.392-.245-2.806-.46-4.218-.643a105.059,105.059,0,0,0-15.382-.826c-2.947.058-5.912.24-8.794.543a1.5,1.5,0,1,1-.316-2.979c2.973-.311,6.018-.5,9.051-.559a107.967,107.967,0,0,1,15.828.852c1.452.187,2.916.41,4.353.662a1.5,1.5,0,0,1-.259,2.972Z" transform="translate(-739.526 -386.627)" fill="#005f54"/>
      </g>
      <g id="Group_554" data-name="Group 554" transform="translate(17.902 38.083)">
        <path id="Path_268" data-name="Path 268" d="M720.429,356.119a1.5,1.5,0,0,1-.535-2.895l.334-.127c1.948-.683,3.948-1.3,5.982-1.842h.007c.069-.017.137-.036.2-.054h0a100.571,100.571,0,0,1,25.683-3.206,102.053,102.053,0,0,1,23.248,2.6c2.125.5,4.22,1.072,6.227,1.7a1.5,1.5,0,1,1-.908,2.855c-1.934-.61-3.955-1.163-6.008-1.644a99.049,99.049,0,0,0-22.559-2.52,97.5,97.5,0,0,0-24.916,3.108h0l-.193.051c-1.964.524-3.894,1.118-5.739,1.764l-.3.113A1.507,1.507,0,0,1,720.429,356.119Z" transform="translate(-718.93 -347.994)" fill="#005f54"/>
      </g>
      <g id="Group_555" data-name="Group 555" transform="translate(24.527 50.929)">
        <path id="Path_269" data-name="Path 269" d="M791.176,372.112a1.508,1.508,0,0,1-.669-.158c-10.522-5.221-24.158-8.1-38.411-8.1a101.571,101.571,0,0,0-17.616,1.509l-.224.04c-1.4.251-2.794.534-4.143.841q-1.382.315-2.724.666a1.5,1.5,0,0,1-.765-2.895q1.389-.365,2.818-.689c1.4-.319,2.841-.612,4.292-.871l.132-.024a104.776,104.776,0,0,1,18.23-1.571c14.708,0,28.826,2.987,39.752,8.411a1.5,1.5,0,0,1-.671,2.838Z" transform="translate(-725.542 -360.863)" fill="#005f54"/>
      </g>
      <g id="Group_556" data-name="Group 556" transform="translate(27.828 57.362)">
        <path id="Path_270" data-name="Path 270" d="M787.823,377.108a1.5,1.5,0,0,1-.6-.125c-10.155-4.37-22.385-6.681-35.368-6.681a103.642,103.642,0,0,0-13.247.841,1.458,1.458,0,0,1-.29.069q-1.786.243-3.526.541c-1.369.238-2.757.51-4.127.812a1.5,1.5,0,1,1-.647-2.925c1.413-.31,2.846-.593,4.261-.837,1-.173,2.036-.335,3.1-.484a1.467,1.467,0,0,1,.3-.074,106.39,106.39,0,0,1,14.173-.937c13.389,0,26.031,2.4,36.56,6.927a1.5,1.5,0,0,1-.6,2.872Z" transform="translate(-728.837 -367.307)" fill="#005f54"/>
      </g>
      <g id="Group_557" data-name="Group 557" transform="translate(14.701 31.65)">
        <path id="Path_271" data-name="Path 271" d="M717.227,350.9A1.5,1.5,0,0,1,716.7,348l4.461-1.662c.506-.169.965-.319,1.427-.464.5-.159,1-.311,1.5-.462a100.416,100.416,0,0,1,28.021-3.861,107.288,107.288,0,0,1,12.592.736c1.68.2,3.345.44,4.948.714a1.5,1.5,0,1,1-.507,2.952c-1.554-.266-3.168-.5-4.8-.693a104.455,104.455,0,0,0-12.235-.714,97.361,97.361,0,0,0-27.164,3.737c-.487.144-.974.293-1.456.445q-.67.213-1.333.434l-4.409,1.643A1.5,1.5,0,0,1,717.227,350.9Z" transform="translate(-715.736 -341.55)" fill="#005f54"/>
      </g>
      <g id="Group_558" data-name="Group 558" transform="translate(21.261 44.495)">
        <path id="Path_272" data-name="Path 272" d="M782.537,362.137a1.507,1.507,0,0,1-.482-.079,94.877,94.877,0,0,0-29.975-4.646,96.515,96.515,0,0,0-27.852,3.961,1.5,1.5,0,1,1-.883-2.862,99.551,99.551,0,0,1,28.735-4.092,97.945,97.945,0,0,1,30.94,4.8,1.5,1.5,0,0,1-.483,2.916Z" transform="translate(-722.283 -354.417)" fill="#005f54"/>
      </g>
      <g id="Group_559" data-name="Group 559" transform="translate(57.198 0.239)">
        <path id="Path_273" data-name="Path 273" d="M760,312.135h-.073l-.843-.058a1,1,0,0,1-.935-1.062,1.016,1.016,0,0,1,1.066-.93l.856.06a1,1,0,1,1-.071,2Z" transform="translate(-758.145 -310.084)" fill="#adadad"/>
      </g>
      <g id="Group_560" data-name="Group 560" transform="translate(41.341)">
        <path id="Path_274" data-name="Path 274" d="M743.364,312.2a1,1,0,1,1-.081-2,108.857,108.857,0,0,1,15.962-.119,1,1,0,0,1,.936,1.06,1.015,1.015,0,0,1-1.065.932,106.246,106.246,0,0,0-15.668.117A.391.391,0,0,1,743.364,312.2Z" transform="translate(-742.321 -309.844)" fill="#adadad"/>
      </g>
      <g id="Group_561" data-name="Group 561" transform="translate(46.887 6.439)">
        <path id="Path_275" data-name="Path 275" d="M769.5,319.731a.956.956,0,0,1-.175-.016c-1.32-.231-2.525-.41-3.581-.533a100.716,100.716,0,0,0-15.4-.871c-.5.011-.99.021-1.483.024h0a1,1,0,1,1-.006-2c.482,0,.967-.013,1.451-.024A103.812,103.812,0,0,1,766,317.2c1.077.125,2.322.309,3.682.549a1,1,0,0,1-.173,1.981Z" transform="translate(-747.855 -316.295)" fill="#adadad"/>
      </g>
      <g id="Group_562" data-name="Group 562" transform="translate(71.739 8.713)">
        <path id="Path_276" data-name="Path 276" d="M784.9,323.864a1,1,0,0,1-.353-.065,80.523,80.523,0,0,0-10.53-3.126l-.545-.123a1,1,0,1,1,.429-1.95l.568.127a82.772,82.772,0,0,1,10.784,3.2,1,1,0,0,1-.354,1.933Z" transform="translate(-772.656 -318.572)" fill="#adadad"/>
      </g>
      <g id="Group_563" data-name="Group 563" transform="translate(21.575 6.643)">
        <path id="Path_277" data-name="Path 277" d="M723.6,322.364a1,1,0,0,1-.3-1.952,92.794,92.794,0,0,1,16.864-3.456c.048-.008,1.919-.275,4.551-.456a1.017,1.017,0,0,1,1.069.926,1,1,0,0,1-.93,1.066c-2.553.176-4.417.44-4.435.443a90.9,90.9,0,0,0-16.526,3.383,1.027,1.027,0,0,1-.293.045Z" transform="translate(-722.597 -316.499)" fill="#adadad"/>
      </g>
      <g id="Group_564" data-name="Group 564" transform="translate(59.26 13.3)">
        <path id="Path_278" data-name="Path 278" d="M786.588,330.945a1.006,1.006,0,0,1-.377-.074,84.42,84.42,0,0,0-20.358-5.234c-.007,0-2.1-.252-4.735-.477a1,1,0,0,1-.912-1.08.986.986,0,0,1,1.084-.908c2.672.229,4.795.483,4.817.485a86.436,86.436,0,0,1,20.857,5.365,1,1,0,0,1-.377,1.924Z" transform="translate(-760.202 -323.167)" fill="#adadad"/>
      </g>
      <g id="Group_565" data-name="Group 565" transform="translate(36.12 12.86)">
        <path id="Path_279" data-name="Path 279" d="M738.111,325.645a1,1,0,0,1-.132-1.987,107.661,107.661,0,0,1,17.147-.888,1,1,0,1,1-.057,2,104.783,104.783,0,0,0-16.822.87,1.012,1.012,0,0,1-.135.009Z" transform="translate(-737.111 -322.727)" fill="#adadad"/>
      </g>
      <g id="Group_566" data-name="Group 566" transform="translate(10.987 14.438)">
        <path id="Path_280" data-name="Path 280" d="M713.042,332.974a1,1,0,0,1-.447-1.9,77.362,77.362,0,0,1,18.23-6.175s1.937-.42,2.771-.571a1,1,0,1,1,.36,1.963c-.814.149-2.706.559-2.706.56a75.28,75.28,0,0,0-17.761,6.011A.987.987,0,0,1,713.042,332.974Z" transform="translate(-712.03 -324.307)" fill="#adadad"/>
      </g>
      <g id="Group_567" data-name="Group 567" transform="translate(68.572 20.902)">
        <path id="Path_281" data-name="Path 281" d="M797.329,343.032a.993.993,0,0,1-.562-.173,61.35,61.35,0,0,0-15.753-7.414,79.194,79.194,0,0,0-10.691-2.682,1,1,0,1,1,.349-1.966,81.122,81.122,0,0,1,10.964,2.749,63.364,63.364,0,0,1,16.259,7.663,1,1,0,0,1-.565,1.823Z" transform="translate(-769.495 -330.782)" fill="#adadad"/>
      </g>
      <g id="Group_568" data-name="Group 568" transform="translate(42.947 19.286)">
        <path id="Path_282" data-name="Path 282" d="M764.412,331.878a.98.98,0,0,1-.119-.006,104.05,104.05,0,0,0-11.478-.71c-.018,0-2.544,0-5.154.107l-2.684.134a1,1,0,1,1-.1-2l2.693-.134c2.661-.1,5.224-.109,5.25-.109a106.643,106.643,0,0,1,11.708.723,1,1,0,0,1-.117,1.99Z" transform="translate(-743.924 -329.164)" fill="#adadad"/>
      </g>
      <g id="Group_569" data-name="Group 569" transform="translate(3.32 25.151)">
        <path id="Path_283" data-name="Path 283" d="M705.381,344.054a1,1,0,0,1-.6-1.8,57.7,57.7,0,0,1,13.349-7.157,1,1,0,0,1,.728,1.86,55.751,55.751,0,0,0-12.884,6.9A1,1,0,0,1,705.381,344.054Z" transform="translate(-704.379 -335.039)" fill="#adadad"/>
      </g>
      <g id="Group_570" data-name="Group 570" transform="translate(80.651 30.459)">
        <path id="Path_284" data-name="Path 284" d="M801.635,352.83a1,1,0,0,1-.668-.255c-4.65-4.144-11.116-7.694-18.7-10.264a1,1,0,1,1,.645-1.889c7.838,2.655,14.545,6.343,19.393,10.665a1,1,0,0,1-.668,1.742Z" transform="translate(-781.549 -340.357)" fill="#adadad"/>
      </g>
      <g id="Group_571" data-name="Group 571" transform="translate(62.007 26.388)">
        <path id="Path_285" data-name="Path 285" d="M775.489,340.3a1.012,1.012,0,0,1-.236-.028,93.464,93.464,0,0,0-9.453-1.76q-.962-.129-1.939-.241a1,1,0,1,1,.229-1.982c.662.075,1.323.157,1.977.245a95.123,95.123,0,0,1,9.656,1.8,1,1,0,0,1-.235,1.968Z" transform="translate(-762.945 -336.279)" fill="#adadad"/>
      </g>
      <g id="Group_572" data-name="Group 572" transform="translate(94.103 43.151)">
        <path id="Path_286" data-name="Path 286" d="M802.032,359.663a1,1,0,0,1-.681-.265,41.394,41.394,0,0,0-5.912-4.485,1,1,0,1,1,1.074-1.687,43.434,43.434,0,0,1,6.2,4.706,1,1,0,0,1-.679,1.731Z" transform="translate(-794.973 -353.071)" fill="#adadad"/>
      </g>
      <g id="Group_573" data-name="Group 573" transform="translate(72.442 34.581)">
        <path id="Path_287" data-name="Path 287" d="M793.4,353.508a.99.99,0,0,1-.485-.126q-1.092-.6-2.245-1.174a88.4,88.4,0,0,0-8.244-3.41,82.514,82.514,0,0,0-8.291-2.341,1,1,0,1,1,.446-1.947,84.589,84.589,0,0,1,8.5,2.4,88.377,88.377,0,0,1,8.477,3.508q1.193.59,2.328,1.217a1,1,0,0,1-.488,1.871Z" transform="translate(-773.357 -344.486)" fill="#adadad"/>
      </g>
      <g id="Group_574" data-name="Group 574" transform="translate(0 43.935)">
        <path id="Path_288" data-name="Path 288" d="M702.067,359.664a1,1,0,0,1-.678-1.732,42.321,42.321,0,0,1,4.982-3.9,1,1,0,1,1,1.123,1.653,40.359,40.359,0,0,0-4.748,3.719,1,1,0,0,1-.679.264Z" transform="translate(-701.066 -353.856)" fill="#adadad"/>
      </g>
      <g id="Group_575" data-name="Group 575" transform="translate(93.289 61.932)">
        <path id="Path_289" data-name="Path 289" d="M799.015,376.492a1,1,0,0,1-.6-.2c-.927-.7-1.917-1.377-2.94-2.025l-.852-.543a1,1,0,1,1,1.082-1.68l.848.541c1.064.674,2.1,1.386,3.067,2.113a1,1,0,0,1-.6,1.8Z" transform="translate(-794.161 -371.885)" fill="#adadad"/>
      </g>
      <g id="Group_576" data-name="Group 576" transform="translate(3.017 56.035)">
        <path id="Path_290" data-name="Path 290" d="M705.079,376.482a1,1,0,0,1-.6-1.8,58.917,58.917,0,0,1,15.647-8.125s.538-.19,1.584-.532a1,1,0,1,1,.624,1.9c-1.01.33-1.529.514-1.536.516a56.988,56.988,0,0,0-15.113,7.838A1,1,0,0,1,705.079,376.482Z" transform="translate(-704.077 -365.978)" fill="#adadad"/>
      </g>
      <g id="Group_577" data-name="Group 577" transform="translate(89.918 66.488)">
        <path id="Path_291" data-name="Path 291" d="M796.913,381.431a1,1,0,0,1-.554-.168,52.389,52.389,0,0,0-5.018-2.929,1,1,0,1,1,.918-1.775,54.094,54.094,0,0,1,5.211,3.043,1,1,0,0,1-.557,1.829Z" transform="translate(-790.797 -376.449)" fill="#adadad"/>
      </g>
      <g id="Group_578" data-name="Group 578" transform="translate(13.085 61.491)">
        <path id="Path_292" data-name="Path 292" d="M715.127,377.027a1,1,0,0,1-.41-1.91c1.527-.681,3.625-1.468,3.714-1.5,2.048-.785,4.209-1.505,6.418-2.138a1,1,0,1,1,.554,1.919c-2.153.617-4.259,1.319-6.261,2.085-.028.011-2.135.8-3.608,1.457a1.023,1.023,0,0,1-.408.084Z" transform="translate(-714.124 -371.443)" fill="#adadad"/>
      </g>
      <g id="Group_579" data-name="Group 579" transform="translate(5.13 67.527)">
        <path id="Path_293" data-name="Path 293" d="M707.2,381.423a1,1,0,0,1-.48-1.879c1.017-.67,2.08-1.319,3.161-1.926a1,1,0,1,1,.985,1.739c-1.065.6-2.111,1.237-3.107,1.9a1,1,0,0,1-.559.169Z" transform="translate(-706.185 -377.49)" fill="#adadad"/>
      </g>
      <g id="Group_580" data-name="Group 580" transform="translate(7.827 67.038)">
        <path id="Path_294" data-name="Path 294" d="M709.879,386.184a1,1,0,0,1-.5-1.863,69.425,69.425,0,0,1,15.416-6.389c.03-.008,2.251-.572,3.6-.9a1,1,0,1,1,.473,1.94c-1.339.323-3.545.884-3.545.884a67.329,67.329,0,0,0-14.939,6.189,1,1,0,0,1-.5.137Z" transform="translate(-708.877 -377)" fill="#adadad"/>
      </g>
      <g id="Group_581" data-name="Group 581" transform="translate(11.176 75.264)">
        <path id="Path_295" data-name="Path 295" d="M713.229,390.839a1,1,0,0,1-.445-1.9c1.245-.613,2.545-1.2,3.865-1.747.015-.006,3.361-1.326,4.834-1.889a1,1,0,1,1,.719,1.864c-1.467.561-4.8,1.875-4.8,1.875-1.264.524-2.524,1.1-3.732,1.687A1,1,0,0,1,713.229,390.839Z" transform="translate(-712.219 -385.24)" fill="#adadad"/>
      </g>
      <g id="Group_582" data-name="Group 582" transform="translate(73.317 79.777)">
        <path id="Path_296" data-name="Path 296" d="M786.695,395.4a1.016,1.016,0,0,1-.379-.074c-1.193-.486-2.434-.951-3.687-1.383-.019-.007-4.332-1.375-5.839-1.761l-1.8-.458a1,1,0,1,1,.493-1.936l1.81.461c1.558.4,5.789,1.742,5.968,1.8,1.311.452,2.585.93,3.808,1.43a1,1,0,0,1-.379,1.923Z" transform="translate(-774.231 -389.761)" fill="#adadad"/>
      </g>
      <g id="Group_583" data-name="Group 583" transform="translate(68.689 85.233)">
        <path id="Path_297" data-name="Path 297" d="M781.324,399.892a1.029,1.029,0,0,1-.307-.048,86.266,86.266,0,0,0-10.586-2.636,1,1,0,1,1,.366-1.964,88.405,88.405,0,0,1,10.833,2.7,1,1,0,0,1-.307,1.949Z" transform="translate(-769.612 -395.227)" fill="#adadad"/>
      </g>
      <g id="Group_584" data-name="Group 584" transform="translate(42.729 83.573)">
        <path id="Path_298" data-name="Path 298" d="M763.506,396.175a1.019,1.019,0,0,1-.11-.006,106.56,106.56,0,0,0-16.476-.485l-2.141.152a1,1,0,1,1-.142-1.992l2.162-.153a107.908,107.908,0,0,1,16.814.493,1,1,0,0,1-.107,1.991Z" transform="translate(-743.706 -393.564)" fill="#adadad"/>
      </g>
      <g id="Group_585" data-name="Group 585" transform="translate(20.772 84.546)">
        <path id="Path_299" data-name="Path 299" d="M722.8,399.891a1,1,0,0,1-.307-1.949,90.886,90.886,0,0,1,15.125-3.394,1,1,0,1,1,.276,1.978,88.95,88.95,0,0,0-14.788,3.315,1.025,1.025,0,0,1-.307.05Z" transform="translate(-721.795 -394.538)" fill="#adadad"/>
      </g>
      <g id="Group_586" data-name="Group 586" transform="translate(51.725 90.017)">
        <path id="Path_300" data-name="Path 300" d="M773.926,404.335a.973.973,0,0,1-.219-.024,99.362,99.362,0,0,0-20.029-2.3,1,1,0,1,1,.015-2h.016a101.353,101.353,0,0,1,20.435,2.342,1,1,0,0,1-.217,1.972Z" transform="translate(-752.684 -400.019)" fill="#adadad"/>
      </g>
      <g id="Group_587" data-name="Group 587" transform="translate(28.193 90.211)">
        <path id="Path_301" data-name="Path 301" d="M730.212,404.336a1,1,0,0,1-.164-1.985,99.52,99.52,0,0,1,15.358-2.135,1,1,0,1,1,.123,2,97.511,97.511,0,0,0-15.1,2.1.953.953,0,0,1-.218.021Z" transform="translate(-729.2 -400.214)" fill="#adadad"/>
      </g>
      <g id="Group_588" data-name="Group 588" transform="translate(42.13 96.431)">
        <path id="Path_302" data-name="Path 302" d="M744.148,408.734a1,1,0,1,1-.073-2,109.057,109.057,0,0,1,15.97,0,1,1,0,0,1,.926,1.068.989.989,0,0,1-1.073.922,107.266,107.266,0,0,0-15.676,0Z" transform="translate(-743.109 -406.445)" fill="#adadad"/>
      </g>
      <g id="Group_589" data-name="Group 589" transform="translate(0.405 45.616)">
        <path id="Path_303" data-name="Path 303" d="M702.472,365.732a1,1,0,0,1-1-1v-.009a1,1,0,0,1,.331-.74,48.79,48.79,0,0,1,11.023-7.237,21.459,21.459,0,0,1,2.357-1.126,1,1,0,1,1,.795,1.833,19.444,19.444,0,0,0-2.13,1.01c-.029.018-.065.039-.1.054a46.964,46.964,0,0,0-10.573,6.917A1,1,0,0,1,702.472,365.732Z" transform="translate(-701.47 -355.54)" fill="#adadad"/>
      </g>
      <g id="Group_590" data-name="Group 590" transform="translate(0.424 35.831)">
        <path id="Path_304" data-name="Path 304" d="M702.491,352.839a1,1,0,0,1-.668-1.742,42.475,42.475,0,0,1,7.326-5.24,1,1,0,0,1,1,1.728,40.475,40.475,0,0,0-6.994,5A1,1,0,0,1,702.491,352.839Z" transform="translate(-701.489 -345.738)" fill="#adadad"/>
      </g>
      <g id="Group_591" data-name="Group 591" transform="translate(23.802 72.679)">
        <path id="Path_305" data-name="Path 305" d="M725.821,386.1a1,1,0,0,1-.267-1.961c1.663-.46,3.926-1,6.213-1.468a1,1,0,1,1,.407,1.956c-2.244.463-4.46.988-6.083,1.437a1.042,1.042,0,0,1-.271.036Z" transform="translate(-724.819 -382.651)" fill="#adadad"/>
      </g>
      <g id="Group_592" data-name="Group 592" transform="translate(78.216 74.718)">
        <path id="Path_306" data-name="Path 306" d="M790.891,390.848a1,1,0,0,1-.442-.1,71.446,71.446,0,0,0-10.622-4.1,1,1,0,1,1,.591-1.909,73.463,73.463,0,0,1,10.923,4.221,1,1,0,0,1-.445,1.9Z" transform="translate(-779.119 -384.693)" fill="#adadad"/>
      </g>
      <g id="Group_593" data-name="Group 593" transform="translate(7.631 40.626)">
        <path id="Path_307" data-name="Path 307" d="M709.685,354.094a1,1,0,0,1-.508-1.86c1.2-.7,1.832-1.04,2.948-1.589a1,1,0,1,1,.887,1.79c-1.066.525-1.673.851-2.822,1.523A1.006,1.006,0,0,1,709.685,354.094Z" transform="translate(-708.681 -350.541)" fill="#adadad"/>
      </g>
    </g>
    <g id="Text" transform="translate(0 33.828)">
      <g id="Group_595" data-name="Group 595" transform="translate(0 3.885)">
        <path id="Path_308" data-name="Path 308" d="M488.436,357l.062-.149a6.432,6.432,0,0,0,.311-.929c.074-.3.141-.623.2-.98s.1-.726.136-1.118c.034-.438.048-.827.048-1.184a4.4,4.4,0,0,0-.413-1.967,3.755,3.755,0,0,0-1.222-1.4,4.669,4.669,0,0,0-1.35-.669,6.849,6.849,0,0,0-2.639-.192,5.665,5.665,0,0,0-.893.169,6.25,6.25,0,0,0-.82.279,10.472,10.472,0,0,0-.977.479l-.2.113.669,1.468.243-.16a5.208,5.208,0,0,1,1.431-.682,4.692,4.692,0,0,1,2.592-.019,3.362,3.362,0,0,1,.912.415,2.2,2.2,0,0,1,.747.879,2.657,2.657,0,0,1,.2,1.058,16.341,16.341,0,0,1-.1,2.036,6.917,6.917,0,0,1-.189,1.014H476.964l-.005-7.1h-1.7l0,7.1h-4.823l-.005-7.84h-1.7v.736h-.553a8.567,8.567,0,0,0-2.431.318,6.086,6.086,0,0,0-1.888.9,4.052,4.052,0,0,0-1.237,1.378,3.587,3.587,0,0,0-.428,1.729,3.676,3.676,0,0,0,.52,1.979,4.113,4.113,0,0,0,1.363,1.348,5.9,5.9,0,0,0,1.912.759,9.975,9.975,0,0,0,2.193.233h20.249Zm-20.724-7.106h1.029v5.573h-1.029a5.476,5.476,0,0,1-1.527-.2,3.989,3.989,0,0,1-1.22-.56,2.5,2.5,0,0,1-.78-.86,2.3,2.3,0,0,1-.286-1.162,2.116,2.116,0,0,1,.3-1.111,2.819,2.819,0,0,1,.84-.874,4.678,4.678,0,0,1,1.237-.585,4.877,4.877,0,0,1,1.431-.218" transform="translate(-462.197 -347.623)" fill="#074045"/>
      </g>
      <g id="Group_596" data-name="Group 596" transform="translate(27.082 4.621)">
        <path id="Path_309" data-name="Path 309" d="M491.669,348.361l.005,8.922a4.966,4.966,0,0,1-.039.58,1.209,1.209,0,0,1-.127.464.666.666,0,0,1-.253.275.9.9,0,0,1-.488.1,2.31,2.31,0,0,1-.685-.159l-.214-.078-.645,1.418.248.091a3.6,3.6,0,0,0,1.227.262,3.2,3.2,0,0,0,1.33-.238,1.984,1.984,0,0,0,.849-.685,2.566,2.566,0,0,0,.4-.968,5.39,5.39,0,0,0,.1-1.063l-.005-8.922Z" transform="translate(-489.223 -348.36)" fill="#074045"/>
      </g>
      <g id="Group_597" data-name="Group 597" transform="translate(33.427 0.501)">
        <path id="Path_310" data-name="Path 310" d="M513.437,345.767h1.678v-1.533h-3.382l.005,11.224h-3.512c.053-.265.108-.6.165-1.009a12.858,12.858,0,0,0,.121-1.818,4.388,4.388,0,0,0-.417-1.968,3.7,3.7,0,0,0-1.219-1.4,4.617,4.617,0,0,0-1.35-.668,5.231,5.231,0,0,0-1.6-.246,10.038,10.038,0,0,0-1.04.054,5.685,5.685,0,0,0-.886.168,6.364,6.364,0,0,0-.825.281,10.838,10.838,0,0,0-.977.479l-.208.112.684,1.468.238-.16a5.028,5.028,0,0,1,1.426-.681,4.688,4.688,0,0,1,2.59-.02,3.345,3.345,0,0,1,.914.415,2.244,2.244,0,0,1,.751.879,2.729,2.729,0,0,1,.2,1.059,16.325,16.325,0,0,1-.1,2.035,7.889,7.889,0,0,1-.19,1.014h-9.244V344.233h-1.7l.005,12.758h17.878Z" transform="translate(-495.554 -344.233)" fill="#074045"/>
      </g>
      <g id="Group_598" data-name="Group 598" transform="translate(54.335 0.502)">
        <rect id="Rectangle_145" data-name="Rectangle 145" width="1.704" height="12.757" fill="#074045"/>
      </g>
      <g id="Group_599" data-name="Group 599" transform="translate(61.039 3.886)">
        <path id="Path_311" data-name="Path 311" d="M531.343,347.624h-1.7v.736h-.549a8.487,8.487,0,0,0-2.424.318,5.943,5.943,0,0,0-1.893.9,4.054,4.054,0,0,0-1.239,1.378,3.582,3.582,0,0,0-.425,1.729,3.659,3.659,0,0,0,.519,1.979,4.1,4.1,0,0,0,1.363,1.348,5.894,5.894,0,0,0,1.911.759A9.972,9.972,0,0,0,529.1,357h2.253Zm-2.722,2.267h1.023v5.573h-1.023a5.489,5.489,0,0,1-1.529-.2,3.97,3.97,0,0,1-1.218-.56,2.533,2.533,0,0,1-.782-.86,2.327,2.327,0,0,1-.281-1.162,2.1,2.1,0,0,1,.3-1.111,2.791,2.791,0,0,1,.835-.874,4.708,4.708,0,0,1,1.239-.585,4.864,4.864,0,0,1,1.431-.218" transform="translate(-523.109 -347.624)" fill="#074045"/>
      </g>
      <g id="Group_600" data-name="Group 600" transform="translate(69.938 4.622)">
        <path id="Path_312" data-name="Path 312" d="M536.042,358.346a5.409,5.409,0,0,0,.1-1.063l-.005-8.922h-1.7l0,8.922a4.938,4.938,0,0,1-.039.579,1.209,1.209,0,0,1-.127.464.668.668,0,0,1-.253.276.912.912,0,0,1-.488.1,2.311,2.311,0,0,1-.685-.159l-.214-.079-.644,1.419.247.091a3.6,3.6,0,0,0,1.227.262,3.218,3.218,0,0,0,1.33-.238,1.987,1.987,0,0,0,.849-.686,2.524,2.524,0,0,0,.4-.967" transform="translate(-531.99 -348.361)" fill="#074045"/>
      </g>
      <g id="Group_601" data-name="Group 601" transform="translate(76.275 0.501)">
        <path id="Path_313" data-name="Path 313" d="M567.771,355.458h-4.018l-.005-11.224h-1.7l.005,11.224H557.4v-7.1h-1.7l0,7.1h-4.71c.055-.265.107-.6.165-1.009a12.826,12.826,0,0,0,.121-1.818,4.387,4.387,0,0,0-.417-1.968,3.7,3.7,0,0,0-1.219-1.4,4.643,4.643,0,0,0-1.348-.668,5.257,5.257,0,0,0-1.6-.246,10.024,10.024,0,0,0-1.039.054,5.741,5.741,0,0,0-.888.168,6.39,6.39,0,0,0-.825.28,10.482,10.482,0,0,0-.976.479l-.208.112.684,1.468.238-.16a5.067,5.067,0,0,1,1.427-.681,4.689,4.689,0,0,1,2.59-.02,3.325,3.325,0,0,1,.913.415,2.239,2.239,0,0,1,.752.879,2.749,2.749,0,0,1,.2,1.059,16.325,16.325,0,0,1-.1,2.035,7.886,7.886,0,0,1-.19,1.014h-9.243l-.005-11.224h-1.7l.005,12.758h31.143l0-11.223h1.679v-1.533h-3.378Z" transform="translate(-538.313 -344.233)" fill="#074045"/>
      </g>
      <g id="Group_602" data-name="Group 602" transform="translate(112.915 3.889)">
        <path id="Path_314" data-name="Path 314" d="M594.28,350.365a5.407,5.407,0,0,0-1.689-.967,6.205,6.205,0,0,0-2.115-.347,5.622,5.622,0,0,0-2.037.357,5.165,5.165,0,0,0-1.635.991,4.812,4.812,0,0,0-1.087,1.468,4.027,4.027,0,0,0-.407,1.8,4.106,4.106,0,0,0,.354,1.8h-2.546l-.005-7.84h-1.7v.736h-.549a8.486,8.486,0,0,0-2.424.318,5.943,5.943,0,0,0-1.893.9,4.057,4.057,0,0,0-1.239,1.378,3.582,3.582,0,0,0-.426,1.729,3.658,3.658,0,0,0,.52,1.979,4.115,4.115,0,0,0,1.361,1.348,5.925,5.925,0,0,0,1.913.759,9.975,9.975,0,0,0,2.193.233h6.017a5.133,5.133,0,0,0,1.509.879,5.8,5.8,0,0,0,2.085.368,6.139,6.139,0,0,0,2.087-.339,5.252,5.252,0,0,0,1.685-.951,4.674,4.674,0,0,0,1.139-1.445,4.1,4.1,0,0,0,.418-1.847,4.207,4.207,0,0,0-.408-1.837,4.66,4.66,0,0,0-1.121-1.46m-1.183,1.1a2.829,2.829,0,0,1,.742.966,2.878,2.878,0,0,1,.268,1.233,2.7,2.7,0,0,1-.272,1.218,2.958,2.958,0,0,1-.744.958,3.475,3.475,0,0,1-1.144.637,4.442,4.442,0,0,1-1.467.238,3.751,3.751,0,0,1-1.392-.252,3.582,3.582,0,0,1-1.1-.662,2.928,2.928,0,0,1-.718-.972,2.775,2.775,0,0,1-.262-1.165,2.815,2.815,0,0,1,.256-1.174,3.1,3.1,0,0,1,.723-.991,3.455,3.455,0,0,1,1.087-.667,3.868,3.868,0,0,1,1.4-.247,4.509,4.509,0,0,1,1.467.231,3.633,3.633,0,0,1,1.149.649m-12.7-1.571h1.027v5.573h-1.023a5.489,5.489,0,0,1-1.529-.2,3.966,3.966,0,0,1-1.218-.56,2.522,2.522,0,0,1-.782-.86,2.325,2.325,0,0,1-.281-1.162,2.1,2.1,0,0,1,.3-1.111,2.788,2.788,0,0,1,.835-.874,4.716,4.716,0,0,1,1.237-.585,4.884,4.884,0,0,1,1.433-.218" transform="translate(-574.877 -347.627)" fill="#074045"/>
      </g>
      <g id="Group_603" data-name="Group 603" transform="translate(135.516 0.501)">
        <path id="Path_315" data-name="Path 315" d="M614.768,344.233l.008,11.221H609.8l2.4-5.045a1.032,1.032,0,0,0-.162-.115,9.544,9.544,0,0,0-2.594-1.432,7.754,7.754,0,0,0-5.288-.007.359.359,0,0,0-.085.03,8.5,8.5,0,0,0-2.617,1.485l-.016.023a.069.069,0,0,0-.03.015l2.3,5.045h-4.577V344.233h-1.7l.008,12.76H616.47V345.764h1.683v-1.531Zm-9.133,11.221-2.146-4.545a5.922,5.922,0,0,1,1.467-.708v-.012a5.3,5.3,0,0,1,2.806-.216,7.629,7.629,0,0,1,1,.284,9.225,9.225,0,0,1,.919.393c.184.092.34.184.455.254l-2.169,4.545Z" transform="translate(-597.431 -344.233)" fill="#074045"/>
      </g>
      <g id="Group_604" data-name="Group 604" transform="translate(157.592 0.502)">
        <rect id="Rectangle_146" data-name="Rectangle 146" width="1.7" height="12.757" fill="#074045"/>
      </g>
      <g id="Group_605" data-name="Group 605" transform="translate(174.42)">
        <path id="Path_316" data-name="Path 316" d="M640.493,345.862H637.98v-.149c0-.218.058-.3.1-.338.029-.024.156-.107.563-.107h1.3v-1.531h-1.422a2.279,2.279,0,0,0-1.693.585h-.005a2.21,2.21,0,0,0-.568,1.609v1.462h4.231Z" transform="translate(-636.254 -343.731)" fill="#074045"/>
      </g>
      <g id="Group_606" data-name="Group 606" transform="translate(164.291 0.497)">
        <path id="Path_317" data-name="Path 317" d="M666.071,345.762h1.685v-1.533h-3.387l.005,11.224h-3.485c.034-.2.079-.439.123-.734a9.317,9.317,0,0,0,.091-1.349,8.61,8.61,0,0,0-.21-1.9,5.919,5.919,0,0,0-.726-1.8,4.833,4.833,0,0,0-.908-1.088,6.2,6.2,0,0,0-1.281-.88,7.75,7.75,0,0,0-1.6-.613,7.518,7.518,0,0,0-1.869-.224,9.946,9.946,0,0,0-2.421.275,15.428,15.428,0,0,0-2.343.845l-.242.112.747,1.392.207-.1a15.368,15.368,0,0,1,1.8-.7,6.156,6.156,0,0,1,1.854-.276,6.75,6.75,0,0,1,2.935.57,3.7,3.7,0,0,1,1.693,1.548,4.836,4.836,0,0,1,.528,1.392,8.417,8.417,0,0,1,.141,1.638,7.44,7.44,0,0,1-.086,1.1c-.05.333-.093.589-.137.8h-1.634c.014-.087.033-.193.058-.329a7.027,7.027,0,0,0,.083-1.092,5.086,5.086,0,0,0-.239-1.61,3.489,3.489,0,0,0-.747-1.284,3.556,3.556,0,0,0-1.218-.837,4.178,4.178,0,0,0-1.625-.294,4.223,4.223,0,0,0-1.635.294,3.463,3.463,0,0,0-2,2.116,4.9,4.9,0,0,0-.251,1.614,5.669,5.669,0,0,0,.106,1.107q.036.191.057.314h-4.405l-.005-7.1h-1.7l0,7.1h-4.833l-.005-7.1h-1.7l.005,7.1h-3.124l-.005-7.84h-1.693v.736h-.553a8.551,8.551,0,0,0-2.431.318,6.077,6.077,0,0,0-1.888.9,4.068,4.068,0,0,0-1.239,1.378,3.583,3.583,0,0,0-.425,1.729,3.66,3.66,0,0,0,.519,1.979,4.122,4.122,0,0,0,1.363,1.348,5.892,5.892,0,0,0,1.912.759,9.964,9.964,0,0,0,2.194.233h17.236L663.021,357h3.052Zm-10.083,8.274a5.48,5.48,0,0,1-.087,1c-.024.175-.048.314-.072.42h-3.989c-.024-.111-.048-.256-.082-.435a6.059,6.059,0,0,1-.077-.986,3.57,3.57,0,0,1,.14-1.033,2.241,2.241,0,0,1,.413-.788,1.745,1.745,0,0,1,.664-.5,2.273,2.273,0,0,1,.961-.179,2.112,2.112,0,0,1,.917.179,1.879,1.879,0,0,1,.654.508,2.087,2.087,0,0,1,.413.789,3.381,3.381,0,0,1,.145,1.018m-24.328-4.152h1.029v5.573h-1.029a5.49,5.49,0,0,1-1.529-.2,3.979,3.979,0,0,1-1.218-.56,2.532,2.532,0,0,1-.782-.86,2.3,2.3,0,0,1-.286-1.162,2.116,2.116,0,0,1,.3-1.111,2.85,2.85,0,0,1,.839-.874,4.7,4.7,0,0,1,1.238-.585,4.865,4.865,0,0,1,1.431-.218" transform="translate(-626.147 -344.229)" fill="#074045"/>
      </g>
      <g id="Group_607" data-name="Group 607" transform="translate(207.251 0.497)">
        <rect id="Rectangle_147" data-name="Rectangle 147" width="1.698" height="12.757" fill="#074045"/>
      </g>
      <g id="Group_608" data-name="Group 608" transform="translate(0.254 21.177)">
        <path id="Path_318" data-name="Path 318" d="M465.313,372.811a4.311,4.311,0,0,1-.832-.079,4.872,4.872,0,0,1-.771-.213,3.988,3.988,0,0,1-.674-.318,3.05,3.05,0,0,1-.534-.4c-.06-.06-.068-.116-.023-.168l.7-.807a.1.1,0,0,1,.157-.012,4.1,4.1,0,0,0,.411.292,3.352,3.352,0,0,0,.495.259,3.854,3.854,0,0,0,.556.185,2.534,2.534,0,0,0,.618.073,1.636,1.636,0,0,0,1.063-.308.974.974,0,0,0,.377-.79.856.856,0,0,0-.3-.678,2.187,2.187,0,0,0-1.091-.375l-.4-.056a3.178,3.178,0,0,1-1.709-.689,1.886,1.886,0,0,1-.6-1.484,2.387,2.387,0,0,1,.179-.941,2.035,2.035,0,0,1,.518-.729,2.323,2.323,0,0,1,.815-.464,3.31,3.31,0,0,1,1.073-.163,4.435,4.435,0,0,1,1.367.208,3.7,3.7,0,0,1,1.108.554.11.11,0,0,1,.022.157l-.54.83a.106.106,0,0,1-.157.033,4.116,4.116,0,0,0-.911-.447,2.883,2.883,0,0,0-.922-.146,1.271,1.271,0,0,0-.894.285.954.954,0,0,0-.31.734.817.817,0,0,0,.316.655,2.222,2.222,0,0,0,1.09.375l.4.056a3.119,3.119,0,0,1,1.7.69,1.947,1.947,0,0,1,.584,1.517,2.442,2.442,0,0,1-.18.941,1.94,1.94,0,0,1-.545.751,2.653,2.653,0,0,1-.9.493,3.983,3.983,0,0,1-1.249.179" transform="translate(-462.45 -364.946)" fill="#074045"/>
      </g>
      <g id="Group_609" data-name="Group 609" transform="translate(7.264 23.394)">
        <path id="Path_319" data-name="Path 319" d="M472.922,372.69a.1.1,0,0,1-.084-.028.1.1,0,0,1-.029-.083v-.387H472.8a1.35,1.35,0,0,1-.573.453,2.312,2.312,0,0,1-.956.174,2.413,2.413,0,0,1-.7-.1,1.668,1.668,0,0,1-.579-.3,1.449,1.449,0,0,1-.393-.51,1.69,1.69,0,0,1-.146-.733,1.488,1.488,0,0,1,.579-1.3,2.687,2.687,0,0,1,1.591-.415h1.1a.06.06,0,0,0,.068-.067v-.258a.835.835,0,0,0-.26-.683,1.528,1.528,0,0,0-.944-.214,2.237,2.237,0,0,0-.754.107,1.622,1.622,0,0,0-.483.264c-.068.052-.12.045-.158-.023l-.416-.739a.1.1,0,0,1,.022-.146,2.735,2.735,0,0,1,.788-.381,3.822,3.822,0,0,1,1.135-.146,2.661,2.661,0,0,1,1.749.448,1.809,1.809,0,0,1,.512,1.433v3.53a.1.1,0,0,1-.112.112Zm-1.338-.9a1.508,1.508,0,0,0,.894-.225.8.8,0,0,0,.31-.7v-.414a.06.06,0,0,0-.017-.051.06.06,0,0,0-.051-.017h-.9a1.745,1.745,0,0,0-.888.174.6.6,0,0,0-.282.555q0,.671.934.672" transform="translate(-469.445 -367.166)" fill="#074045"/>
      </g>
      <g id="Group_610" data-name="Group 610" transform="translate(13.552 23.515)">
        <path id="Path_320" data-name="Path 320" d="M479.117,372.691a.1.1,0,0,1-.084-.029.1.1,0,0,1-.029-.083v-.387h-.012a1.726,1.726,0,0,1-.556.453,1.822,1.822,0,0,1-.849.174,1.919,1.919,0,0,1-.782-.151,1.709,1.709,0,0,1-.585-.42,1.9,1.9,0,0,1-.371-.633,2.382,2.382,0,0,1-.129-.8V367.4a.1.1,0,0,1,.112-.112h1.035a.1.1,0,0,1,.112.112v3.115a1.369,1.369,0,0,0,.248.852,1.043,1.043,0,0,0,1.512,0,1.294,1.294,0,0,0,.264-.841V367.4a.1.1,0,0,1,.112-.112h1.035a.1.1,0,0,1,.112.112v5.176a.1.1,0,0,1-.112.112Z" transform="translate(-475.72 -367.287)" fill="#074045"/>
      </g>
      <g id="Group_611" data-name="Group 611" transform="translate(19.664 21.304)">
        <path id="Path_321" data-name="Path 321" d="M485.459,372.687a.1.1,0,0,1-.084-.028.1.1,0,0,1-.029-.083v-.4h-.012a1.425,1.425,0,0,1-.539.46,1.977,1.977,0,0,1-.9.179,2.065,2.065,0,0,1-1.18-.324,1.8,1.8,0,0,1-.7-.975,3.659,3.659,0,0,1-.146-.644,8.6,8.6,0,0,1,0-1.759,3.7,3.7,0,0,1,.146-.644,1.8,1.8,0,0,1,.7-.974,2.066,2.066,0,0,1,1.18-.325,1.964,1.964,0,0,1,.9.18,1.431,1.431,0,0,1,.539.459h.012v-2.621a.1.1,0,0,1,.028-.083.1.1,0,0,1,.084-.028h1.034a.1.1,0,0,1,.112.112v7.394a.1.1,0,0,1-.029.083.1.1,0,0,1-.084.028Zm-1.238-1a.957.957,0,0,0,1.012-.7,2.454,2.454,0,0,0,.084-.414,6.078,6.078,0,0,0,0-1.187,2.5,2.5,0,0,0-.084-.415,1.077,1.077,0,0,0-2.013,0,2.708,2.708,0,0,0-.084.415,6.294,6.294,0,0,0,0,1.187,2.684,2.684,0,0,0,.084.414.95.95,0,0,0,1,.7" transform="translate(-481.82 -365.073)" fill="#074045"/>
      </g>
      <g id="Group_612" data-name="Group 612" transform="translate(26.316 23.52)">
        <path id="Rectangle_148" data-name="Rectangle 148" d="M.112,0H1.147A.112.112,0,0,1,1.26.112V5.291a.113.113,0,0,1-.113.113H.112A.112.112,0,0,1,0,5.291V.112A.112.112,0,0,1,.112,0Z" transform="translate(0)" fill="#074045"/>
      </g>
      <g id="Group_613" data-name="Group 613" transform="translate(32.115 21.177)">
        <path id="Path_322" data-name="Path 322" d="M494.451,370.974c-.038-.12-.069-.239-.1-.358a3.554,3.554,0,0,1-.061-.414c-.015-.158-.027-.342-.034-.555s-.011-.468-.011-.768,0-.554.011-.767.019-.4.034-.555a3.551,3.551,0,0,1,.061-.414,3.193,3.193,0,0,1,.1-.358,2.486,2.486,0,0,1,1-1.373,3.091,3.091,0,0,1,1.732-.465,3.319,3.319,0,0,1,.978.135,3.1,3.1,0,0,1,.776.353,2.208,2.208,0,0,1,.562.515,2.577,2.577,0,0,1,.348.611.111.111,0,0,1-.044.156l-.945.415a.108.108,0,0,1-.146-.056,2.007,2.007,0,0,0-.618-.7,1.627,1.627,0,0,0-.923-.241,1.508,1.508,0,0,0-.933.264,1.476,1.476,0,0,0-.5.734,2.3,2.3,0,0,0-.062.235,2.991,2.991,0,0,0-.044.336c-.012.135-.019.3-.023.487s-.005.42-.005.689,0,.5.005.69.011.352.023.487a2.992,2.992,0,0,0,.044.336,2.317,2.317,0,0,0,.062.235,1.48,1.48,0,0,0,.5.734,1.507,1.507,0,0,0,.933.264,1.684,1.684,0,0,0,.9-.241,1.286,1.286,0,0,0,.552-.712,2.732,2.732,0,0,0,.089-.42,4.2,4.2,0,0,0,.034-.566.06.06,0,0,0-.068-.067h-1.26a.1.1,0,0,1-.112-.112v-.9a.1.1,0,0,1,.112-.112h2.53a.1.1,0,0,1,.113.112v.661c0,.313-.016.622-.045.924a3.86,3.86,0,0,1-.135.745,2.536,2.536,0,0,1-1,1.385,2.952,2.952,0,0,1-1.7.486,3.082,3.082,0,0,1-1.732-.464,2.485,2.485,0,0,1-1-1.373" transform="translate(-494.245 -364.945)" fill="#074045"/>
      </g>
      <g id="Group_614" data-name="Group 614" transform="translate(39.304 23.397)">
        <path id="Path_323" data-name="Path 323" d="M503.871,372.816a2.519,2.519,0,0,1-1.451-.4,2.035,2.035,0,0,1-.809-1.1,3.348,3.348,0,0,1-.141-.577,4.758,4.758,0,0,1-.051-.745,5.5,5.5,0,0,1,.046-.751,3,3,0,0,1,.134-.582,2.016,2.016,0,0,1,.816-1.1,2.722,2.722,0,0,1,2.822.006,2.042,2.042,0,0,1,.8,1.1c.03.1.058.194.08.29s.04.209.056.336.027.271.034.431.01.349.01.565c0,.075-.04.113-.122.113h-3.341a.061.061,0,0,0-.051.017.06.06,0,0,0-.017.05.907.907,0,0,0,.024.224,1.086,1.086,0,0,0,.056.191,1.155,1.155,0,0,0,1.213.819,1.773,1.773,0,0,0,.765-.146,1.6,1.6,0,0,0,.506-.37c.06-.06.116-.067.168-.022l.664.582a.1.1,0,0,1,.012.158,2.667,2.667,0,0,1-.911.661,3.144,3.144,0,0,1-1.317.258m1.08-3.428a1.411,1.411,0,0,0-.068-.459.97.97,0,0,0-.394-.51,1.179,1.179,0,0,0-.662-.185,1.212,1.212,0,0,0-.676.185.973.973,0,0,0-.393.51,1.467,1.467,0,0,0-.068.459.06.06,0,0,0,.017.05.06.06,0,0,0,.051.017h2.125a.06.06,0,0,0,.051-.017.06.06,0,0,0,.017-.05" transform="translate(-501.419 -367.17)" fill="#074045"/>
      </g>
      <g id="Group_615" data-name="Group 615" transform="translate(45.675 23.391)">
        <path id="Path_324" data-name="Path 324" d="M511.207,372.69a.1.1,0,0,1-.112-.112v-3.115a1.326,1.326,0,0,0-.259-.851.919.919,0,0,0-.765-.325.938.938,0,0,0-.765.325,1.286,1.286,0,0,0-.271.851v3.115a.1.1,0,0,1-.029.083.1.1,0,0,1-.084.028h-1.035a.1.1,0,0,1-.083-.029.1.1,0,0,1-.028-.083V367.4a.1.1,0,0,1,.028-.083.1.1,0,0,1,.083-.029h1.035a.1.1,0,0,1,.084.028.1.1,0,0,1,.029.083v.392h.011a1.47,1.47,0,0,1,.534-.443,2.177,2.177,0,0,1,1.676-.033,1.753,1.753,0,0,1,.59.42,1.828,1.828,0,0,1,.377.633,2.373,2.373,0,0,1,.129.8v3.406a.1.1,0,0,1-.112.112Z" transform="translate(-507.777 -367.164)" fill="#074045"/>
      </g>
      <g id="Group_616" data-name="Group 616" transform="translate(51.776 23.398)">
        <path id="Path_325" data-name="Path 325" d="M516.316,372.816a2.513,2.513,0,0,1-1.45-.4,2.036,2.036,0,0,1-.81-1.1,3.346,3.346,0,0,1-.141-.577,4.918,4.918,0,0,1-.05-.745,5.562,5.562,0,0,1,.045-.751,3.077,3.077,0,0,1,.134-.582,2.012,2.012,0,0,1,.816-1.1,2.724,2.724,0,0,1,2.823.006,2.056,2.056,0,0,1,.8,1.1c.03.1.057.194.079.291a3.213,3.213,0,0,1,.056.336c.015.127.026.271.034.431s.011.349.011.565c0,.075-.041.113-.123.113H515.2a.06.06,0,0,0-.068.067.957.957,0,0,0,.023.224,1.184,1.184,0,0,0,.056.191,1.157,1.157,0,0,0,1.214.819,1.772,1.772,0,0,0,.765-.146,1.623,1.623,0,0,0,.506-.37c.06-.06.116-.067.168-.022l.663.582a.1.1,0,0,1,.012.158,2.649,2.649,0,0,1-.912.661,3.131,3.131,0,0,1-1.316.258m1.08-3.428a1.436,1.436,0,0,0-.067-.459.98.98,0,0,0-.394-.51,1.185,1.185,0,0,0-.664-.185,1.206,1.206,0,0,0-.674.185.968.968,0,0,0-.393.51,1.438,1.438,0,0,0-.068.459.06.06,0,0,0,.068.067h2.125a.06.06,0,0,0,.051-.017.059.059,0,0,0,.017-.05" transform="translate(-513.865 -367.17)" fill="#074045"/>
      </g>
      <g id="Group_617" data-name="Group 617" transform="translate(58.151 23.391)">
        <path id="Path_326" data-name="Path 326" d="M520.34,372.69a.1.1,0,0,1-.084-.028.1.1,0,0,1-.029-.083V367.4a.1.1,0,0,1,.028-.083.1.1,0,0,1,.084-.028h1.035a.1.1,0,0,1,.084.028.1.1,0,0,1,.029.083v.459h.011a1.4,1.4,0,0,1,.539-.5,1.791,1.791,0,0,1,.867-.191,1.683,1.683,0,0,1,.624.118,1.5,1.5,0,0,1,.511.33.109.109,0,0,1,.022.157l-.6.751a.1.1,0,0,1-.157.023,1.828,1.828,0,0,0-.383-.191,1.245,1.245,0,0,0-.416-.068.874.874,0,0,0-.782.359,1.792,1.792,0,0,0-.241,1.007v2.925a.1.1,0,0,1-.112.112Z" transform="translate(-520.227 -367.163)" fill="#074045"/>
      </g>
      <g id="Group_618" data-name="Group 618" transform="translate(62.681 23.394)">
        <path id="Path_327" data-name="Path 327" d="M528.224,372.69a.1.1,0,0,1-.112-.112v-.387H528.1a1.344,1.344,0,0,1-.573.453,2.312,2.312,0,0,1-.956.174,2.422,2.422,0,0,1-.7-.1,1.661,1.661,0,0,1-.578-.3,1.441,1.441,0,0,1-.394-.51,1.693,1.693,0,0,1-.146-.733,1.5,1.5,0,0,1,.579-1.3,2.687,2.687,0,0,1,1.591-.415h1.1a.059.059,0,0,0,.05-.017.059.059,0,0,0,.017-.05v-.258a.835.835,0,0,0-.258-.683,1.532,1.532,0,0,0-.945-.214,2.239,2.239,0,0,0-.753.107,1.639,1.639,0,0,0-.483.264c-.068.052-.12.045-.158-.023l-.416-.739a.1.1,0,0,1,.023-.146,2.72,2.72,0,0,1,.787-.381,3.828,3.828,0,0,1,1.136-.146,2.663,2.663,0,0,1,1.749.448,1.814,1.814,0,0,1,.512,1.433v3.53a.1.1,0,0,1-.113.112Zm-1.338-.9a1.508,1.508,0,0,0,.895-.225.8.8,0,0,0,.309-.7v-.414a.06.06,0,0,0-.017-.05.06.06,0,0,0-.05-.017h-.9a1.746,1.746,0,0,0-.889.174.6.6,0,0,0-.282.555q0,.671.934.672" transform="translate(-524.748 -367.166)" fill="#074045"/>
      </g>
      <g id="Group_619" data-name="Group 619" transform="translate(69.009 21.301)">
        <path id="Path_328" data-name="Path 328" d="M532.552,372.756a1.475,1.475,0,0,1-1.141-.38,1.7,1.7,0,0,1-.343-1.165v-6.027a.1.1,0,0,1,.029-.083.1.1,0,0,1,.084-.028h1.035a.1.1,0,0,1,.112.112v5.96a.522.522,0,0,0,.112.386.507.507,0,0,0,.36.107h.248a.1.1,0,0,1,.112.112v.9a.1.1,0,0,1-.112.112Z" transform="translate(-531.063 -365.07)" fill="#074045"/>
      </g>
      <g id="Group_620" data-name="Group 620" transform="translate(74.788 21.302)">
        <path id="Path_329" data-name="Path 329" d="M539.456,365.183a.14.14,0,0,1,.146-.112h1.034a.14.14,0,0,1,.146.112l2.586,7.394c.023.074,0,.112-.078.112h-1.1a.142.142,0,0,1-.146-.112l-.506-1.479h-2.879l-.506,1.479a.141.141,0,0,1-.146.112h-1.09c-.075,0-.1-.038-.079-.112Zm1.676,4.739-1.012-2.958h-.033l-1.024,2.958Z" transform="translate(-536.829 -365.071)" fill="#074045"/>
      </g>
      <g id="Group_621" data-name="Group 621" transform="translate(82.442 23.514)">
        <path id="Path_330" data-name="Path 330" d="M547.864,372.691a.1.1,0,0,1-.084-.029.1.1,0,0,1-.028-.083v-.387h-.012a1.725,1.725,0,0,1-.556.453,1.824,1.824,0,0,1-.849.174,1.918,1.918,0,0,1-.782-.151,1.7,1.7,0,0,1-.585-.42,1.873,1.873,0,0,1-.371-.633,2.381,2.381,0,0,1-.129-.8V367.4a.1.1,0,0,1,.112-.112h1.034a.1.1,0,0,1,.113.112v3.114a1.375,1.375,0,0,0,.247.852,1.044,1.044,0,0,0,1.513,0,1.293,1.293,0,0,0,.264-.841V367.4a.1.1,0,0,1,.112-.112H548.9a.1.1,0,0,1,.113.112v5.176a.1.1,0,0,1-.113.112Z" transform="translate(-544.467 -367.287)" fill="#074045"/>
      </g>
      <g id="Group_622" data-name="Group 622" transform="translate(88.389 21.856)">
        <path id="Path_331" data-name="Path 331" d="M552.45,372.756a1.479,1.479,0,0,1-1.164-.392,1.761,1.761,0,0,1-.343-1.187v-2.846a.059.059,0,0,0-.067-.067h-.36a.1.1,0,0,1-.113-.112V367.4a.1.1,0,0,1,.029-.084.1.1,0,0,1,.084-.028h.36a.059.059,0,0,0,.05-.017.058.058,0,0,0,.017-.05v-1.479a.1.1,0,0,1,.112-.112h1.035a.1.1,0,0,1,.112.112v1.479a.058.058,0,0,0,.017.05.059.059,0,0,0,.051.017h.72a.1.1,0,0,1,.111.112v.751a.1.1,0,0,1-.028.083.1.1,0,0,1-.083.029h-.721a.059.059,0,0,0-.067.067v2.8a.511.511,0,0,0,.123.4.571.571,0,0,0,.383.107h.281a.1.1,0,0,1,.083.029.1.1,0,0,1,.028.083v.9a.1.1,0,0,1-.028.083.1.1,0,0,1-.083.029Z" transform="translate(-550.402 -365.626)" fill="#074045"/>
      </g>
      <g id="Group_623" data-name="Group 623" transform="translate(92.683 21.299)">
        <path id="Path_332" data-name="Path 332" d="M558.12,372.687a.1.1,0,0,1-.084-.028.1.1,0,0,1-.028-.083V369.46a1.322,1.322,0,0,0-.26-.851.918.918,0,0,0-.765-.325.937.937,0,0,0-.764.325,1.287,1.287,0,0,0-.271.852v3.115a.1.1,0,0,1-.028.083.1.1,0,0,1-.084.028H554.8a.1.1,0,0,1-.084-.028.1.1,0,0,1-.029-.083v-7.394a.1.1,0,0,1,.028-.083.1.1,0,0,1,.084-.028h1.035a.1.1,0,0,1,.112.112V367.8h.011a1.47,1.47,0,0,1,.534-.443,2.175,2.175,0,0,1,1.676-.033,1.746,1.746,0,0,1,.591.42,1.843,1.843,0,0,1,.377.633,2.376,2.376,0,0,1,.129.8v3.406a.1.1,0,0,1-.113.112Z" transform="translate(-554.687 -365.068)" fill="#074045"/>
      </g>
      <g id="Group_624" data-name="Group 624" transform="translate(98.781 23.397)">
        <path id="Path_333" data-name="Path 333" d="M563.191,372.815a2.506,2.506,0,0,1-1.422-.392,2,2,0,0,1-.816-1.1,4.013,4.013,0,0,1-.135-.587,6.18,6.18,0,0,1,0-1.49,4.041,4.041,0,0,1,.135-.588,2.007,2.007,0,0,1,.816-1.1,2.755,2.755,0,0,1,2.834,0,2.009,2.009,0,0,1,.815,1.1,4.026,4.026,0,0,1,.135.588,6.174,6.174,0,0,1,0,1.49,4.012,4.012,0,0,1-.135.587,2.006,2.006,0,0,1-.815,1.1,2.494,2.494,0,0,1-1.412.392m0-1.12a1.053,1.053,0,0,0,.635-.185,1.092,1.092,0,0,0,.381-.517,2.21,2.21,0,0,0,.09-.431c.015-.146.022-.334.022-.566a5.551,5.551,0,0,0-.022-.56,2.478,2.478,0,0,0-.09-.437,1.1,1.1,0,0,0-.377-.521,1.052,1.052,0,0,0-.635-.185,1.016,1.016,0,0,0-1.023.706,2.4,2.4,0,0,0-.09.437,5.551,5.551,0,0,0-.022.56q0,.347.022.566a2.16,2.16,0,0,0,.09.431,1.016,1.016,0,0,0,1.023.706" transform="translate(-560.773 -367.169)" fill="#074045"/>
      </g>
      <g id="Group_625" data-name="Group 625" transform="translate(105.18 23.39)">
        <path id="Path_334" data-name="Path 334" d="M567.271,372.69a.1.1,0,0,1-.084-.028.1.1,0,0,1-.029-.083V367.4a.1.1,0,0,1,.029-.083.1.1,0,0,1,.084-.028H568.3a.1.1,0,0,1,.112.112v.459h.011a1.4,1.4,0,0,1,.539-.5,1.79,1.79,0,0,1,.867-.191,1.683,1.683,0,0,1,.624.118,1.5,1.5,0,0,1,.511.33.109.109,0,0,1,.022.157l-.6.751a.1.1,0,0,1-.157.023,1.823,1.823,0,0,0-.383-.191,1.244,1.244,0,0,0-.416-.068.874.874,0,0,0-.782.359,1.792,1.792,0,0,0-.241,1.007v2.925a.1.1,0,0,1-.112.112Z" transform="translate(-567.158 -367.163)" fill="#074045"/>
      </g>
      <g id="Group_626" data-name="Group 626" transform="translate(110.162 23.52)">
        <rect id="Rectangle_149" data-name="Rectangle 149" width="1.26" height="5.4" rx="0.112" fill="#074045"/>
      </g>
      <g id="Group_627" data-name="Group 627" transform="translate(112.825 21.856)">
        <path id="Path_335" data-name="Path 335" d="M576.836,372.756a1.479,1.479,0,0,1-1.164-.392,1.761,1.761,0,0,1-.342-1.187v-2.846a.059.059,0,0,0-.017-.05.06.06,0,0,0-.051-.017H574.9a.1.1,0,0,1-.112-.112V367.4a.1.1,0,0,1,.112-.112h.36a.061.061,0,0,0,.051-.017.06.06,0,0,0,.017-.05v-1.479a.1.1,0,0,1,.111-.112h1.035a.1.1,0,0,1,.112.112v1.479a.06.06,0,0,0,.067.067h.72a.1.1,0,0,1,.112.112v.751a.1.1,0,0,1-.112.112h-.721a.059.059,0,0,0-.067.067v2.8a.511.511,0,0,0,.123.4.574.574,0,0,0,.383.107h.282a.1.1,0,0,1,.112.112v.9a.1.1,0,0,1-.112.112Z" transform="translate(-574.787 -365.626)" fill="#074045"/>
      </g>
      <g id="Group_628" data-name="Group 628" transform="translate(116.492 23.513)">
        <path id="Path_336" data-name="Path 336" d="M579.269,374.709a.1.1,0,0,1-.112-.112v-.9a.1.1,0,0,1,.112-.112h.2a.765.765,0,0,0,.506-.151,1.138,1.138,0,0,0,.3-.488l.157-.459-1.979-5.091c-.022-.075.008-.112.09-.112h1.113a.135.135,0,0,1,.135.112l1.225,3.529h.023l1.169-3.529a.135.135,0,0,1,.135-.112h1.068c.082,0,.112.037.09.112l-2.069,5.624a5.711,5.711,0,0,1-.36.8,2.1,2.1,0,0,1-.394.516,1.287,1.287,0,0,1-.472.28,1.936,1.936,0,0,1-.6.084Z" transform="translate(-578.447 -367.286)" fill="#074045"/>
      </g>
      <g id="Group_629" data-name="Group 629" transform="translate(125.388 23.397)">
        <path id="Path_337" data-name="Path 337" d="M589.742,372.815a2.512,2.512,0,0,1-1.422-.392,2,2,0,0,1-.816-1.1,4,4,0,0,1-.135-.587,6.168,6.168,0,0,1,0-1.49,4,4,0,0,1,.135-.588,2.006,2.006,0,0,1,.816-1.1,2.755,2.755,0,0,1,2.834,0,2.009,2.009,0,0,1,.815,1.1,3.886,3.886,0,0,1,.134.588,6.181,6.181,0,0,1,0,1.49,3.893,3.893,0,0,1-.134.587,2.005,2.005,0,0,1-.815,1.1,2.494,2.494,0,0,1-1.412.392m0-1.12a1.051,1.051,0,0,0,.635-.185,1.091,1.091,0,0,0,.377-.521,2.2,2.2,0,0,0,.09-.431,5.438,5.438,0,0,0,.022-.566,5.514,5.514,0,0,0-.022-.56,2.474,2.474,0,0,0-.09-.437,1.1,1.1,0,0,0-.377-.521,1.051,1.051,0,0,0-.635-.185,1.016,1.016,0,0,0-1.023.706,2.387,2.387,0,0,0-.09.437,5.527,5.527,0,0,0-.022.56c0,.231.007.42.022.566a2.146,2.146,0,0,0,.09.431,1.016,1.016,0,0,0,1.023.706" transform="translate(-587.324 -367.169)" fill="#074045"/>
      </g>
      <g id="Group_630" data-name="Group 630" transform="translate(131.414 21.292)">
        <path id="Path_338" data-name="Path 338" d="M593.991,372.687a.1.1,0,0,1-.112-.112v-4.247a.06.06,0,0,0-.017-.05.061.061,0,0,0-.051-.017h-.36a.1.1,0,0,1-.112-.112V367.4a.1.1,0,0,1,.112-.112h.36a.06.06,0,0,0,.068-.068v-.347a1.813,1.813,0,0,1,.455-1.378,1.9,1.9,0,0,1,1.344-.425h.5a.1.1,0,0,1,.084.028.1.1,0,0,1,.029.083v.9a.1.1,0,0,1-.028.084.1.1,0,0,1-.084.029h-.349a1.75,1.75,0,0,0-.349.028.385.385,0,0,0-.208.106.44.44,0,0,0-.1.2,1.555,1.555,0,0,0-.027.324v.369a.06.06,0,0,0,.067.068h.967a.1.1,0,0,1,.084.028.1.1,0,0,1,.029.083v.751a.1.1,0,0,1-.112.112h-.97a.059.059,0,0,0-.05.017.059.059,0,0,0-.017.05v4.247a.1.1,0,0,1-.029.084.1.1,0,0,1-.084.028Z" transform="translate(-593.338 -365.061)" fill="#074045"/>
      </g>
      <g id="Group_631" data-name="Group 631" transform="translate(138.599 21.301)">
        <path id="Path_339" data-name="Path 339" d="M600.51,365.183a.1.1,0,0,1,.112-.112h4.788a.1.1,0,0,1,.084.028.1.1,0,0,1,.029.083v.963a.1.1,0,0,1-.112.112H601.9a.06.06,0,0,0-.051.017.059.059,0,0,0-.017.051v1.938a.06.06,0,0,0,.017.05.061.061,0,0,0,.051.017h2.957a.1.1,0,0,1,.112.113v.962a.1.1,0,0,1-.112.113H601.9a.06.06,0,0,0-.051.017.06.06,0,0,0-.017.05v2.995a.1.1,0,0,1-.112.112h-1.1a.1.1,0,0,1-.112-.112Z" transform="translate(-600.507 -365.07)" fill="#074045"/>
      </g>
      <g id="Group_632" data-name="Group 632" transform="translate(144.415 23.396)">
        <path id="Path_340" data-name="Path 340" d="M608.73,372.815a2.512,2.512,0,0,1-1.423-.392,2,2,0,0,1-.815-1.1,4.036,4.036,0,0,1-.135-.587,6.183,6.183,0,0,1,0-1.49,4.056,4.056,0,0,1,.135-.588,2,2,0,0,1,.815-1.1,2.755,2.755,0,0,1,2.834,0,2.007,2.007,0,0,1,.816,1.1,3.9,3.9,0,0,1,.134.588,6.18,6.18,0,0,1,0,1.49,3.891,3.891,0,0,1-.134.587,2,2,0,0,1-.816,1.1,2.491,2.491,0,0,1-1.411.392m0-1.12a1.053,1.053,0,0,0,.635-.185,1.1,1.1,0,0,0,.377-.521,2.2,2.2,0,0,0,.09-.431c.014-.146.022-.334.022-.566s-.008-.418-.022-.56a2.469,2.469,0,0,0-.09-.437,1.1,1.1,0,0,0-.377-.521,1.051,1.051,0,0,0-.635-.185A1.016,1.016,0,0,0,607.7,369a2.4,2.4,0,0,0-.09.437,5.551,5.551,0,0,0-.023.56,5.64,5.64,0,0,0,.023.566,2.137,2.137,0,0,0,.09.431,1.016,1.016,0,0,0,1.023.706" transform="translate(-606.312 -367.169)" fill="#074045"/>
      </g>
      <g id="Group_633" data-name="Group 633" transform="translate(150.813 23.391)">
        <path id="Path_341" data-name="Path 341" d="M612.809,372.69a.1.1,0,0,1-.084-.028.1.1,0,0,1-.029-.083V367.4a.1.1,0,0,1,.029-.083.1.1,0,0,1,.084-.028h1.035a.1.1,0,0,1,.084.028.1.1,0,0,1,.029.083v.459h.011a1.4,1.4,0,0,1,.54-.5,1.788,1.788,0,0,1,.866-.191,1.681,1.681,0,0,1,.624.118,1.5,1.5,0,0,1,.511.33.111.111,0,0,1,.023.157l-.6.751a.1.1,0,0,1-.157.023,1.841,1.841,0,0,0-.382-.191,1.255,1.255,0,0,0-.417-.068.874.874,0,0,0-.782.359,1.793,1.793,0,0,0-.242,1.007v2.925a.1.1,0,0,1-.028.083.1.1,0,0,1-.084.028Z" transform="translate(-612.696 -367.163)" fill="#074045"/>
      </g>
      <g id="Group_634" data-name="Group 634" transform="translate(155.502 23.397)">
        <path id="Path_342" data-name="Path 342" d="M619.828,372.816a2.512,2.512,0,0,1-1.451-.4,2.035,2.035,0,0,1-.809-1.1,3.357,3.357,0,0,1-.141-.577,4.751,4.751,0,0,1-.051-.745,5.341,5.341,0,0,1,.046-.751,3,3,0,0,1,.133-.582,2.018,2.018,0,0,1,.817-1.1,2.721,2.721,0,0,1,2.822.006,2.051,2.051,0,0,1,.8,1.1c.03.1.057.194.08.29a2.966,2.966,0,0,1,.055.336c.015.128.026.271.034.431s.011.349.011.565c0,.075-.04.113-.123.113h-3.34a.06.06,0,0,0-.068.067.957.957,0,0,0,.023.224,1.275,1.275,0,0,0,.057.191,1.155,1.155,0,0,0,1.214.819,1.772,1.772,0,0,0,.765-.146,1.611,1.611,0,0,0,.506-.37c.06-.06.116-.067.168-.022l.664.582a.1.1,0,0,1,.011.158,2.651,2.651,0,0,1-.912.661,3.128,3.128,0,0,1-1.315.258m1.08-3.428a1.44,1.44,0,0,0-.068-.459.969.969,0,0,0-.394-.51,1.184,1.184,0,0,0-.664-.185,1.206,1.206,0,0,0-.674.185.967.967,0,0,0-.393.51,1.435,1.435,0,0,0-.068.459.06.06,0,0,0,.068.067h2.125a.06.06,0,0,0,.068-.067" transform="translate(-617.376 -367.17)" fill="#074045"/>
      </g>
      <g id="Group_635" data-name="Group 635" transform="translate(161.88 23.52)">
        <rect id="Rectangle_150" data-name="Rectangle 150" width="1.26" height="5.4" rx="0.112" fill="#074045"/>
      </g>
      <g id="Group_636" data-name="Group 636" transform="translate(164.69 23.397)">
        <path id="Path_343" data-name="Path 343" d="M628.716,374.832a2.935,2.935,0,0,1-1.113-.218,2.161,2.161,0,0,1-.855-.589.1.1,0,0,1,.012-.156l.663-.662a.11.11,0,0,1,.168,0,1.669,1.669,0,0,0,1.18.5,1.181,1.181,0,0,0,.922-.324,1.394,1.394,0,0,0,.293-.963v-.5h-.011a1.315,1.315,0,0,1-.534.459,1.987,1.987,0,0,1-.872.168,1.941,1.941,0,0,1-1.158-.336,1.877,1.877,0,0,1-.686-.974,3.546,3.546,0,0,1-.141-.622,6.129,6.129,0,0,1-.039-.756,6.027,6.027,0,0,1,.039-.751,3.57,3.57,0,0,1,.141-.616,1.886,1.886,0,0,1,.686-.986,2.212,2.212,0,0,1,2.029-.163,1.365,1.365,0,0,1,.534.465h.011v-.4a.1.1,0,0,1,.113-.112h1.034a.1.1,0,0,1,.084.029.1.1,0,0,1,.028.083v4.951a2.255,2.255,0,0,1-2.53,2.476m.18-3.394a1,1,0,0,0,.624-.179,1.061,1.061,0,0,0,.343-.515,1.962,1.962,0,0,0,.1-.4,3.62,3.62,0,0,0,.028-.487,2.751,2.751,0,0,0-.123-.885,1.06,1.06,0,0,0-.343-.5,1,1,0,0,0-.624-.179.918.918,0,0,0-.956.683,2.723,2.723,0,0,0-.124.885,3.8,3.8,0,0,0,.028.487,2.023,2.023,0,0,0,.1.4.918.918,0,0,0,.956.7" transform="translate(-626.545 -367.17)" fill="#074045"/>
      </g>
      <g id="Group_637" data-name="Group 637" transform="translate(171.257 23.391)">
        <path id="Path_344" data-name="Path 344" d="M636.529,372.69a.1.1,0,0,1-.084-.028.1.1,0,0,1-.029-.083v-3.115a1.327,1.327,0,0,0-.259-.851.919.919,0,0,0-.765-.325.937.937,0,0,0-.765.325,1.287,1.287,0,0,0-.271.852v3.115a.1.1,0,0,1-.029.083.1.1,0,0,1-.084.028h-1.035a.1.1,0,0,1-.112-.112V367.4a.1.1,0,0,1,.112-.112h1.035a.1.1,0,0,1,.084.028.1.1,0,0,1,.028.083v.392h.011a1.47,1.47,0,0,1,.534-.443,2.177,2.177,0,0,1,1.677-.033,1.752,1.752,0,0,1,.59.42,1.826,1.826,0,0,1,.377.633,2.375,2.375,0,0,1,.129.8v3.406a.1.1,0,0,1-.112.112Z" transform="translate(-633.098 -367.164)" fill="#074045"/>
      </g>
      <g id="Group_638" data-name="Group 638" transform="translate(179.823 21.299)">
        <path id="Path_345" data-name="Path 345" d="M643.945,372.687a.1.1,0,0,1-.112-.112v-6.252a.059.059,0,0,0-.017-.05.06.06,0,0,0-.051-.017h-2a.1.1,0,0,1-.113-.112v-.963a.1.1,0,0,1,.113-.112h5.465a.1.1,0,0,1,.084.028.1.1,0,0,1,.029.083v.963a.1.1,0,0,1-.112.112h-2a.06.06,0,0,0-.051.017.059.059,0,0,0-.017.05v6.252a.1.1,0,0,1-.029.083.1.1,0,0,1-.084.028Z" transform="translate(-641.646 -365.068)" fill="#074045"/>
      </g>
      <g id="Group_639" data-name="Group 639" transform="translate(186.81 23.39)">
        <path id="Path_346" data-name="Path 346" d="M648.731,372.69a.1.1,0,0,1-.084-.029.1.1,0,0,1-.029-.083V367.4a.1.1,0,0,1,.112-.112h1.035a.1.1,0,0,1,.112.112v.459h.011a1.4,1.4,0,0,1,.539-.5,1.791,1.791,0,0,1,.867-.191,1.682,1.682,0,0,1,.624.118,1.5,1.5,0,0,1,.511.33.109.109,0,0,1,.022.157l-.6.751a.1.1,0,0,1-.157.023,1.827,1.827,0,0,0-.383-.191,1.244,1.244,0,0,0-.416-.068.874.874,0,0,0-.782.359,1.793,1.793,0,0,0-.241,1.007v2.925a.1.1,0,0,1-.112.112Z" transform="translate(-648.618 -367.163)" fill="#074045"/>
      </g>
      <g id="Group_640" data-name="Group 640" transform="translate(191.34 23.394)">
        <path id="Path_347" data-name="Path 347" d="M656.616,372.69a.1.1,0,0,1-.084-.028.1.1,0,0,1-.028-.083v-.387h-.011a1.344,1.344,0,0,1-.573.453,2.313,2.313,0,0,1-.956.174,2.423,2.423,0,0,1-.7-.1,1.662,1.662,0,0,1-.578-.3,1.441,1.441,0,0,1-.394-.51,1.693,1.693,0,0,1-.146-.733,1.5,1.5,0,0,1,.579-1.3,2.687,2.687,0,0,1,1.591-.415h1.1a.059.059,0,0,0,.05-.017.058.058,0,0,0,.017-.05v-.258a.835.835,0,0,0-.258-.683,1.531,1.531,0,0,0-.945-.214,2.24,2.24,0,0,0-.754.107,1.636,1.636,0,0,0-.483.264c-.067.052-.12.045-.158-.023l-.416-.739a.1.1,0,0,1,.023-.146,2.719,2.719,0,0,1,.787-.381,3.822,3.822,0,0,1,1.136-.146,2.663,2.663,0,0,1,1.749.448,1.813,1.813,0,0,1,.512,1.433v3.53a.1.1,0,0,1-.029.084.1.1,0,0,1-.084.028Zm-1.338-.9a1.508,1.508,0,0,0,.895-.225.8.8,0,0,0,.309-.7v-.414a.06.06,0,0,0-.067-.068h-.9a1.746,1.746,0,0,0-.889.174.6.6,0,0,0-.281.555q0,.671.933.672" transform="translate(-653.14 -367.166)" fill="#074045"/>
      </g>
      <g id="Group_641" data-name="Group 641" transform="translate(197.398 21.304)">
        <path id="Path_348" data-name="Path 348" d="M662.823,372.687a.1.1,0,0,1-.112-.112v-.4H662.7a1.427,1.427,0,0,1-.54.46,1.976,1.976,0,0,1-.9.179,2.067,2.067,0,0,1-1.18-.324,1.805,1.805,0,0,1-.7-.975,3.765,3.765,0,0,1-.146-.644,8.612,8.612,0,0,1,0-1.759,3.8,3.8,0,0,1,.146-.644,1.8,1.8,0,0,1,.7-.974,2.068,2.068,0,0,1,1.18-.325,1.962,1.962,0,0,1,.9.18,1.434,1.434,0,0,1,.54.459h.011v-2.621a.1.1,0,0,1,.112-.112h1.035a.1.1,0,0,1,.112.112v7.394a.1.1,0,0,1-.112.112Zm-1.237-1a.958.958,0,0,0,1.012-.7,2.677,2.677,0,0,0,.084-.414,6.289,6.289,0,0,0,0-1.187,2.719,2.719,0,0,0-.084-.415,1.077,1.077,0,0,0-2.013,0,2.6,2.6,0,0,0-.084.415,6.279,6.279,0,0,0,0,1.187,2.57,2.57,0,0,0,.084.414.95.95,0,0,0,1,.7" transform="translate(-659.184 -365.073)" fill="#074045"/>
      </g>
      <g id="Group_642" data-name="Group 642" transform="translate(203.757 23.397)">
        <path id="Path_349" data-name="Path 349" d="M667.982,372.816a2.519,2.519,0,0,1-1.451-.4,2.042,2.042,0,0,1-.81-1.1,3.361,3.361,0,0,1-.14-.577,4.786,4.786,0,0,1-.05-.745,5.542,5.542,0,0,1,.044-.751,2.994,2.994,0,0,1,.135-.582,2.007,2.007,0,0,1,.816-1.1,2.722,2.722,0,0,1,2.822.006,2.053,2.053,0,0,1,.8,1.1c.031.1.057.194.079.29s.041.209.057.336.026.271.033.431.011.349.011.565c0,.075-.041.113-.123.113h-3.34a.059.059,0,0,0-.05.017.059.059,0,0,0-.017.05,1.023,1.023,0,0,0,.022.224,1.3,1.3,0,0,0,.056.191,1.157,1.157,0,0,0,1.215.819,1.769,1.769,0,0,0,.765-.146,1.621,1.621,0,0,0,.506-.37c.06-.06.116-.067.168-.022l.663.582a.1.1,0,0,1,.012.158,2.645,2.645,0,0,1-.911.661,3.136,3.136,0,0,1-1.316.258m1.079-3.428a1.439,1.439,0,0,0-.067-.459.975.975,0,0,0-.394-.51,1.184,1.184,0,0,0-.663-.185,1.206,1.206,0,0,0-.674.185.97.97,0,0,0-.394.51,1.436,1.436,0,0,0-.067.459.059.059,0,0,0,.067.067h2.125a.059.059,0,0,0,.067-.067" transform="translate(-665.531 -367.17)" fill="#074045"/>
      </g>
      <g id="Group_643" data-name="Group 643" transform="translate(6.143 0.965)">
        <path id="Path_350" data-name="Path 350" d="M470.662,345.733A1.172,1.172,0,1,1,469.5,344.7a1.106,1.106,0,0,1,1.163,1.037" transform="translate(-468.327 -344.698)" fill="#074045"/>
      </g>
      <g id="Group_644" data-name="Group 644" transform="translate(64.106 0.961)">
        <path id="Path_351" data-name="Path 351" d="M528.5,345.733a1.172,1.172,0,1,1-1.164-1.037,1.106,1.106,0,0,1,1.164,1.037" transform="translate(-526.169 -344.694)" fill="#074045"/>
      </g>
      <g id="Group_645" data-name="Group 645" transform="translate(67.167 0.961)">
        <path id="Path_352" data-name="Path 352" d="M531.56,345.733A1.172,1.172,0,1,1,530.4,344.7a1.106,1.106,0,0,1,1.164,1.037" transform="translate(-529.224 -344.694)" fill="#074045"/>
      </g>
      <g id="Group_646" data-name="Group 646" transform="translate(116.023 0.961)">
        <path id="Path_353" data-name="Path 353" d="M580.315,345.733a1.172,1.172,0,1,1-1.164-1.037,1.106,1.106,0,0,1,1.164,1.037" transform="translate(-577.979 -344.694)" fill="#074045"/>
      </g>
      <g id="Group_647" data-name="Group 647" transform="translate(119.048 0.961)">
        <path id="Path_354" data-name="Path 354" d="M583.333,345.733a1.172,1.172,0,1,1-1.164-1.037,1.106,1.106,0,0,1,1.164,1.037" transform="translate(-580.997 -344.694)" fill="#074045"/>
      </g>
      <g id="Group_648" data-name="Group 648" transform="translate(167.401 0.962)">
        <path id="Path_355" data-name="Path 355" d="M631.584,345.733a1.171,1.171,0,1,1-1.163-1.037,1.106,1.106,0,0,1,1.163,1.037" transform="translate(-629.25 -344.695)" fill="#074045"/>
      </g>
      <g id="Group_649" data-name="Group 649" transform="translate(170.46 0.961)">
        <path id="Path_356" data-name="Path 356" d="M634.638,345.733a1.172,1.172,0,1,1-1.164-1.037,1.106,1.106,0,0,1,1.164,1.037" transform="translate(-632.302 -344.694)" fill="#074045"/>
      </g>
      <g id="Group_650" data-name="Group 650" transform="translate(40.407 1.515)">
        <path id="Path_357" data-name="Path 357" d="M504.856,346.288a1.172,1.172,0,1,1-1.164-1.037,1.106,1.106,0,0,1,1.164,1.037" transform="translate(-502.52 -345.249)" fill="#074045"/>
      </g>
      <g id="Group_651" data-name="Group 651" transform="translate(91.675 1.516)">
        <path id="Path_358" data-name="Path 358" d="M556.017,346.288a1.172,1.172,0,1,1-1.164-1.037,1.106,1.106,0,0,1,1.163,1.037" transform="translate(-553.681 -345.25)" fill="#074045"/>
      </g>
      <g id="Group_652" data-name="Group 652" transform="translate(94.699 1.516)">
        <path id="Path_359" data-name="Path 359" d="M559.035,346.288a1.172,1.172,0,1,1-1.163-1.037,1.106,1.106,0,0,1,1.163,1.037" transform="translate(-556.699 -345.25)" fill="#074045"/>
      </g>
      <g id="Group_653" data-name="Group 653" transform="translate(11.075 14.216)">
        <path id="Path_360" data-name="Path 360" d="M475.583,359.011a1.171,1.171,0,1,1-1.163-1.037,1.106,1.106,0,0,1,1.163,1.037" transform="translate(-473.249 -357.973)" fill="#074045"/>
      </g>
      <g id="Group_654" data-name="Group 654" transform="translate(14.11 14.216)">
        <path id="Path_361" data-name="Path 361" d="M478.613,359.011a1.172,1.172,0,1,1-1.165-1.037,1.107,1.107,0,0,1,1.165,1.037" transform="translate(-476.277 -357.972)" fill="#074045"/>
      </g>
      <g id="Group_655" data-name="Group 655" transform="translate(21.059 14.216)">
        <path id="Path_362" data-name="Path 362" d="M485.546,359.011a1.171,1.171,0,1,1-1.163-1.037,1.106,1.106,0,0,1,1.163,1.037" transform="translate(-483.212 -357.973)" fill="#074045"/>
      </g>
      <g id="Group_656" data-name="Group 656" transform="translate(83.307 14.216)">
        <path id="Path_363" data-name="Path 363" d="M547.666,359.011a1.172,1.172,0,1,1-1.163-1.037,1.106,1.106,0,0,1,1.163,1.037" transform="translate(-545.33 -357.972)" fill="#074045"/>
      </g>
      <g id="Group_657" data-name="Group 657" transform="translate(180.226 14.216)">
        <path id="Path_364" data-name="Path 364" d="M644.384,359.011a1.172,1.172,0,1,1-1.163-1.037,1.106,1.106,0,0,1,1.163,1.037" transform="translate(-642.048 -357.972)" fill="#074045"/>
      </g>
      <g id="Group_658" data-name="Group 658" transform="translate(183.214 14.216)">
        <path id="Path_365" data-name="Path 365" d="M647.366,359.011a1.172,1.172,0,1,1-1.163-1.037,1.106,1.106,0,0,1,1.163,1.037" transform="translate(-645.03 -357.972)" fill="#074045"/>
      </g>
      <g id="Group_659" data-name="Group 659" transform="translate(3.106 0.962)">
        <path id="Path_366" data-name="Path 366" d="M467.63,345.733a1.171,1.171,0,1,1-1.163-1.037,1.106,1.106,0,0,1,1.163,1.037" transform="translate(-465.296 -344.695)" fill="#074045"/>
      </g>
      <g id="Group_660" data-name="Group 660" transform="translate(161.89 21.294)">
        <path id="Path_367" data-name="Path 367" d="M624.985,365.678a.617.617,0,1,1-.617-.615.616.616,0,0,1,.617.615" transform="translate(-623.75 -365.063)" fill="#074045"/>
      </g>
      <g id="Group_661" data-name="Group 661" transform="translate(110.171 21.294)">
        <path id="Path_368" data-name="Path 368" d="M573.373,365.678a.617.617,0,1,1-.617-.615.616.616,0,0,1,.617.615" transform="translate(-572.139 -365.063)" fill="#074045"/>
      </g>
      <g id="Group_662" data-name="Group 662" transform="translate(26.326 21.294)">
        <path id="Path_369" data-name="Path 369" d="M489.7,365.678a.617.617,0,1,1-.617-.615.616.616,0,0,1,.617.615" transform="translate(-488.468 -365.063)" fill="#074045"/>
      </g>
    </g>
  </g>
</svg>
