<svg id="pin" xmlns="http://www.w3.org/2000/svg" width="12" height="16" viewBox="0 0 12 16">
  <path id="Path_125546" data-name="Path 125546" d="M287.9,207.2a6.37,6.37,0,0,0-2.3.425,6.024,6.024,0,0,0-1.947,1.214,5.6,5.6,0,0,0-1.3,1.818,5.269,5.269,0,0,0-.455,2.143c0,4.2,6,10.4,6,10.4s6-6.2,6-10.4a5.271,5.271,0,0,0-.456-2.143,5.584,5.584,0,0,0-1.3-1.818,6.033,6.033,0,0,0-1.947-1.214A6.37,6.37,0,0,0,287.9,207.2Zm0,7.6a2.255,2.255,0,0,1-1.191-.337,2.032,2.032,0,0,1-.789-.9,1.882,1.882,0,0,1-.122-1.155,1.962,1.962,0,0,1,.587-1.024,2.191,2.191,0,0,1,1.1-.547,2.284,2.284,0,0,1,1.238.113,2.125,2.125,0,0,1,.962.736,1.912,1.912,0,0,1,.361,1.111,1.936,1.936,0,0,1-.628,1.414A2.222,2.222,0,0,1,287.9,214.8Z" transform="translate(-281.901 -207.204)" fill="#a0c2bf"/>
</svg>
