<svg id="serveyIcon" xmlns="http://www.w3.org/2000/svg" width="45" height="44.501" viewBox="0 0 45 44.501">
  <g id="Group_24744" data-name="Group 24744" transform="translate(4.889)">
    <g id="Group_24753" data-name="Group 24753" transform="translate(31.089)">
      <g id="Group_23113" data-name="Group 23113" transform="translate(0 5.327)">
        <g id="Group_23112" data-name="Group 23112">
          <path id="Path_12517" data-name="Path 12517" d="M392.267,71.056H388.8a1.657,1.657,0,0,0-1.655,1.656v1.975a1.109,1.109,0,0,0,1.108,1.108h4.6a1.063,1.063,0,0,0,1.062-1.062V72.712A1.658,1.658,0,0,0,392.267,71.056Zm.531,3.614h-4.524V72.712a.532.532,0,0,1,.531-.531h3.462a.532.532,0,0,1,.531.531V74.67Z" transform="translate(-387.15 -71.056)" fill="#cca079"/>
        </g>
      </g>
      <g id="Group_23115" data-name="Group 23115" transform="translate(0.996)">
        <g id="Group_23114" data-name="Group 23114">
          <path id="Path_12518" data-name="Path 12518" d="M402.821,0a2.391,2.391,0,1,0,2.391,2.391A2.391,2.391,0,0,0,402.821,0Zm0,3.657a1.266,1.266,0,1,1,1.266-1.266,1.266,1.266,0,0,1-1.266,1.266Z" transform="translate(-400.43)" fill="#cca079"/>
        </g>
      </g>
    </g>
    <g id="Group_24752" data-name="Group 24752" transform="translate(20.074 5.625)">
      <g id="Group_23117" data-name="Group 23117" transform="translate(0 5.067)">
        <g id="Group_23116" data-name="Group 23116">
          <path id="Path_12519" data-name="Path 12519" d="M274.438,160.687h-3.292a1.576,1.576,0,0,0-1.574,1.574v1.878a1.055,1.055,0,0,0,1.054,1.054H275a1.011,1.011,0,0,0,1.01-1.01v-1.922a1.576,1.576,0,0,0-1.572-1.574Zm.5,3.437h-4.3v-1.862a.5.5,0,0,1,.5-.5h3.292a.5.5,0,0,1,.5.5v1.862Z" transform="translate(-269.571 -160.687)" fill="#cca079"/>
        </g>
      </g>
      <g id="Group_23119" data-name="Group 23119" transform="translate(0.947)">
        <g id="Group_23118" data-name="Group 23118">
          <path id="Path_12520" data-name="Path 12520" d="M285.126,89.629A2.274,2.274,0,1,0,287.4,91.9,2.274,2.274,0,0,0,285.126,89.629Zm0,3.478a1.2,1.2,0,1,1,1.2-1.2,1.2,1.2,0,0,1-1.2,1.2Z" transform="translate(-282.852 -89.629)" fill="#cca079"/>
        </g>
      </g>
    </g>
    <g id="Group_24754" data-name="Group 24754" transform="translate(10.176 16.594)">
      <path id="Path_12521" data-name="Path 12521" d="M156.436,301.542h-3.005a1.439,1.439,0,0,0-1.437,1.437v1.714a.963.963,0,0,0,.962.962h4a.923.923,0,0,0,.922-.922v-1.754a1.439,1.439,0,0,0-1.442-1.437Zm.461,3.137H152.97v-1.7a.461.461,0,0,1,.461-.461h3.005a.461.461,0,0,1,.461.461Z" transform="translate(-151.994 -296.917)" fill="#cca079"/>
      <g id="Group_23123" data-name="Group 23123" transform="translate(0.864)">
        <g id="Group_23122" data-name="Group 23122">
          <path id="Path_12522" data-name="Path 12522" d="M167.349,230.485a2.075,2.075,0,1,0,2.075,2.075,2.075,2.075,0,0,0-2.075-2.075Zm0,3.175a1.1,1.1,0,1,1,1.1-1.1,1.1,1.1,0,0,1-1.1,1.1Z" transform="translate(-165.274 -230.485)" fill="#cca079"/>
        </g>
      </g>
    </g>
    <g id="Group_24755" data-name="Group 24755" transform="translate(0 14.309)">
      <g id="Group_23125" data-name="Group 23125" transform="translate(0 4.843)">
        <g id="Group_23124" data-name="Group 23124">
          <path id="Path_12523" data-name="Path 12523" d="M39.067,254.424H35.921a1.506,1.506,0,0,0-1.5,1.5v1.795a1.008,1.008,0,0,0,1.007,1.007h4.184a.966.966,0,0,0,.965-.965v-1.837a1.507,1.507,0,0,0-1.51-1.5Zm.483,3.285H35.438v-1.78a.483.483,0,0,1,.483-.483h3.147a.483.483,0,0,1,.483.483v1.78Z" transform="translate(-34.416 -254.424)" fill="#cca079"/>
        </g>
      </g>
      <g id="Group_23127" data-name="Group 23127" transform="translate(0.905)">
        <g id="Group_23126" data-name="Group 23126">
          <path id="Path_12524" data-name="Path 12524" d="M49.87,183.368a2.173,2.173,0,1,0,2.173,2.173A2.173,2.173,0,0,0,49.87,183.368Zm0,3.324a1.151,1.151,0,1,1,1.151-1.151,1.151,1.151,0,0,1-1.151,1.151Z" transform="translate(-47.697 -183.368)" fill="#cca079"/>
        </g>
      </g>
    </g>
  </g>
  <g id="Group_24751" data-name="Group 24751" transform="translate(0 13.501)">
    <g id="Rectangle_11631" data-name="Rectangle 11631" transform="translate(36)" fill="none" stroke="#007066" stroke-width="1.5">
      <rect width="7" height="27" rx="3" stroke="none"/>
      <rect x="0.75" y="0.75" width="5.5" height="25.5" rx="2.25" fill="none"/>
    </g>
    <g id="Rectangle_11632" data-name="Rectangle 11632" transform="translate(25 5)" fill="none" stroke="#007066" stroke-width="1.5">
      <rect width="7" height="22" rx="3" stroke="none"/>
      <rect x="0.75" y="0.75" width="5.5" height="20.5" rx="2.25" fill="none"/>
    </g>
    <g id="Rectangle_11633" data-name="Rectangle 11633" transform="translate(14 15)" fill="none" stroke="#007066" stroke-width="1.5">
      <rect width="7" height="12" rx="3" stroke="none"/>
      <rect x="0.75" y="0.75" width="5.5" height="10.5" rx="2.25" fill="none"/>
    </g>
    <g id="Rectangle_11634" data-name="Rectangle 11634" transform="translate(4 12)" fill="none" stroke="#007066" stroke-width="1.5">
      <rect width="7" height="15" rx="3" stroke="none"/>
      <rect x="0.75" y="0.75" width="5.5" height="13.5" rx="2.25" fill="none"/>
    </g>
    <rect id="Rectangle_11635" data-name="Rectangle 11635" width="45" height="2" rx="1" transform="translate(0 29)" fill="#007066"/>
  </g>
</svg>
