<?xml version="1.0" encoding="utf-8"?>
<!-- Generator: Adobe Illustrator 27.9.6, SVG Export Plug-In . SVG Version: 9.03 Build 54986)  -->
<svg version="1.1" id="Layer_1" xmlns="http://www.w3.org/2000/svg" xmlns:xlink="http://www.w3.org/1999/xlink" x="0px" y="0px"
	 viewBox="0 0 599 232" style="enable-background:new 0 0 599 232;" xml:space="preserve">
<style type="text/css">
	.st0{fill:none;stroke:#007167;stroke-width:1.029;stroke-miterlimit:10;}
	.st1{clip-path:url(#SVGID_00000104690889684304139010000010236033268396060591_);}
	.st2{clip-path:url(#SVGID_00000039112291568064395460000002827332331778742964_);fill:#025157;}
	
		.st3{clip-path:url(#SVGID_00000039112291568064395460000002827332331778742964_);fill:none;stroke:#CBA076;stroke-width:2.3512;stroke-linecap:round;stroke-linejoin:round;stroke-miterlimit:10;}
	
		.st4{clip-path:url(#SVGID_00000039112291568064395460000002827332331778742964_);fill:none;stroke:#007367;stroke-width:3.525;stroke-linecap:round;stroke-linejoin:round;stroke-miterlimit:10;}
	
		.st5{clip-path:url(#SVGID_00000039112291568064395460000002827332331778742964_);fill:none;stroke:#BABABB;stroke-width:2.3512;stroke-linecap:round;stroke-linejoin:round;stroke-miterlimit:10;}
	
		.st6{clip-path:url(#SVGID_00000039112291568064395460000002827332331778742964_);fill:none;stroke:#BABABB;stroke-width:2.3495;stroke-linecap:round;stroke-linejoin:round;stroke-miterlimit:10;}
	.st7{fill:#CDA176;}
	.st8{clip-path:url(#SVGID_00000031922911896987800580000009480004691565114768_);}
	.st9{clip-path:url(#SVGID_00000139975448200314864950000017888280056209728945_);fill:#025157;}
	
		.st10{clip-path:url(#SVGID_00000139975448200314864950000017888280056209728945_);fill:none;stroke:#CBA076;stroke-width:2.3512;stroke-linecap:round;stroke-linejoin:round;stroke-miterlimit:10;}
	
		.st11{clip-path:url(#SVGID_00000139975448200314864950000017888280056209728945_);fill:none;stroke:#007367;stroke-width:3.525;stroke-linecap:round;stroke-linejoin:round;stroke-miterlimit:10;}
	
		.st12{clip-path:url(#SVGID_00000139975448200314864950000017888280056209728945_);fill:none;stroke:#BABABB;stroke-width:2.3512;stroke-linecap:round;stroke-linejoin:round;stroke-miterlimit:10;}
	
		.st13{clip-path:url(#SVGID_00000139975448200314864950000017888280056209728945_);fill:none;stroke:#BABABB;stroke-width:2.3495;stroke-linecap:round;stroke-linejoin:round;stroke-miterlimit:10;}
	.st14{clip-path:url(#SVGID_00000113325386475295022790000004435670916504884650_);}
	.st15{clip-path:url(#SVGID_00000055708366206628344080000012853929188671699869_);fill:#025157;}
	
		.st16{clip-path:url(#SVGID_00000055708366206628344080000012853929188671699869_);fill:none;stroke:#CBA076;stroke-width:2.3512;stroke-linecap:round;stroke-linejoin:round;stroke-miterlimit:10;}
	
		.st17{clip-path:url(#SVGID_00000055708366206628344080000012853929188671699869_);fill:none;stroke:#007367;stroke-width:3.525;stroke-linecap:round;stroke-linejoin:round;stroke-miterlimit:10;}
	
		.st18{clip-path:url(#SVGID_00000055708366206628344080000012853929188671699869_);fill:none;stroke:#BABABB;stroke-width:2.3512;stroke-linecap:round;stroke-linejoin:round;stroke-miterlimit:10;}
	
		.st19{clip-path:url(#SVGID_00000055708366206628344080000012853929188671699869_);fill:none;stroke:#BABABB;stroke-width:2.3495;stroke-linecap:round;stroke-linejoin:round;stroke-miterlimit:10;}
	.st20{clip-path:url(#SVGID_00000018195800286120084900000009703878236918534327_);}
	.st21{clip-path:url(#SVGID_00000165223521268823481440000000397665867286802602_);fill:#025157;}
	
		.st22{clip-path:url(#SVGID_00000165223521268823481440000000397665867286802602_);fill:none;stroke:#CBA076;stroke-width:2.3512;stroke-linecap:round;stroke-linejoin:round;stroke-miterlimit:10;}
	
		.st23{clip-path:url(#SVGID_00000165223521268823481440000000397665867286802602_);fill:none;stroke:#007367;stroke-width:3.525;stroke-linecap:round;stroke-linejoin:round;stroke-miterlimit:10;}
	
		.st24{clip-path:url(#SVGID_00000165223521268823481440000000397665867286802602_);fill:none;stroke:#BABABB;stroke-width:2.3512;stroke-linecap:round;stroke-linejoin:round;stroke-miterlimit:10;}
	
		.st25{clip-path:url(#SVGID_00000165223521268823481440000000397665867286802602_);fill:none;stroke:#BABABB;stroke-width:2.3495;stroke-linecap:round;stroke-linejoin:round;stroke-miterlimit:10;}
	.st26{clip-path:url(#SVGID_00000109027351725620369640000008466618321578707129_);}
	.st27{clip-path:url(#SVGID_00000160878770055515300330000008600789044356701096_);fill:#025157;}
	
		.st28{clip-path:url(#SVGID_00000160878770055515300330000008600789044356701096_);fill:none;stroke:#CBA076;stroke-width:2.3512;stroke-linecap:round;stroke-linejoin:round;stroke-miterlimit:10;}
	
		.st29{clip-path:url(#SVGID_00000160878770055515300330000008600789044356701096_);fill:none;stroke:#007367;stroke-width:3.525;stroke-linecap:round;stroke-linejoin:round;stroke-miterlimit:10;}
	
		.st30{clip-path:url(#SVGID_00000160878770055515300330000008600789044356701096_);fill:none;stroke:#BABABB;stroke-width:2.3512;stroke-linecap:round;stroke-linejoin:round;stroke-miterlimit:10;}
	
		.st31{clip-path:url(#SVGID_00000160878770055515300330000008600789044356701096_);fill:none;stroke:#BABABB;stroke-width:2.3495;stroke-linecap:round;stroke-linejoin:round;stroke-miterlimit:10;}
	.st32{clip-path:url(#SVGID_00000163760231339229312450000009326462082134171049_);}
	.st33{clip-path:url(#SVGID_00000033336754484524594730000013906152032022566542_);fill:#025157;}
	
		.st34{clip-path:url(#SVGID_00000033336754484524594730000013906152032022566542_);fill:none;stroke:#CBA076;stroke-width:2.3512;stroke-linecap:round;stroke-linejoin:round;stroke-miterlimit:10;}
	
		.st35{clip-path:url(#SVGID_00000033336754484524594730000013906152032022566542_);fill:none;stroke:#007367;stroke-width:3.525;stroke-linecap:round;stroke-linejoin:round;stroke-miterlimit:10;}
	
		.st36{clip-path:url(#SVGID_00000033336754484524594730000013906152032022566542_);fill:none;stroke:#BABABB;stroke-width:2.3512;stroke-linecap:round;stroke-linejoin:round;stroke-miterlimit:10;}
	
		.st37{clip-path:url(#SVGID_00000033336754484524594730000013906152032022566542_);fill:none;stroke:#BABABB;stroke-width:2.3495;stroke-linecap:round;stroke-linejoin:round;stroke-miterlimit:10;}
	.st38{clip-path:url(#SVGID_00000029763141683095751450000013346788813297935761_);}
	.st39{clip-path:url(#SVGID_00000010291640167516386330000013451805357889114274_);fill:#025157;}
	
		.st40{clip-path:url(#SVGID_00000010291640167516386330000013451805357889114274_);fill:none;stroke:#CBA076;stroke-width:2.3512;stroke-linecap:round;stroke-linejoin:round;stroke-miterlimit:10;}
	
		.st41{clip-path:url(#SVGID_00000010291640167516386330000013451805357889114274_);fill:none;stroke:#007367;stroke-width:3.525;stroke-linecap:round;stroke-linejoin:round;stroke-miterlimit:10;}
	
		.st42{clip-path:url(#SVGID_00000010291640167516386330000013451805357889114274_);fill:none;stroke:#BABABB;stroke-width:2.3512;stroke-linecap:round;stroke-linejoin:round;stroke-miterlimit:10;}
	
		.st43{clip-path:url(#SVGID_00000010291640167516386330000013451805357889114274_);fill:none;stroke:#BABABB;stroke-width:2.3495;stroke-linecap:round;stroke-linejoin:round;stroke-miterlimit:10;}
	.st44{clip-path:url(#SVGID_00000139983704705879371550000009383887585819596675_);}
	.st45{clip-path:url(#SVGID_00000100370364365218948410000001514680995748288186_);fill:#025157;}
	
		.st46{clip-path:url(#SVGID_00000100370364365218948410000001514680995748288186_);fill:none;stroke:#CBA076;stroke-width:2.3512;stroke-linecap:round;stroke-linejoin:round;stroke-miterlimit:10;}
	
		.st47{clip-path:url(#SVGID_00000100370364365218948410000001514680995748288186_);fill:none;stroke:#007367;stroke-width:3.525;stroke-linecap:round;stroke-linejoin:round;stroke-miterlimit:10;}
	
		.st48{clip-path:url(#SVGID_00000100370364365218948410000001514680995748288186_);fill:none;stroke:#BABABB;stroke-width:2.3512;stroke-linecap:round;stroke-linejoin:round;stroke-miterlimit:10;}
	
		.st49{clip-path:url(#SVGID_00000100370364365218948410000001514680995748288186_);fill:none;stroke:#BABABB;stroke-width:2.3495;stroke-linecap:round;stroke-linejoin:round;stroke-miterlimit:10;}
	.st50{clip-path:url(#SVGID_00000134940396496691386800000001573510746263582389_);}
	.st51{clip-path:url(#SVGID_00000061463437477165932630000006164827926207999134_);fill:#025157;}
	
		.st52{clip-path:url(#SVGID_00000061463437477165932630000006164827926207999134_);fill:none;stroke:#CBA076;stroke-width:2.3512;stroke-linecap:round;stroke-linejoin:round;stroke-miterlimit:10;}
	
		.st53{clip-path:url(#SVGID_00000061463437477165932630000006164827926207999134_);fill:none;stroke:#007367;stroke-width:3.525;stroke-linecap:round;stroke-linejoin:round;stroke-miterlimit:10;}
	
		.st54{clip-path:url(#SVGID_00000061463437477165932630000006164827926207999134_);fill:none;stroke:#BABABB;stroke-width:2.3512;stroke-linecap:round;stroke-linejoin:round;stroke-miterlimit:10;}
	
		.st55{clip-path:url(#SVGID_00000061463437477165932630000006164827926207999134_);fill:none;stroke:#BABABB;stroke-width:2.3495;stroke-linecap:round;stroke-linejoin:round;stroke-miterlimit:10;}
	.st56{clip-path:url(#SVGID_00000151511434485278370130000005559823011799959996_);}
	.st57{clip-path:url(#SVGID_00000158734981716268931220000015706356739404903833_);fill:#025157;}
	
		.st58{clip-path:url(#SVGID_00000158734981716268931220000015706356739404903833_);fill:none;stroke:#CBA076;stroke-width:2.3512;stroke-linecap:round;stroke-linejoin:round;stroke-miterlimit:10;}
	
		.st59{clip-path:url(#SVGID_00000158734981716268931220000015706356739404903833_);fill:none;stroke:#007367;stroke-width:3.525;stroke-linecap:round;stroke-linejoin:round;stroke-miterlimit:10;}
	
		.st60{clip-path:url(#SVGID_00000158734981716268931220000015706356739404903833_);fill:none;stroke:#BABABB;stroke-width:2.3512;stroke-linecap:round;stroke-linejoin:round;stroke-miterlimit:10;}
	
		.st61{clip-path:url(#SVGID_00000158734981716268931220000015706356739404903833_);fill:none;stroke:#BABABB;stroke-width:2.3495;stroke-linecap:round;stroke-linejoin:round;stroke-miterlimit:10;}
	.st62{fill:#007167;}
	.st63{fill:#636569;}
	.st64{fill:none;}
	.st65{font-family:'DINNextLTW23-Regular';}
	.st66{font-size:16.6125px;}
	.st67{clip-path:url(#SVGID_00000177471959292078106050000016909768080046453140_);}
	.st68{clip-path:url(#SVGID_00000082334078651342474550000000237112169296223403_);fill:#025157;}
	
		.st69{clip-path:url(#SVGID_00000082334078651342474550000000237112169296223403_);fill:none;stroke:#CBA076;stroke-width:2.3512;stroke-linecap:round;stroke-linejoin:round;stroke-miterlimit:10;}
	
		.st70{clip-path:url(#SVGID_00000082334078651342474550000000237112169296223403_);fill:none;stroke:#007367;stroke-width:3.525;stroke-linecap:round;stroke-linejoin:round;stroke-miterlimit:10;}
	
		.st71{clip-path:url(#SVGID_00000082334078651342474550000000237112169296223403_);fill:none;stroke:#BABABB;stroke-width:2.3512;stroke-linecap:round;stroke-linejoin:round;stroke-miterlimit:10;}
	
		.st72{clip-path:url(#SVGID_00000082334078651342474550000000237112169296223403_);fill:none;stroke:#BABABB;stroke-width:2.3495;stroke-linecap:round;stroke-linejoin:round;stroke-miterlimit:10;}
	.st73{clip-path:url(#SVGID_00000034784438321098740360000011193026790094596536_);}
	.st74{clip-path:url(#SVGID_00000158739817131677247730000015728766139907311549_);fill:#025157;}
	
		.st75{clip-path:url(#SVGID_00000158739817131677247730000015728766139907311549_);fill:none;stroke:#CBA076;stroke-width:2.3512;stroke-linecap:round;stroke-linejoin:round;stroke-miterlimit:10;}
	
		.st76{clip-path:url(#SVGID_00000158739817131677247730000015728766139907311549_);fill:none;stroke:#007367;stroke-width:3.525;stroke-linecap:round;stroke-linejoin:round;stroke-miterlimit:10;}
	
		.st77{clip-path:url(#SVGID_00000158739817131677247730000015728766139907311549_);fill:none;stroke:#BABABB;stroke-width:2.3512;stroke-linecap:round;stroke-linejoin:round;stroke-miterlimit:10;}
	
		.st78{clip-path:url(#SVGID_00000158739817131677247730000015728766139907311549_);fill:none;stroke:#BABABB;stroke-width:2.3495;stroke-linecap:round;stroke-linejoin:round;stroke-miterlimit:10;}
	.st79{clip-path:url(#SVGID_00000001650136807864147980000002566559455380343964_);}
	.st80{clip-path:url(#SVGID_00000163050171448833178210000016599118848807669669_);fill:#025157;}
	
		.st81{clip-path:url(#SVGID_00000163050171448833178210000016599118848807669669_);fill:none;stroke:#CBA076;stroke-width:2.3512;stroke-linecap:round;stroke-linejoin:round;stroke-miterlimit:10;}
	
		.st82{clip-path:url(#SVGID_00000163050171448833178210000016599118848807669669_);fill:none;stroke:#007367;stroke-width:3.525;stroke-linecap:round;stroke-linejoin:round;stroke-miterlimit:10;}
	
		.st83{clip-path:url(#SVGID_00000163050171448833178210000016599118848807669669_);fill:none;stroke:#BABABB;stroke-width:2.3512;stroke-linecap:round;stroke-linejoin:round;stroke-miterlimit:10;}
	
		.st84{clip-path:url(#SVGID_00000163050171448833178210000016599118848807669669_);fill:none;stroke:#BABABB;stroke-width:2.3495;stroke-linecap:round;stroke-linejoin:round;stroke-miterlimit:10;}
	.st85{clip-path:url(#SVGID_00000014635680272675068060000003361194697823570055_);}
	.st86{clip-path:url(#SVGID_00000168106361588947759770000010009465084699723442_);fill:#025157;}
	
		.st87{clip-path:url(#SVGID_00000168106361588947759770000010009465084699723442_);fill:none;stroke:#CBA076;stroke-width:2.3512;stroke-linecap:round;stroke-linejoin:round;stroke-miterlimit:10;}
	
		.st88{clip-path:url(#SVGID_00000168106361588947759770000010009465084699723442_);fill:none;stroke:#007367;stroke-width:3.525;stroke-linecap:round;stroke-linejoin:round;stroke-miterlimit:10;}
	
		.st89{clip-path:url(#SVGID_00000168106361588947759770000010009465084699723442_);fill:none;stroke:#BABABB;stroke-width:2.3512;stroke-linecap:round;stroke-linejoin:round;stroke-miterlimit:10;}
	
		.st90{clip-path:url(#SVGID_00000168106361588947759770000010009465084699723442_);fill:none;stroke:#BABABB;stroke-width:2.3495;stroke-linecap:round;stroke-linejoin:round;stroke-miterlimit:10;}
	.st91{clip-path:url(#SVGID_00000060734544474593963130000016533045824889574574_);}
	.st92{clip-path:url(#SVGID_00000014596707244871322060000012619213932940319405_);fill:#025157;}
	
		.st93{clip-path:url(#SVGID_00000014596707244871322060000012619213932940319405_);fill:none;stroke:#CBA076;stroke-width:2.3512;stroke-linecap:round;stroke-linejoin:round;stroke-miterlimit:10;}
	
		.st94{clip-path:url(#SVGID_00000014596707244871322060000012619213932940319405_);fill:none;stroke:#007367;stroke-width:3.525;stroke-linecap:round;stroke-linejoin:round;stroke-miterlimit:10;}
	
		.st95{clip-path:url(#SVGID_00000014596707244871322060000012619213932940319405_);fill:none;stroke:#BABABB;stroke-width:2.3512;stroke-linecap:round;stroke-linejoin:round;stroke-miterlimit:10;}
	
		.st96{clip-path:url(#SVGID_00000014596707244871322060000012619213932940319405_);fill:none;stroke:#BABABB;stroke-width:2.3495;stroke-linecap:round;stroke-linejoin:round;stroke-miterlimit:10;}
	.st97{clip-path:url(#SVGID_00000026859432394606663580000000322704840266600890_);}
	.st98{clip-path:url(#SVGID_00000104669861073094212810000014779266956303583626_);fill:#025157;}
	
		.st99{clip-path:url(#SVGID_00000104669861073094212810000014779266956303583626_);fill:none;stroke:#CBA076;stroke-width:2.3512;stroke-linecap:round;stroke-linejoin:round;stroke-miterlimit:10;}
	
		.st100{clip-path:url(#SVGID_00000104669861073094212810000014779266956303583626_);fill:none;stroke:#007367;stroke-width:3.525;stroke-linecap:round;stroke-linejoin:round;stroke-miterlimit:10;}
	
		.st101{clip-path:url(#SVGID_00000104669861073094212810000014779266956303583626_);fill:none;stroke:#BABABB;stroke-width:2.3512;stroke-linecap:round;stroke-linejoin:round;stroke-miterlimit:10;}
	
		.st102{clip-path:url(#SVGID_00000104669861073094212810000014779266956303583626_);fill:none;stroke:#BABABB;stroke-width:2.3495;stroke-linecap:round;stroke-linejoin:round;stroke-miterlimit:10;}
	.st103{clip-path:url(#SVGID_00000084504823678242572990000005516830970821534098_);}
	.st104{clip-path:url(#SVGID_00000049182446321907993000000005966588526309260720_);fill:#025157;}
	
		.st105{clip-path:url(#SVGID_00000049182446321907993000000005966588526309260720_);fill:none;stroke:#CBA076;stroke-width:2.3512;stroke-linecap:round;stroke-linejoin:round;stroke-miterlimit:10;}
	
		.st106{clip-path:url(#SVGID_00000049182446321907993000000005966588526309260720_);fill:none;stroke:#007367;stroke-width:3.525;stroke-linecap:round;stroke-linejoin:round;stroke-miterlimit:10;}
	
		.st107{clip-path:url(#SVGID_00000049182446321907993000000005966588526309260720_);fill:none;stroke:#BABABB;stroke-width:2.3512;stroke-linecap:round;stroke-linejoin:round;stroke-miterlimit:10;}
	
		.st108{clip-path:url(#SVGID_00000049182446321907993000000005966588526309260720_);fill:none;stroke:#BABABB;stroke-width:2.3495;stroke-linecap:round;stroke-linejoin:round;stroke-miterlimit:10;}
	.st109{clip-path:url(#SVGID_00000091734580692010842420000014387500007865398401_);}
	.st110{clip-path:url(#SVGID_00000050655868461080050250000016278325262855107259_);fill:#025157;}
	
		.st111{clip-path:url(#SVGID_00000050655868461080050250000016278325262855107259_);fill:none;stroke:#CBA076;stroke-width:2.3512;stroke-linecap:round;stroke-linejoin:round;stroke-miterlimit:10;}
	
		.st112{clip-path:url(#SVGID_00000050655868461080050250000016278325262855107259_);fill:none;stroke:#007367;stroke-width:3.525;stroke-linecap:round;stroke-linejoin:round;stroke-miterlimit:10;}
	
		.st113{clip-path:url(#SVGID_00000050655868461080050250000016278325262855107259_);fill:none;stroke:#BABABB;stroke-width:2.3512;stroke-linecap:round;stroke-linejoin:round;stroke-miterlimit:10;}
	
		.st114{clip-path:url(#SVGID_00000050655868461080050250000016278325262855107259_);fill:none;stroke:#BABABB;stroke-width:2.3495;stroke-linecap:round;stroke-linejoin:round;stroke-miterlimit:10;}
	.st115{clip-path:url(#SVGID_00000075876344109249151540000009086715514570246312_);}
	.st116{clip-path:url(#SVGID_00000145023966992848141210000005568262525669807775_);fill:#025157;}
	
		.st117{clip-path:url(#SVGID_00000145023966992848141210000005568262525669807775_);fill:none;stroke:#CBA076;stroke-width:2.3512;stroke-linecap:round;stroke-linejoin:round;stroke-miterlimit:10;}
	
		.st118{clip-path:url(#SVGID_00000145023966992848141210000005568262525669807775_);fill:none;stroke:#007367;stroke-width:3.525;stroke-linecap:round;stroke-linejoin:round;stroke-miterlimit:10;}
	
		.st119{clip-path:url(#SVGID_00000145023966992848141210000005568262525669807775_);fill:none;stroke:#BABABB;stroke-width:2.3512;stroke-linecap:round;stroke-linejoin:round;stroke-miterlimit:10;}
	
		.st120{clip-path:url(#SVGID_00000145023966992848141210000005568262525669807775_);fill:none;stroke:#BABABB;stroke-width:2.3495;stroke-linecap:round;stroke-linejoin:round;stroke-miterlimit:10;}
	.st121{display:none;}
	.st122{display:inline;}
</style>
<line class="st0" x1="216" y1="6.1" x2="216" y2="229.2"/>
<g id="Artwork_2_00000080916542890030539650000006594295660119184522_">
	<g>
		<defs>
			<rect id="SVGID_00000071524494642180488930000012796292220327709358_" x="28.8" y="35.9" width="153.1" height="160.3"/>
		</defs>
		<clipPath id="SVGID_00000007417836908084753880000017119178640491776160_">
			<use xlink:href="#SVGID_00000071524494642180488930000012796292220327709358_"  style="overflow:visible;"/>
		</clipPath>
		<g style="clip-path:url(#SVGID_00000007417836908084753880000017119178640491776160_);">
			<defs>
				<rect id="SVGID_00000178199427938126673220000010222796455779603124_" x="28.8" y="35.9" width="153.1" height="160.3"/>
			</defs>
			<clipPath id="SVGID_00000051370649983922117680000017156903732984230788_">
				<use xlink:href="#SVGID_00000178199427938126673220000010222796455779603124_"  style="overflow:visible;"/>
			</clipPath>
			<path style="clip-path:url(#SVGID_00000051370649983922117680000017156903732984230788_);fill:#025157;" d="M48.1,183.1l0-0.1
				c0.1-0.2,0.2-0.4,0.2-0.7c0.1-0.2,0.1-0.5,0.1-0.7c0-0.3,0.1-0.5,0.1-0.8c0-0.3,0-0.6,0-0.9c0-0.6-0.1-1-0.3-1.4
				c-0.2-0.4-0.5-0.8-0.9-1c-0.3-0.2-0.6-0.4-1-0.5c-0.6-0.2-1.3-0.2-1.9-0.1c-0.2,0-0.4,0.1-0.7,0.1c-0.2,0.1-0.4,0.1-0.6,0.2
				c-0.2,0.1-0.4,0.2-0.7,0.4l-0.1,0.1l0.5,1.1l0.2-0.1c0.4-0.2,0.7-0.4,1-0.5c0.8-0.2,1.4-0.2,1.9,0c0.3,0.1,0.5,0.2,0.7,0.3
				c0.3,0.2,0.5,0.4,0.5,0.6c0.1,0.2,0.1,0.5,0.1,0.8c0,0.6,0,1.1-0.1,1.5c0,0.3-0.1,0.6-0.1,0.7h-4.8h-0.9h-1.7l0-5.2h-1.2l0,5.2
				h-1.9h-0.9h-0.7l0-5.8h-1.2v0.5h-0.4c-0.7,0-1.3,0.1-1.8,0.2c-0.5,0.2-1,0.4-1.4,0.7c-0.4,0.3-0.7,0.6-0.9,1
				c-0.2,0.4-0.3,0.8-0.3,1.3c0,0.6,0.1,1.1,0.4,1.5c0.3,0.4,0.6,0.7,1,1c0.4,0.3,0.9,0.4,1.4,0.6c0.5,0.1,1,0.2,1.6,0.2h2.4h0.9
				h4.8h0.9H48.1z M32.9,177.9h0.8v4.1h-0.8c-0.4,0-0.8-0.1-1.1-0.1c-0.3-0.1-0.6-0.2-0.9-0.4c-0.2-0.2-0.4-0.4-0.6-0.6
				c-0.1-0.3-0.2-0.5-0.2-0.9c0-0.3,0.1-0.6,0.2-0.8c0.2-0.3,0.4-0.5,0.6-0.6c0.3-0.2,0.6-0.3,0.9-0.4
				C32.2,177.9,32.5,177.9,32.9,177.9"/>
			<path style="clip-path:url(#SVGID_00000051370649983922117680000017156903732984230788_);fill:#025157;" d="M50.5,176.8l0,6.6
				c0,0.1,0,0.3,0,0.4c0,0.1,0,0.2-0.1,0.3c0,0.1-0.1,0.1-0.2,0.2c-0.1,0-0.2,0.1-0.4,0.1c-0.1,0-0.3,0-0.5-0.1l-0.2-0.1l-0.5,1
				l0.2,0.1c0.3,0.1,0.6,0.2,0.9,0.2c0.4,0,0.7-0.1,1-0.2c0.3-0.1,0.5-0.3,0.6-0.5c0.1-0.2,0.2-0.5,0.3-0.7c0-0.2,0.1-0.5,0.1-0.8
				l0-6.6H50.5z"/>
			<path style="clip-path:url(#SVGID_00000051370649983922117680000017156903732984230788_);fill:#025157;" d="M66.4,174.9h1.2v-1.1
				h-2.5l0,8.3h-1h-0.9h-0.6c0-0.2,0.1-0.4,0.1-0.7c0.1-0.4,0.1-0.9,0.1-1.3c0-0.6-0.1-1-0.3-1.4c-0.2-0.4-0.5-0.8-0.9-1
				c-0.3-0.2-0.6-0.4-1-0.5c-0.4-0.1-0.8-0.2-1.2-0.2c-0.3,0-0.5,0-0.8,0c-0.2,0-0.4,0.1-0.6,0.1c-0.2,0.1-0.4,0.1-0.6,0.2
				c-0.2,0.1-0.4,0.2-0.7,0.4l-0.1,0.1l0.5,1.1l0.2-0.1c0.4-0.2,0.7-0.4,1-0.5c0.8-0.2,1.4-0.2,1.9,0c0.3,0.1,0.5,0.2,0.7,0.3
				c0.3,0.2,0.5,0.4,0.6,0.6c0.1,0.2,0.1,0.5,0.1,0.8c0,0.6,0,1.1-0.1,1.5c0,0.3-0.1,0.5-0.1,0.7h-4.8h-0.9h-1l0-8.3h-1.2l0,9.4h2.2
				h0.9h6.7h0.9h2.2L66.4,174.9z"/>
			
				<rect x="68.6" y="173.7" style="clip-path:url(#SVGID_00000051370649983922117680000017156903732984230788_);fill:#025157;" width="1.2" height="9.4"/>
			<path style="clip-path:url(#SVGID_00000051370649983922117680000017156903732984230788_);fill:#025157;" d="M79.6,176.2h-1.2v0.5
				h-0.4c-0.7,0-1.3,0.1-1.8,0.2c-0.5,0.2-1,0.4-1.4,0.7c-0.4,0.3-0.7,0.6-0.9,1c-0.2,0.4-0.3,0.8-0.3,1.3c0,0.6,0.1,1.1,0.4,1.5
				c0.3,0.4,0.6,0.7,1,1c0.4,0.3,0.9,0.4,1.4,0.6c0.5,0.1,1,0.2,1.6,0.2h1.7L79.6,176.2z M77.6,177.9h0.7v4.1h-0.7
				c-0.4,0-0.8-0.1-1.1-0.1c-0.3-0.1-0.6-0.2-0.9-0.4c-0.2-0.2-0.4-0.4-0.6-0.6c-0.1-0.2-0.2-0.5-0.2-0.9c0-0.3,0.1-0.6,0.2-0.8
				c0.1-0.3,0.4-0.5,0.6-0.6c0.3-0.2,0.6-0.3,0.9-0.4C76.9,177.9,77.3,177.9,77.6,177.9"/>
			<path style="clip-path:url(#SVGID_00000051370649983922117680000017156903732984230788_);fill:#025157;" d="M83.1,184.1
				c0-0.2,0.1-0.5,0.1-0.8l0-6.6h-1.2l0,6.6c0,0.1,0,0.3,0,0.4c0,0.1,0,0.2-0.1,0.3c0,0.1-0.1,0.2-0.2,0.2c-0.1,0-0.2,0.1-0.4,0.1
				c-0.1,0-0.3,0-0.5-0.1l-0.2-0.1l-0.5,1l0.2,0.1c0.3,0.1,0.6,0.2,0.9,0.2c0.4,0,0.7-0.1,1-0.2c0.3-0.1,0.5-0.3,0.6-0.5
				C82.9,184.6,83,184.4,83.1,184.1"/>
			<path style="clip-path:url(#SVGID_00000051370649983922117680000017156903732984230788_);fill:#025157;" d="M106.3,182h-1h-0.9
				h-1l0-8.3h-1.2l0,8.3h-0.8h-0.9h-1.7l0-5.2h-1.2l0,5.2h-1.9h-0.9H94c0-0.2,0.1-0.4,0.1-0.7c0.1-0.4,0.1-0.9,0.1-1.3
				c0-0.6-0.1-1-0.3-1.4c-0.2-0.4-0.5-0.8-0.9-1c-0.3-0.2-0.6-0.4-1-0.5c-0.4-0.1-0.8-0.2-1.2-0.2c-0.3,0-0.5,0-0.8,0
				c-0.2,0-0.4,0.1-0.6,0.1c-0.2,0.1-0.4,0.1-0.6,0.2c-0.2,0.1-0.4,0.2-0.7,0.3l-0.2,0.1l0.5,1.1l0.2-0.1c0.4-0.2,0.7-0.4,1-0.5
				c0.8-0.2,1.4-0.2,1.9,0c0.3,0.1,0.5,0.2,0.7,0.3c0.3,0.2,0.5,0.4,0.6,0.6c0.1,0.2,0.1,0.5,0.1,0.8c0,0.6,0,1.1-0.1,1.5
				c0,0.3-0.1,0.5-0.1,0.7h-4.8H87h-1l0-8.3h-1.2l0,9.4H87h0.9h6.7h0.9h4.8h0.9h3h0.9h2.2l0-8.3h1.2v-1.1h-2.5L106.3,182z"/>
			<path style="clip-path:url(#SVGID_00000051370649983922117680000017156903732984230788_);fill:#025157;" d="M125.8,178.2
				c-0.3-0.3-0.8-0.5-1.2-0.7c-0.5-0.2-1-0.3-1.6-0.3c-0.5,0-1,0.1-1.5,0.3c-0.5,0.2-0.9,0.4-1.2,0.7c-0.3,0.3-0.6,0.7-0.8,1.1
				c-0.2,0.4-0.3,0.9-0.3,1.3c0,0.5,0.1,1,0.3,1.3h-0.2h-0.9h-0.7l0-5.8h-1.3v0.5H116c-0.7,0-1.3,0.1-1.8,0.2
				c-0.5,0.2-1,0.4-1.4,0.7c-0.4,0.3-0.7,0.6-0.9,1c-0.2,0.4-0.3,0.8-0.3,1.3c0,0.6,0.1,1.1,0.4,1.5c0.3,0.4,0.6,0.7,1,1
				c0.4,0.3,0.9,0.4,1.4,0.6c0.5,0.1,1,0.2,1.6,0.2h2.4h0.9h1.1c0.3,0.3,0.7,0.5,1.1,0.6c0.5,0.2,1,0.3,1.5,0.3
				c0.6,0,1.1-0.1,1.5-0.3c0.5-0.2,0.9-0.4,1.2-0.7c0.3-0.3,0.6-0.7,0.8-1.1c0.2-0.4,0.3-0.9,0.3-1.4c0-0.5-0.1-0.9-0.3-1.4
				C126.4,178.9,126.1,178.5,125.8,178.2 M124.9,179c0.2,0.2,0.4,0.4,0.5,0.7c0.1,0.3,0.2,0.6,0.2,0.9c0,0.3-0.1,0.6-0.2,0.9
				c-0.1,0.3-0.3,0.5-0.5,0.7c-0.2,0.2-0.5,0.4-0.8,0.5c-0.3,0.1-0.7,0.2-1.1,0.2c-0.4,0-0.7-0.1-1-0.2c-0.3-0.1-0.6-0.3-0.8-0.5
				c-0.2-0.2-0.4-0.4-0.5-0.7c-0.1-0.3-0.2-0.6-0.2-0.9c0-0.3,0.1-0.6,0.2-0.9c0.1-0.3,0.3-0.5,0.5-0.7c0.2-0.2,0.5-0.4,0.8-0.5
				c0.3-0.1,0.7-0.2,1-0.2c0.4,0,0.7,0.1,1.1,0.2C124.4,178.7,124.7,178.8,124.9,179 M115.6,177.9h0.7v4.1h-0.7
				c-0.4,0-0.8-0.1-1.1-0.1c-0.3-0.1-0.6-0.2-0.9-0.4c-0.2-0.2-0.4-0.4-0.6-0.6c-0.1-0.2-0.2-0.5-0.2-0.9c0-0.3,0.1-0.6,0.2-0.8
				c0.1-0.3,0.4-0.5,0.6-0.6c0.3-0.2,0.6-0.3,0.9-0.4C114.9,177.9,115.3,177.9,115.6,177.9"/>
			<path style="clip-path:url(#SVGID_00000051370649983922117680000017156903732984230788_);fill:#025157;" d="M140.8,173.7l0,8.3
				h-3.6l1.8-3.7c0,0-0.1-0.1-0.1-0.1c-0.7-0.5-1.3-0.8-1.9-1.1c-1.5-0.5-2.8-0.4-3.9,0c0,0,0,0-0.1,0c-1.1,0.4-1.8,1-1.9,1.1l0,0
				c0,0,0,0,0,0l1.7,3.7h-3.4v-8.3h-1.2l0,9.4h13.9v-8.3h1.2v-1.1H140.8z M134.2,182l-1.6-3.3c0.3-0.2,0.7-0.4,1.1-0.5v0
				c0.7-0.2,1.3-0.3,2.1-0.2c0.3,0.1,0.5,0.1,0.7,0.2c0.2,0.1,0.5,0.2,0.7,0.3c0.1,0.1,0.3,0.1,0.3,0.2l-1.6,3.3H134.2z"/>
			
				<rect x="144.3" y="173.7" style="clip-path:url(#SVGID_00000051370649983922117680000017156903732984230788_);fill:#025157;" width="1.2" height="9.4"/>
			<path style="clip-path:url(#SVGID_00000051370649983922117680000017156903732984230788_);fill:#025157;" d="M159.8,174.9h-1.8
				v-0.1c0-0.2,0-0.2,0.1-0.2c0,0,0.1-0.1,0.4-0.1h1v-1.1h-1c-0.5,0-1,0.1-1.2,0.4h0c-0.3,0.3-0.4,0.7-0.4,1.2v1.1h3.1V174.9z"/>
			<path style="clip-path:url(#SVGID_00000051370649983922117680000017156903732984230788_);fill:#025157;" d="M178.5,174.9h1.2
				v-1.1h-2.5v8.3h-1h-1h-0.6c0-0.1,0.1-0.3,0.1-0.5c0-0.3,0.1-0.6,0.1-1c0-0.5-0.1-0.9-0.2-1.4c-0.1-0.5-0.3-0.9-0.5-1.3
				c-0.2-0.3-0.4-0.6-0.7-0.8c-0.3-0.3-0.6-0.5-0.9-0.6c-0.3-0.2-0.7-0.3-1.2-0.5c-0.4-0.1-0.9-0.2-1.4-0.2c-0.6,0-1.2,0.1-1.8,0.2
				c-0.5,0.1-1.1,0.3-1.7,0.6l-0.2,0.1l0.5,1l0.2-0.1c0.4-0.2,0.9-0.4,1.3-0.5c0.4-0.1,0.9-0.2,1.4-0.2c0.9,0,1.6,0.1,2.2,0.4
				c0.6,0.3,1,0.7,1.2,1.1c0.2,0.3,0.3,0.7,0.4,1c0.1,0.3,0.1,0.7,0.1,1.2c0,0.2,0,0.5-0.1,0.8c0,0.2-0.1,0.4-0.1,0.6h-1.2
				c0-0.1,0-0.1,0-0.2c0-0.3,0.1-0.5,0.1-0.8c0-0.4-0.1-0.8-0.2-1.2c-0.1-0.4-0.3-0.7-0.6-0.9c-0.2-0.3-0.5-0.5-0.9-0.6
				c-0.3-0.1-0.7-0.2-1.2-0.2c-0.4,0-0.8,0.1-1.2,0.2c-0.4,0.1-0.7,0.4-0.9,0.6c-0.2,0.3-0.4,0.6-0.6,0.9c-0.1,0.4-0.2,0.7-0.2,1.2
				c0,0.3,0,0.5,0.1,0.8c0,0.1,0,0.2,0,0.2h-0.6h-1.2h-1.5l0-5.2h-1.2l0,5.2h-1.9h-0.9h-0.7l0-5.2h-1.2l0,5.2h-0.6h-1h-0.7l0-5.8
				H154v0.5h-0.4c-0.7,0-1.3,0.1-1.8,0.2c-0.5,0.2-1,0.4-1.4,0.7c-0.4,0.3-0.7,0.6-0.9,1c-0.2,0.4-0.3,0.8-0.3,1.3
				c0,0.6,0.1,1.1,0.4,1.5c0.3,0.4,0.6,0.7,1,1c0.4,0.3,0.9,0.4,1.4,0.6c0.5,0.1,1,0.2,1.6,0.2h2.4h1h2.6h0.9h5.8l10,0h2.2
				L178.5,174.9z M171.1,180.9c0,0.3,0,0.5-0.1,0.7c0,0.1,0,0.2-0.1,0.3h-2.9c0-0.1,0-0.2-0.1-0.3c0-0.2-0.1-0.5-0.1-0.7
				c0-0.3,0-0.5,0.1-0.8c0.1-0.2,0.2-0.4,0.3-0.6c0.1-0.2,0.3-0.3,0.5-0.4c0.2-0.1,0.4-0.1,0.7-0.1c0.3,0,0.5,0,0.7,0.1
				c0.2,0.1,0.4,0.2,0.5,0.4c0.1,0.2,0.2,0.4,0.3,0.6C171.1,180.4,171.1,180.7,171.1,180.9 M153.3,177.9h0.8v4.1h-0.8
				c-0.4,0-0.8-0.1-1.1-0.1c-0.3-0.1-0.6-0.2-0.9-0.4c-0.2-0.2-0.4-0.4-0.6-0.6c-0.1-0.3-0.2-0.5-0.2-0.9c0-0.3,0.1-0.6,0.2-0.8
				c0.2-0.3,0.4-0.5,0.6-0.6c0.3-0.2,0.6-0.3,0.9-0.4C152.6,177.9,152.9,177.9,153.3,177.9"/>
			
				<rect x="180.7" y="173.7" style="clip-path:url(#SVGID_00000051370649983922117680000017156903732984230788_);fill:#025157;" width="1.2" height="9.4"/>
			<path style="clip-path:url(#SVGID_00000051370649983922117680000017156903732984230788_);fill:#025157;" d="M31.1,194.7
				c-0.2,0-0.4,0-0.6-0.1c-0.2,0-0.4-0.1-0.6-0.2c-0.2-0.1-0.3-0.1-0.5-0.2c-0.2-0.1-0.3-0.2-0.4-0.3c0,0-0.1-0.1,0-0.1l0.5-0.6
				c0,0,0.1,0,0.1,0c0.1,0.1,0.2,0.1,0.3,0.2c0.1,0.1,0.2,0.1,0.4,0.2c0.1,0.1,0.3,0.1,0.4,0.1c0.1,0,0.3,0.1,0.4,0.1
				c0.3,0,0.6-0.1,0.8-0.2c0.2-0.2,0.3-0.3,0.3-0.6c0-0.2-0.1-0.4-0.2-0.5c-0.1-0.1-0.4-0.2-0.8-0.3l-0.3,0c-0.5-0.1-1-0.2-1.3-0.5
				c-0.3-0.3-0.4-0.6-0.4-1.1c0-0.3,0-0.5,0.1-0.7c0.1-0.2,0.2-0.4,0.4-0.5c0.2-0.1,0.4-0.3,0.6-0.3c0.2-0.1,0.5-0.1,0.8-0.1
				c0.3,0,0.7,0.1,1,0.2c0.3,0.1,0.6,0.2,0.8,0.4c0,0,0,0.1,0,0.1l-0.4,0.6c0,0-0.1,0.1-0.1,0c-0.2-0.1-0.5-0.3-0.7-0.3
				c-0.2-0.1-0.4-0.1-0.7-0.1c-0.3,0-0.5,0.1-0.7,0.2c-0.2,0.1-0.2,0.3-0.2,0.5c0,0.2,0.1,0.4,0.2,0.5c0.2,0.1,0.4,0.2,0.8,0.3
				l0.3,0c0.5,0.1,1,0.2,1.2,0.5c0.3,0.3,0.4,0.6,0.4,1.1c0,0.2,0,0.5-0.1,0.7c-0.1,0.2-0.2,0.4-0.4,0.6c-0.2,0.2-0.4,0.3-0.7,0.4
				C31.8,194.7,31.5,194.7,31.1,194.7"/>
			<path style="clip-path:url(#SVGID_00000051370649983922117680000017156903732984230788_);fill:#025157;" d="M36.7,194.6
				C36.6,194.6,36.6,194.6,36.7,194.6l-0.1-0.4h0c-0.1,0.1-0.2,0.2-0.4,0.3c-0.2,0.1-0.4,0.1-0.7,0.1c-0.2,0-0.4,0-0.5-0.1
				c-0.2,0-0.3-0.1-0.4-0.2c-0.1-0.1-0.2-0.2-0.3-0.4c-0.1-0.2-0.1-0.3-0.1-0.5c0-0.4,0.1-0.8,0.4-1c0.3-0.2,0.7-0.3,1.2-0.3h0.8
				c0,0,0,0,0,0V192c0-0.2-0.1-0.4-0.2-0.5c-0.1-0.1-0.4-0.2-0.7-0.2c-0.2,0-0.4,0-0.6,0.1c-0.1,0.1-0.3,0.1-0.4,0.2
				c0,0-0.1,0-0.1,0l-0.3-0.5c0,0,0-0.1,0-0.1c0.2-0.1,0.3-0.2,0.6-0.3c0.2-0.1,0.5-0.1,0.8-0.1c0.6,0,1,0.1,1.3,0.3
				c0.2,0.2,0.4,0.6,0.4,1.1v2.6c0,0.1,0,0.1-0.1,0.1H36.7z M35.7,194c0.3,0,0.5-0.1,0.7-0.2c0.2-0.1,0.2-0.3,0.2-0.5V193
				c0,0,0,0,0,0h-0.7c-0.3,0-0.5,0-0.7,0.1c-0.1,0.1-0.2,0.2-0.2,0.4C35,193.8,35.3,194,35.7,194"/>
			<path style="clip-path:url(#SVGID_00000051370649983922117680000017156903732984230788_);fill:#025157;" d="M41.2,194.6
				C41.2,194.6,41.2,194.6,41.2,194.6l-0.1-0.4h0c-0.1,0.1-0.2,0.2-0.4,0.3c-0.2,0.1-0.4,0.1-0.6,0.1c-0.2,0-0.4,0-0.6-0.1
				c-0.2-0.1-0.3-0.2-0.4-0.3c-0.1-0.1-0.2-0.3-0.3-0.5c-0.1-0.2-0.1-0.4-0.1-0.6v-2.5c0-0.1,0-0.1,0.1-0.1h0.8c0,0,0.1,0,0.1,0.1
				v2.3c0,0.3,0.1,0.5,0.2,0.6c0.1,0.2,0.3,0.2,0.6,0.2c0.2,0,0.4-0.1,0.5-0.2c0.1-0.2,0.2-0.4,0.2-0.6v-2.3c0-0.1,0-0.1,0.1-0.1H42
				c0.1,0,0.1,0,0.1,0.1v3.8c0,0.1,0,0.1-0.1,0.1H41.2z"/>
			<path style="clip-path:url(#SVGID_00000051370649983922117680000017156903732984230788_);fill:#025157;" d="M45.9,194.6
				C45.8,194.6,45.8,194.6,45.9,194.6l-0.1-0.4h0c-0.1,0.1-0.2,0.3-0.4,0.3c-0.2,0.1-0.4,0.1-0.7,0.1c-0.3,0-0.6-0.1-0.9-0.2
				c-0.2-0.2-0.4-0.4-0.5-0.7c-0.1-0.2-0.1-0.3-0.1-0.5c0-0.2,0-0.4,0-0.6c0-0.3,0-0.5,0-0.6c0-0.2,0.1-0.3,0.1-0.5
				c0.1-0.3,0.3-0.6,0.5-0.7c0.2-0.2,0.5-0.2,0.9-0.2c0.3,0,0.5,0,0.7,0.1c0.2,0.1,0.3,0.2,0.4,0.3h0v-1.9c0-0.1,0-0.1,0.1-0.1h0.8
				c0.1,0,0.1,0,0.1,0.1v5.4c0,0.1,0,0.1-0.1,0.1H45.9z M45,193.9c0.4,0,0.6-0.2,0.7-0.5c0-0.1,0-0.2,0.1-0.3c0-0.1,0-0.3,0-0.4
				c0-0.2,0-0.3,0-0.4c0-0.1,0-0.2-0.1-0.3c-0.1-0.3-0.4-0.5-0.7-0.5c-0.4,0-0.6,0.2-0.7,0.5c0,0.1,0,0.2-0.1,0.3c0,0.1,0,0.3,0,0.4
				c0,0.2,0,0.3,0,0.4c0,0.1,0,0.2,0.1,0.3C44.4,193.7,44.6,193.9,45,193.9"/>
			<path style="clip-path:url(#SVGID_00000051370649983922117680000017156903732984230788_);fill:#025157;" d="M48.2,194.6
				C48.1,194.6,48.1,194.6,48.2,194.6l-0.1-3.9c0-0.1,0-0.1,0.1-0.1H49c0.1,0,0.1,0,0.1,0.1v3.8c0,0.1,0,0.1-0.1,0.1H48.2z"/>
			<path style="clip-path:url(#SVGID_00000051370649983922117680000017156903732984230788_);fill:#025157;" d="M52.5,193.4
				c0-0.1,0-0.2-0.1-0.3c0-0.1,0-0.2,0-0.3c0-0.1,0-0.2,0-0.4c0-0.2,0-0.3,0-0.6c0-0.2,0-0.4,0-0.6c0-0.2,0-0.3,0-0.4
				c0-0.1,0-0.2,0-0.3c0-0.1,0-0.2,0.1-0.3c0.1-0.4,0.4-0.8,0.7-1c0.3-0.2,0.8-0.3,1.3-0.3c0.3,0,0.5,0,0.7,0.1
				c0.2,0.1,0.4,0.2,0.6,0.3c0.2,0.1,0.3,0.2,0.4,0.4c0.1,0.1,0.2,0.3,0.3,0.4c0,0,0,0.1,0,0.1l-0.7,0.3c0,0-0.1,0-0.1,0
				c-0.1-0.2-0.3-0.4-0.5-0.5c-0.2-0.1-0.4-0.2-0.7-0.2c-0.3,0-0.5,0.1-0.7,0.2c-0.2,0.1-0.3,0.3-0.4,0.5c0,0,0,0.1,0,0.2
				c0,0.1,0,0.1,0,0.2c0,0.1,0,0.2,0,0.4c0,0.1,0,0.3,0,0.5c0,0.2,0,0.4,0,0.5c0,0.1,0,0.3,0,0.4c0,0.1,0,0.2,0,0.2
				c0,0.1,0,0.1,0,0.2c0.1,0.2,0.2,0.4,0.4,0.5c0.2,0.1,0.4,0.2,0.7,0.2c0.2,0,0.5-0.1,0.7-0.2c0.2-0.1,0.3-0.3,0.4-0.5
				c0-0.1,0-0.2,0.1-0.3c0-0.1,0-0.3,0-0.4c0,0,0-0.1,0-0.1h-0.9c-0.1,0-0.1,0-0.1-0.1v-0.7c0-0.1,0-0.1,0.1-0.1h1.9
				c0.1,0,0.1,0,0.1,0.1v0.5c0,0.2,0,0.5,0,0.7c0,0.2-0.1,0.4-0.1,0.5c-0.1,0.4-0.4,0.8-0.7,1c-0.3,0.2-0.8,0.4-1.2,0.4
				c-0.5,0-0.9-0.1-1.3-0.3C52.9,194.2,52.7,193.8,52.5,193.4"/>
			<path style="clip-path:url(#SVGID_00000051370649983922117680000017156903732984230788_);fill:#025157;" d="M59.4,194.7
				c-0.4,0-0.8-0.1-1.1-0.3c-0.3-0.2-0.5-0.5-0.6-0.8c0-0.1-0.1-0.3-0.1-0.4c0-0.2,0-0.3,0-0.5c0-0.2,0-0.4,0-0.6
				c0-0.2,0.1-0.3,0.1-0.4c0.1-0.3,0.3-0.6,0.6-0.8c0.3-0.2,0.6-0.3,1-0.3c0.4,0,0.8,0.1,1,0.3c0.3,0.2,0.5,0.5,0.6,0.8
				c0,0.1,0,0.1,0.1,0.2c0,0.1,0,0.2,0,0.2c0,0.1,0,0.2,0,0.3c0,0.1,0,0.3,0,0.4c0,0.1,0,0.1-0.1,0.1h-2.4c0,0,0,0,0,0.1
				c0,0.1,0,0.1,0,0.2c0,0,0,0.1,0,0.1c0.1,0.4,0.4,0.6,0.9,0.6c0.2,0,0.4,0,0.6-0.1c0.1-0.1,0.3-0.2,0.4-0.3c0,0,0.1,0,0.1,0
				l0.5,0.4c0,0,0,0.1,0,0.1c-0.2,0.2-0.4,0.4-0.7,0.5C60.1,194.7,59.8,194.7,59.4,194.7 M60.2,192.2c0-0.1,0-0.2,0-0.3
				c-0.1-0.2-0.1-0.3-0.3-0.4c-0.1-0.1-0.3-0.1-0.5-0.1c-0.2,0-0.4,0-0.5,0.1c-0.1,0.1-0.2,0.2-0.3,0.4c0,0.1,0,0.2,0,0.3
				c0,0,0,0,0,0L60.2,192.2C60.2,192.3,60.2,192.2,60.2,192.2"/>
			<path style="clip-path:url(#SVGID_00000051370649983922117680000017156903732984230788_);fill:#025157;" d="M64.8,194.6
				C64.8,194.6,64.7,194.6,64.8,194.6l-0.1-2.4c0-0.3-0.1-0.5-0.2-0.6c-0.1-0.2-0.3-0.2-0.6-0.2c-0.2,0-0.4,0.1-0.6,0.2
				c-0.1,0.2-0.2,0.4-0.2,0.6v2.3c0,0.1,0,0.1-0.1,0.1h-0.8c-0.1,0-0.1,0-0.1-0.1v-3.8c0-0.1,0-0.1,0.1-0.1h0.8c0.1,0,0.1,0,0.1,0.1
				v0.3h0c0.1-0.1,0.2-0.2,0.4-0.3c0.2-0.1,0.4-0.1,0.7-0.1c0.2,0,0.4,0,0.6,0.1c0.2,0.1,0.3,0.2,0.4,0.3c0.1,0.1,0.2,0.3,0.3,0.5
				c0.1,0.2,0.1,0.4,0.1,0.6v2.5c0,0.1,0,0.1-0.1,0.1H64.8z"/>
			<path style="clip-path:url(#SVGID_00000051370649983922117680000017156903732984230788_);fill:#025157;" d="M68.6,194.7
				c-0.4,0-0.8-0.1-1.1-0.3c-0.3-0.2-0.5-0.5-0.6-0.8c0-0.1-0.1-0.3-0.1-0.4c0-0.2,0-0.3,0-0.5c0-0.2,0-0.4,0-0.6
				c0-0.2,0.1-0.3,0.1-0.4c0.1-0.3,0.3-0.6,0.6-0.8c0.3-0.2,0.6-0.3,1-0.3c0.4,0,0.8,0.1,1,0.3c0.3,0.2,0.5,0.5,0.6,0.8
				c0,0.1,0,0.1,0.1,0.2c0,0.1,0,0.2,0,0.2c0,0.1,0,0.2,0,0.3c0,0.1,0,0.3,0,0.4c0,0.1,0,0.1-0.1,0.1h-2.4c0,0-0.1,0-0.1,0.1
				c0,0.1,0,0.1,0,0.2c0,0,0,0.1,0,0.1c0.1,0.4,0.4,0.6,0.9,0.6c0.2,0,0.4,0,0.6-0.1c0.1-0.1,0.3-0.2,0.4-0.3c0,0,0.1,0,0.1,0
				l0.5,0.4c0,0,0,0.1,0,0.1c-0.2,0.2-0.4,0.4-0.7,0.5C69.3,194.7,68.9,194.7,68.6,194.7 M69.4,192.2c0-0.1,0-0.2,0-0.3
				c-0.1-0.2-0.2-0.3-0.3-0.4c-0.1-0.1-0.3-0.1-0.5-0.1c-0.2,0-0.4,0-0.5,0.1c-0.1,0.1-0.2,0.2-0.3,0.4c0,0.1-0.1,0.2-0.1,0.3
				c0,0,0,0,0.1,0L69.4,192.2C69.3,192.3,69.4,192.2,69.4,192.2"/>
			<path style="clip-path:url(#SVGID_00000051370649983922117680000017156903732984230788_);fill:#025157;" d="M71.5,194.6
				C71.5,194.6,71.4,194.6,71.5,194.6l-0.1-3.9c0-0.1,0-0.1,0.1-0.1h0.8c0.1,0,0.1,0,0.1,0.1v0.3h0c0.1-0.2,0.2-0.3,0.4-0.4
				c0.2-0.1,0.4-0.1,0.6-0.1c0.2,0,0.3,0,0.5,0.1c0.1,0.1,0.3,0.1,0.4,0.2c0,0,0,0.1,0,0.1l-0.4,0.6c0,0-0.1,0-0.1,0
				c-0.1-0.1-0.2-0.1-0.3-0.1c-0.1,0-0.2-0.1-0.3-0.1c-0.3,0-0.5,0.1-0.6,0.3c-0.1,0.2-0.2,0.4-0.2,0.7v2.1c0,0.1,0,0.1-0.1,0.1
				H71.5z"/>
			<path style="clip-path:url(#SVGID_00000051370649983922117680000017156903732984230788_);fill:#025157;" d="M77.3,194.6
				C77.3,194.6,77.2,194.6,77.3,194.6l-0.1-0.4h0c-0.1,0.1-0.2,0.2-0.4,0.3c-0.2,0.1-0.4,0.1-0.7,0.1c-0.2,0-0.4,0-0.5-0.1
				c-0.2,0-0.3-0.1-0.4-0.2c-0.1-0.1-0.2-0.2-0.3-0.4c-0.1-0.2-0.1-0.3-0.1-0.5c0-0.4,0.1-0.8,0.4-1c0.3-0.2,0.7-0.3,1.2-0.3h0.8
				c0,0,0,0,0,0V192c0-0.2-0.1-0.4-0.2-0.5c-0.1-0.1-0.4-0.2-0.7-0.2c-0.2,0-0.4,0-0.6,0.1c-0.1,0.1-0.3,0.1-0.4,0.2
				c0,0-0.1,0-0.1,0l-0.3-0.5c0,0,0-0.1,0-0.1c0.2-0.1,0.4-0.2,0.6-0.3c0.2-0.1,0.5-0.1,0.8-0.1c0.6,0,1,0.1,1.3,0.3
				c0.2,0.2,0.4,0.6,0.4,1.1v2.6c0,0.1,0,0.1-0.1,0.1H77.3z M76.3,194c0.3,0,0.5-0.1,0.7-0.2c0.2-0.1,0.2-0.3,0.2-0.5V193
				c0,0,0,0,0,0h-0.7c-0.3,0-0.5,0-0.7,0.1c-0.1,0.1-0.2,0.2-0.2,0.4C75.6,193.8,75.9,194,76.3,194"/>
			<path style="clip-path:url(#SVGID_00000051370649983922117680000017156903732984230788_);fill:#025157;" d="M80.5,194.7
				c-0.4,0-0.7-0.1-0.8-0.3c-0.2-0.2-0.2-0.5-0.2-0.9v-4.4c0-0.1,0-0.1,0.1-0.1h0.8c0.1,0,0.1,0,0.1,0.1v4.4c0,0.1,0,0.2,0.1,0.3
				c0.1,0.1,0.1,0.1,0.3,0.1h0.2c0.1,0,0.1,0,0.1,0.1v0.7c0,0.1,0,0.1-0.1,0.1H80.5z"/>
			<path style="clip-path:url(#SVGID_00000051370649983922117680000017156903732984230788_);fill:#025157;" d="M85.6,189.1
				c0-0.1,0.1-0.1,0.1-0.1h0.8c0.1,0,0.1,0,0.1,0.1l1.9,5.4c0,0.1,0,0.1-0.1,0.1h-0.8c-0.1,0-0.1,0-0.1-0.1l-0.4-1.1H85l-0.4,1.1
				c0,0.1-0.1,0.1-0.1,0.1h-0.8c-0.1,0-0.1,0-0.1-0.1L85.6,189.1z M86.8,192.6l-0.7-2.2h0l-0.8,2.2H86.8z"/>
			<path style="clip-path:url(#SVGID_00000051370649983922117680000017156903732984230788_);fill:#025157;" d="M91.7,194.6
				C91.7,194.6,91.6,194.6,91.7,194.6l-0.1-0.4h0c-0.1,0.1-0.2,0.2-0.4,0.3c-0.2,0.1-0.4,0.1-0.6,0.1c-0.2,0-0.4,0-0.6-0.1
				c-0.2-0.1-0.3-0.2-0.4-0.3c-0.1-0.1-0.2-0.3-0.3-0.5c-0.1-0.2-0.1-0.4-0.1-0.6v-2.5c0-0.1,0-0.1,0.1-0.1h0.8c0.1,0,0.1,0,0.1,0.1
				v2.3c0,0.3,0.1,0.5,0.2,0.6c0.1,0.2,0.3,0.2,0.6,0.2c0.2,0,0.4-0.1,0.6-0.2c0.1-0.2,0.2-0.4,0.2-0.6v-2.3c0-0.1,0-0.1,0.1-0.1
				h0.8c0.1,0,0.1,0,0.1,0.1v3.8c0,0.1,0,0.1-0.1,0.1H91.7z"/>
			<path style="clip-path:url(#SVGID_00000051370649983922117680000017156903732984230788_);fill:#025157;" d="M95.1,194.7
				c-0.4,0-0.7-0.1-0.9-0.3c-0.2-0.2-0.2-0.5-0.2-0.9v-2.1c0,0,0,0,0,0h-0.3c-0.1,0-0.1,0-0.1-0.1v-0.6c0-0.1,0-0.1,0.1-0.1H94
				c0,0,0,0,0,0v-1.1c0-0.1,0-0.1,0.1-0.1h0.8c0.1,0,0.1,0,0.1,0.1v1.1c0,0,0,0,0,0h0.5c0.1,0,0.1,0,0.1,0.1v0.6
				c0,0.1,0,0.1-0.1,0.1H95c0,0,0,0,0,0v2.1c0,0.1,0,0.2,0.1,0.3c0.1,0.1,0.2,0.1,0.3,0.1h0.2c0.1,0,0.1,0,0.1,0.1v0.7
				c0,0.1,0,0.1-0.1,0.1H95.1z"/>
			<path style="clip-path:url(#SVGID_00000051370649983922117680000017156903732984230788_);fill:#025157;" d="M99.3,194.6
				C99.2,194.6,99.2,194.6,99.3,194.6l-0.1-2.4c0-0.3-0.1-0.5-0.2-0.6c-0.1-0.2-0.3-0.2-0.6-0.2c-0.2,0-0.4,0.1-0.6,0.2
				c-0.1,0.2-0.2,0.4-0.2,0.6v2.3c0,0.1,0,0.1-0.1,0.1h-0.8c-0.1,0-0.1,0-0.1-0.1v-5.4c0-0.1,0-0.1,0.1-0.1h0.8c0.1,0,0.1,0,0.1,0.1
				v1.9h0c0.1-0.1,0.2-0.2,0.4-0.3c0.2-0.1,0.4-0.1,0.7-0.1c0.2,0,0.4,0,0.6,0.1c0.2,0.1,0.3,0.2,0.4,0.3c0.1,0.1,0.2,0.3,0.3,0.5
				c0.1,0.2,0.1,0.4,0.1,0.6v2.5c0,0.1,0,0.1-0.1,0.1H99.3z"/>
			<path style="clip-path:url(#SVGID_00000051370649983922117680000017156903732984230788_);fill:#025157;" d="M103,194.7
				c-0.4,0-0.8-0.1-1-0.3c-0.3-0.2-0.5-0.5-0.6-0.8c0-0.1-0.1-0.3-0.1-0.4c0-0.1,0-0.3,0-0.5c0-0.2,0-0.4,0-0.5
				c0-0.1,0.1-0.3,0.1-0.4c0.1-0.3,0.3-0.6,0.6-0.8c0.3-0.2,0.6-0.3,1-0.3c0.4,0,0.7,0.1,1,0.3c0.3,0.2,0.5,0.5,0.6,0.8
				c0,0.1,0.1,0.3,0.1,0.4c0,0.1,0,0.3,0,0.5c0,0.2,0,0.4,0,0.5c0,0.1-0.1,0.3-0.1,0.4c-0.1,0.3-0.3,0.6-0.6,0.8
				C103.7,194.6,103.4,194.7,103,194.7 M103,193.9c0.2,0,0.3,0,0.5-0.1c0.1-0.1,0.2-0.2,0.3-0.4c0-0.1,0.1-0.2,0.1-0.3
				c0-0.1,0-0.2,0-0.4c0-0.2,0-0.3,0-0.4c0-0.1,0-0.2-0.1-0.3c-0.1-0.2-0.2-0.3-0.3-0.4c-0.1-0.1-0.3-0.1-0.5-0.1
				c-0.2,0-0.3,0-0.5,0.1c-0.1,0.1-0.2,0.2-0.3,0.4c0,0.1-0.1,0.2-0.1,0.3c0,0.1,0,0.2,0,0.4c0,0.2,0,0.3,0,0.4c0,0.1,0,0.2,0.1,0.3
				c0.1,0.2,0.2,0.3,0.3,0.4C102.6,193.9,102.8,193.9,103,193.9"/>
			<path style="clip-path:url(#SVGID_00000051370649983922117680000017156903732984230788_);fill:#025157;" d="M106,194.6
				C105.9,194.6,105.9,194.6,106,194.6l-0.1-3.9c0-0.1,0-0.1,0.1-0.1h0.8c0.1,0,0.1,0,0.1,0.1v0.3h0c0.1-0.2,0.2-0.3,0.4-0.4
				c0.2-0.1,0.4-0.1,0.6-0.1c0.2,0,0.3,0,0.5,0.1c0.1,0.1,0.3,0.1,0.4,0.2c0,0,0,0.1,0,0.1l-0.4,0.6c0,0-0.1,0-0.1,0
				c-0.1-0.1-0.2-0.1-0.3-0.1c-0.1,0-0.2-0.1-0.3-0.1c-0.3,0-0.5,0.1-0.6,0.3c-0.1,0.2-0.2,0.4-0.2,0.7v2.1c0,0.1,0,0.1-0.1,0.1H106
				z"/>
			<path style="clip-path:url(#SVGID_00000051370649983922117680000017156903732984230788_);fill:#025157;" d="M109.6,194.6
				C109.6,194.6,109.6,194.6,109.6,194.6l-0.1-3.9c0-0.1,0-0.1,0.1-0.1h0.8c0.1,0,0.1,0,0.1,0.1v3.8c0,0.1,0,0.1-0.1,0.1H109.6z"/>
			<path style="clip-path:url(#SVGID_00000051370649983922117680000017156903732984230788_);fill:#025157;" d="M113,194.7
				c-0.4,0-0.7-0.1-0.9-0.3c-0.2-0.2-0.3-0.5-0.3-0.9v-2.1c0,0,0,0,0,0h-0.3c-0.1,0-0.1,0-0.1-0.1v-0.6c0-0.1,0-0.1,0.1-0.1h0.3
				c0,0,0,0,0,0v-1.1c0-0.1,0-0.1,0.1-0.1h0.8c0.1,0,0.1,0,0.1,0.1v1.1c0,0,0,0,0,0h0.5c0.1,0,0.1,0,0.1,0.1v0.6
				c0,0.1,0,0.1-0.1,0.1h-0.5c0,0,0,0,0,0v2.1c0,0.1,0,0.2,0.1,0.3c0.1,0.1,0.2,0.1,0.3,0.1h0.2c0.1,0,0.1,0,0.1,0.1v0.7
				c0,0.1,0,0.1-0.1,0.1H113z"/>
			<path style="clip-path:url(#SVGID_00000051370649983922117680000017156903732984230788_);fill:#025157;" d="M114.8,196.1
				C114.7,196.1,114.7,196.1,114.8,196.1l-0.1-0.7c0-0.1,0-0.1,0.1-0.1h0.1c0.2,0,0.3,0,0.4-0.1c0.1-0.1,0.2-0.2,0.2-0.4l0.1-0.3
				l-1.4-3.7c0-0.1,0-0.1,0.1-0.1h0.8c0.1,0,0.1,0,0.1,0.1l0.9,2.6h0l0.9-2.6c0-0.1,0-0.1,0.1-0.1h0.8c0.1,0,0.1,0,0.1,0.1l-1.5,4.1
				c-0.1,0.2-0.2,0.4-0.3,0.6c-0.1,0.2-0.2,0.3-0.3,0.4c-0.1,0.1-0.2,0.2-0.3,0.2c-0.1,0-0.3,0.1-0.4,0.1H114.8z"/>
			<path style="clip-path:url(#SVGID_00000051370649983922117680000017156903732984230788_);fill:#025157;" d="M122.5,194.7
				c-0.4,0-0.8-0.1-1-0.3c-0.3-0.2-0.5-0.5-0.6-0.8c0-0.1-0.1-0.3-0.1-0.4c0-0.1,0-0.3,0-0.5c0-0.2,0-0.4,0-0.5
				c0-0.1,0.1-0.3,0.1-0.4c0.1-0.3,0.3-0.6,0.6-0.8c0.3-0.2,0.6-0.3,1-0.3c0.4,0,0.7,0.1,1,0.3c0.3,0.2,0.5,0.5,0.6,0.8
				c0,0.1,0.1,0.3,0.1,0.4c0,0.1,0,0.3,0,0.5c0,0.2,0,0.4,0,0.5c0,0.1-0.1,0.3-0.1,0.4c-0.1,0.3-0.3,0.6-0.6,0.8
				C123.2,194.6,122.9,194.7,122.5,194.7 M122.5,193.9c0.2,0,0.3,0,0.5-0.1c0.1-0.1,0.2-0.2,0.3-0.4c0-0.1,0.1-0.2,0.1-0.3
				c0-0.1,0-0.2,0-0.4c0-0.2,0-0.3,0-0.4c0-0.1,0-0.2-0.1-0.3c-0.1-0.2-0.2-0.3-0.3-0.4c-0.1-0.1-0.3-0.1-0.5-0.1
				c-0.2,0-0.3,0-0.5,0.1c-0.1,0.1-0.2,0.2-0.3,0.4c0,0.1-0.1,0.2-0.1,0.3c0,0.1,0,0.2,0,0.4c0,0.2,0,0.3,0,0.4c0,0.1,0,0.2,0.1,0.3
				c0.1,0.2,0.2,0.3,0.3,0.4C122.1,193.9,122.3,193.9,122.5,193.9"/>
			<path style="clip-path:url(#SVGID_00000051370649983922117680000017156903732984230788_);fill:#025157;" d="M125.6,194.6
				C125.6,194.6,125.5,194.6,125.6,194.6l-0.1-3.2c0,0,0,0-0.1,0h-0.3c-0.1,0-0.1,0-0.1-0.1v-0.6c0-0.1,0-0.1,0.1-0.1h0.3
				c0,0,0.1,0,0.1,0v-0.3c0-0.5,0.1-0.8,0.3-1c0.2-0.2,0.6-0.3,1-0.3h0.4c0.1,0,0.1,0,0.1,0.1v0.7c0,0.1,0,0.1-0.1,0.1H127
				c-0.1,0-0.2,0-0.3,0c-0.1,0-0.1,0-0.2,0.1c0,0-0.1,0.1-0.1,0.1c0,0.1,0,0.1,0,0.2v0.3c0,0,0,0,0.1,0h0.7c0.1,0,0.1,0,0.1,0.1v0.6
				c0,0.1,0,0.1-0.1,0.1h-0.7c0,0-0.1,0-0.1,0v3.1c0,0.1,0,0.1-0.1,0.1H125.6z"/>
			<path style="clip-path:url(#SVGID_00000051370649983922117680000017156903732984230788_);fill:#025157;" d="M130.4,189.1
				C130.4,189.1,130.4,189,130.4,189.1l3.6-0.1c0.1,0,0.1,0,0.1,0.1v0.7c0,0.1,0,0.1-0.1,0.1h-2.6c0,0,0,0,0,0.1v1.4c0,0,0,0,0,0
				h2.2c0.1,0,0.1,0,0.1,0.1v0.7c0,0.1,0,0.1-0.1,0.1h-2.2c0,0,0,0,0,0v2.2c0,0.1,0,0.1-0.1,0.1h-0.8c-0.1,0-0.1,0-0.1-0.1V189.1z"
				/>
			<path style="clip-path:url(#SVGID_00000051370649983922117680000017156903732984230788_);fill:#025157;" d="M136.4,194.7
				c-0.4,0-0.8-0.1-1-0.3c-0.3-0.2-0.5-0.5-0.6-0.8c0-0.1-0.1-0.3-0.1-0.4c0-0.1,0-0.3,0-0.5c0-0.2,0-0.4,0-0.5
				c0-0.1,0.1-0.3,0.1-0.4c0.1-0.3,0.3-0.6,0.6-0.8c0.3-0.2,0.6-0.3,1-0.3c0.4,0,0.7,0.1,1,0.3c0.3,0.2,0.5,0.5,0.6,0.8
				c0,0.1,0.1,0.3,0.1,0.4c0,0.1,0,0.3,0,0.5c0,0.2,0,0.4,0,0.5c0,0.1-0.1,0.3-0.1,0.4c-0.1,0.3-0.3,0.6-0.6,0.8
				C137.2,194.6,136.8,194.7,136.4,194.7 M136.4,193.9c0.2,0,0.3,0,0.5-0.1c0.1-0.1,0.2-0.2,0.3-0.4c0-0.1,0.1-0.2,0.1-0.3
				c0-0.1,0-0.2,0-0.4c0-0.2,0-0.3,0-0.4c0-0.1,0-0.2-0.1-0.3c-0.1-0.2-0.2-0.3-0.3-0.4c-0.1-0.1-0.3-0.1-0.5-0.1
				c-0.2,0-0.3,0-0.5,0.1c-0.1,0.1-0.2,0.2-0.3,0.4c0,0.1-0.1,0.2-0.1,0.3c0,0.1,0,0.2,0,0.4c0,0.2,0,0.3,0,0.4c0,0.1,0,0.2,0.1,0.3
				c0.1,0.2,0.2,0.3,0.3,0.4C136.1,193.9,136.2,193.9,136.4,193.9"/>
			<path style="clip-path:url(#SVGID_00000051370649983922117680000017156903732984230788_);fill:#025157;" d="M139.4,194.6
				C139.4,194.6,139.4,194.6,139.4,194.6l-0.1-3.9c0-0.1,0-0.1,0.1-0.1h0.8c0.1,0,0.1,0,0.1,0.1v0.3h0c0.1-0.2,0.2-0.3,0.4-0.4
				c0.2-0.1,0.4-0.1,0.6-0.1c0.2,0,0.3,0,0.5,0.1c0.1,0.1,0.3,0.1,0.4,0.2c0,0,0,0.1,0,0.1l-0.4,0.6c0,0-0.1,0-0.1,0
				c-0.1-0.1-0.2-0.1-0.3-0.1c-0.1,0-0.2-0.1-0.3-0.1c-0.3,0-0.5,0.1-0.6,0.3c-0.1,0.2-0.2,0.4-0.2,0.7v2.1c0,0.1,0,0.1-0.1,0.1
				H139.4z"/>
			<path style="clip-path:url(#SVGID_00000051370649983922117680000017156903732984230788_);fill:#025157;" d="M144.6,194.7
				c-0.4,0-0.8-0.1-1.1-0.3c-0.3-0.2-0.5-0.5-0.6-0.8c0-0.1-0.1-0.3-0.1-0.4c0-0.2,0-0.3,0-0.5c0-0.2,0-0.4,0-0.6
				c0-0.2,0.1-0.3,0.1-0.4c0.1-0.3,0.3-0.6,0.6-0.8c0.3-0.2,0.6-0.3,1-0.3c0.4,0,0.8,0.1,1,0.3c0.3,0.2,0.5,0.5,0.6,0.8
				c0,0.1,0,0.1,0.1,0.2c0,0.1,0,0.2,0,0.2c0,0.1,0,0.2,0,0.3c0,0.1,0,0.3,0,0.4c0,0.1,0,0.1-0.1,0.1h-2.4c0,0,0,0,0,0.1
				c0,0.1,0,0.1,0,0.2c0,0,0,0.1,0,0.1c0.1,0.4,0.4,0.6,0.9,0.6c0.2,0,0.4,0,0.6-0.1c0.1-0.1,0.3-0.2,0.4-0.3c0,0,0.1,0,0.1,0
				l0.5,0.4c0,0,0,0.1,0,0.1c-0.2,0.2-0.4,0.4-0.7,0.5C145.3,194.7,144.9,194.7,144.6,194.7 M145.4,192.2c0-0.1,0-0.2-0.1-0.3
				c-0.1-0.2-0.1-0.3-0.3-0.4c-0.1-0.1-0.3-0.1-0.5-0.1c-0.2,0-0.4,0-0.5,0.1c-0.1,0.1-0.2,0.2-0.3,0.4c0,0.1,0,0.2,0,0.3
				c0,0,0,0,0,0L145.4,192.2C145.4,192.3,145.4,192.2,145.4,192.2"/>
			<path style="clip-path:url(#SVGID_00000051370649983922117680000017156903732984230788_);fill:#025157;" d="M147.5,194.6
				C147.5,194.6,147.5,194.6,147.5,194.6l-0.1-3.9c0-0.1,0-0.1,0.1-0.1h0.8c0.1,0,0.1,0,0.1,0.1v3.8c0,0.1,0,0.1-0.1,0.1H147.5z"/>
			<path style="clip-path:url(#SVGID_00000051370649983922117680000017156903732984230788_);fill:#025157;" d="M151.1,196.2
				c-0.3,0-0.5-0.1-0.8-0.2c-0.3-0.1-0.5-0.3-0.6-0.4c0,0,0-0.1,0-0.1l0.5-0.5c0,0,0.1,0,0.1,0c0.3,0.2,0.5,0.4,0.9,0.4
				c0.3,0,0.5-0.1,0.7-0.2c0.1-0.2,0.2-0.4,0.2-0.7v-0.4h0c-0.1,0.1-0.2,0.3-0.4,0.3c-0.2,0.1-0.4,0.1-0.6,0.1
				c-0.3,0-0.6-0.1-0.8-0.2c-0.2-0.2-0.4-0.4-0.5-0.7c0-0.2-0.1-0.3-0.1-0.5c0-0.2,0-0.3,0-0.6c0-0.2,0-0.4,0-0.6
				c0-0.1,0.1-0.3,0.1-0.5c0.1-0.3,0.3-0.6,0.5-0.7c0.2-0.2,0.5-0.2,0.8-0.2c0.3,0,0.5,0,0.6,0.1c0.2,0.1,0.3,0.2,0.4,0.3h0v-0.3
				c0-0.1,0-0.1,0.1-0.1h0.8c0.1,0,0.1,0,0.1,0.1v3.6c0,0.6-0.2,1-0.5,1.3C152.2,196.1,151.7,196.2,151.1,196.2 M151.2,193.7
				c0.2,0,0.3,0,0.5-0.1c0.1-0.1,0.2-0.2,0.3-0.4c0-0.1,0.1-0.2,0.1-0.3c0-0.1,0-0.2,0-0.4c0-0.3,0-0.5-0.1-0.7
				c-0.1-0.2-0.1-0.3-0.3-0.4c-0.1-0.1-0.3-0.1-0.5-0.1c-0.4,0-0.6,0.2-0.7,0.5c-0.1,0.2-0.1,0.4-0.1,0.7c0,0.1,0,0.3,0,0.4
				c0,0.1,0,0.2,0.1,0.3C150.7,193.5,150.9,193.7,151.2,193.7"/>
			<path style="clip-path:url(#SVGID_00000051370649983922117680000017156903732984230788_);fill:#025157;" d="M156.8,194.6
				C156.8,194.6,156.8,194.6,156.8,194.6l-0.1-2.4c0-0.3-0.1-0.5-0.2-0.6c-0.1-0.2-0.3-0.2-0.6-0.2c-0.2,0-0.4,0.1-0.6,0.2
				c-0.1,0.2-0.2,0.4-0.2,0.6v2.3c0,0.1,0,0.1-0.1,0.1h-0.8c-0.1,0-0.1,0-0.1-0.1v-3.8c0-0.1,0-0.1,0.1-0.1h0.8c0.1,0,0.1,0,0.1,0.1
				v0.3h0c0.1-0.1,0.2-0.2,0.4-0.3c0.2-0.1,0.4-0.1,0.7-0.1c0.2,0,0.4,0,0.6,0.1c0.2,0.1,0.3,0.2,0.4,0.3c0.1,0.1,0.2,0.3,0.3,0.5
				c0.1,0.2,0.1,0.4,0.1,0.6v2.5c0,0.1,0,0.1-0.1,0.1H156.8z"/>
			<path style="clip-path:url(#SVGID_00000051370649983922117680000017156903732984230788_);fill:#025157;" d="M162.3,194.6
				C162.2,194.6,162.2,194.6,162.3,194.6l-0.1-4.7c0,0,0,0-0.1,0h-1.5c-0.1,0-0.1,0-0.1-0.1v-0.7c0-0.1,0-0.1,0.1-0.1h4
				c0.1,0,0.1,0,0.1,0.1v0.7c0,0.1,0,0.1-0.1,0.1h-1.5c0,0,0,0,0,0v4.6c0,0.1,0,0.1-0.1,0.1H162.3z"/>
			<path style="clip-path:url(#SVGID_00000051370649983922117680000017156903732984230788_);fill:#025157;" d="M165.8,194.6
				C165.8,194.6,165.7,194.6,165.8,194.6l-0.1-3.9c0-0.1,0-0.1,0.1-0.1h0.8c0.1,0,0.1,0,0.1,0.1v0.3h0c0.1-0.2,0.2-0.3,0.4-0.4
				c0.2-0.1,0.4-0.1,0.6-0.1c0.2,0,0.3,0,0.5,0.1c0.1,0.1,0.3,0.1,0.4,0.2c0,0,0,0.1,0,0.1l-0.4,0.6c0,0-0.1,0-0.1,0
				c-0.1-0.1-0.2-0.1-0.3-0.1c-0.1,0-0.2-0.1-0.3-0.1c-0.3,0-0.5,0.1-0.6,0.3c-0.1,0.2-0.2,0.4-0.2,0.7v2.1c0,0.1,0,0.1-0.1,0.1
				H165.8z"/>
			<path style="clip-path:url(#SVGID_00000051370649983922117680000017156903732984230788_);fill:#025157;" d="M171.6,194.6
				C171.5,194.6,171.5,194.6,171.6,194.6l-0.1-0.4h0c-0.1,0.1-0.2,0.2-0.4,0.3c-0.2,0.1-0.4,0.1-0.7,0.1c-0.2,0-0.4,0-0.5-0.1
				c-0.2,0-0.3-0.1-0.4-0.2c-0.1-0.1-0.2-0.2-0.3-0.4c-0.1-0.2-0.1-0.3-0.1-0.5c0-0.4,0.1-0.8,0.4-1c0.3-0.2,0.7-0.3,1.2-0.3h0.8
				c0,0,0,0,0,0V192c0-0.2-0.1-0.4-0.2-0.5c-0.1-0.1-0.4-0.2-0.7-0.2c-0.2,0-0.4,0-0.5,0.1c-0.1,0.1-0.3,0.1-0.4,0.2
				c0,0-0.1,0-0.1,0l-0.3-0.5c0,0,0-0.1,0-0.1c0.2-0.1,0.4-0.2,0.6-0.3c0.2-0.1,0.5-0.1,0.8-0.1c0.6,0,1,0.1,1.3,0.3
				c0.2,0.2,0.4,0.6,0.4,1.1v2.6c0,0.1,0,0.1-0.1,0.1H171.6z M170.6,194c0.3,0,0.5-0.1,0.7-0.2c0.2-0.1,0.2-0.3,0.2-0.5V193
				c0,0,0,0,0,0h-0.7c-0.3,0-0.5,0-0.7,0.1c-0.1,0.1-0.2,0.2-0.2,0.4C169.9,193.8,170.2,194,170.6,194"/>
			<path style="clip-path:url(#SVGID_00000051370649983922117680000017156903732984230788_);fill:#025157;" d="M176.2,194.6
				C176.1,194.6,176.1,194.6,176.2,194.6l-0.1-0.4h0c-0.1,0.1-0.2,0.3-0.4,0.3c-0.2,0.1-0.4,0.1-0.7,0.1c-0.3,0-0.6-0.1-0.9-0.2
				c-0.2-0.2-0.4-0.4-0.5-0.7c0-0.2-0.1-0.3-0.1-0.5c0-0.2,0-0.4,0-0.6c0-0.3,0-0.5,0-0.6c0-0.2,0.1-0.3,0.1-0.5
				c0.1-0.3,0.3-0.6,0.5-0.7c0.2-0.2,0.5-0.2,0.9-0.2c0.3,0,0.5,0,0.7,0.1c0.2,0.1,0.3,0.2,0.4,0.3h0v-1.9c0-0.1,0-0.1,0.1-0.1h0.8
				c0.1,0,0.1,0,0.1,0.1v5.4c0,0.1,0,0.1-0.1,0.1H176.2z M175.2,193.9c0.4,0,0.6-0.2,0.7-0.5c0-0.1,0-0.2,0.1-0.3c0-0.1,0-0.3,0-0.4
				c0-0.2,0-0.3,0-0.4c0-0.1,0-0.2-0.1-0.3c-0.1-0.3-0.4-0.5-0.7-0.5c-0.4,0-0.6,0.2-0.7,0.5c0,0.1,0,0.2-0.1,0.3c0,0.1,0,0.3,0,0.4
				c0,0.2,0,0.3,0,0.4c0,0.1,0,0.2,0.1,0.3C174.6,193.7,174.9,193.9,175.2,193.9"/>
			<path style="clip-path:url(#SVGID_00000051370649983922117680000017156903732984230788_);fill:#025157;" d="M179.9,194.7
				c-0.4,0-0.8-0.1-1.1-0.3c-0.3-0.2-0.5-0.5-0.6-0.8c0-0.1-0.1-0.3-0.1-0.4c0-0.2,0-0.3,0-0.5c0-0.2,0-0.4,0-0.6
				c0-0.2,0.1-0.3,0.1-0.4c0.1-0.3,0.3-0.6,0.6-0.8c0.3-0.2,0.6-0.3,1-0.3c0.4,0,0.8,0.1,1,0.3c0.3,0.2,0.5,0.5,0.6,0.8
				c0,0.1,0,0.1,0.1,0.2c0,0.1,0,0.2,0,0.2c0,0.1,0,0.2,0,0.3c0,0.1,0,0.3,0,0.4c0,0.1,0,0.1-0.1,0.1h-2.4c0,0,0,0,0,0.1
				c0,0.1,0,0.1,0,0.2c0,0,0,0.1,0,0.1c0.1,0.4,0.4,0.6,0.9,0.6c0.2,0,0.4,0,0.6-0.1c0.1-0.1,0.3-0.2,0.4-0.3c0,0,0.1,0,0.1,0
				l0.5,0.4c0,0,0,0.1,0,0.1c-0.2,0.2-0.4,0.4-0.7,0.5C180.6,194.7,180.3,194.7,179.9,194.7 M180.7,192.2c0-0.1,0-0.2,0-0.3
				c-0.1-0.2-0.2-0.3-0.3-0.4c-0.1-0.1-0.3-0.1-0.5-0.1c-0.2,0-0.4,0-0.5,0.1c-0.1,0.1-0.2,0.2-0.3,0.4c0,0.1,0,0.2,0,0.3
				c0,0,0,0,0,0L180.7,192.2C180.7,192.3,180.7,192.2,180.7,192.2"/>
			<path style="clip-path:url(#SVGID_00000051370649983922117680000017156903732984230788_);fill:#025157;" d="M35,174.8
				c0,0.4-0.4,0.8-0.9,0.8c-0.5,0-0.9-0.3-0.9-0.8c0-0.4,0.4-0.8,0.9-0.8C34.7,174.1,35,174.4,35,174.8"/>
			<path style="clip-path:url(#SVGID_00000051370649983922117680000017156903732984230788_);fill:#025157;" d="M77.5,174.8
				c0,0.4-0.4,0.8-0.9,0.8c-0.5,0-0.9-0.3-0.9-0.8c0-0.4,0.4-0.8,0.9-0.8C77.1,174.1,77.5,174.4,77.5,174.8"/>
			<path style="clip-path:url(#SVGID_00000051370649983922117680000017156903732984230788_);fill:#025157;" d="M79.8,174.8
				c0,0.4-0.4,0.8-0.9,0.8c-0.5,0-0.9-0.3-0.9-0.8c0-0.4,0.4-0.8,0.9-0.8C79.4,174.1,79.8,174.4,79.8,174.8"/>
			<path style="clip-path:url(#SVGID_00000051370649983922117680000017156903732984230788_);fill:#025157;" d="M115.6,174.8
				c0,0.4-0.4,0.8-0.9,0.8c-0.5,0-0.9-0.3-0.9-0.8c0-0.4,0.4-0.8,0.9-0.8C115.2,174.1,115.6,174.4,115.6,174.8"/>
			<path style="clip-path:url(#SVGID_00000051370649983922117680000017156903732984230788_);fill:#025157;" d="M117.8,174.8
				c0,0.4-0.4,0.8-0.9,0.8c-0.5,0-0.9-0.3-0.9-0.8c0-0.4,0.4-0.8,0.9-0.8C117.4,174.1,117.8,174.4,117.8,174.8"/>
			<path style="clip-path:url(#SVGID_00000051370649983922117680000017156903732984230788_);fill:#025157;" d="M153.2,174.8
				c0,0.4-0.4,0.8-0.9,0.8c-0.5,0-0.9-0.3-0.9-0.8c0-0.4,0.4-0.8,0.9-0.8C152.8,174.1,153.2,174.4,153.2,174.8"/>
			<path style="clip-path:url(#SVGID_00000051370649983922117680000017156903732984230788_);fill:#025157;" d="M155.5,174.8
				c0,0.4-0.4,0.8-0.9,0.8c-0.5,0-0.9-0.3-0.9-0.8c0-0.4,0.4-0.8,0.9-0.8C155.1,174.1,155.5,174.4,155.5,174.8"/>
			<path style="clip-path:url(#SVGID_00000051370649983922117680000017156903732984230788_);fill:#025157;" d="M60.2,175.2
				c0,0.4-0.4,0.8-0.9,0.8c-0.5,0-0.9-0.3-0.9-0.8c0-0.4,0.4-0.8,0.9-0.8C59.8,174.5,60.2,174.8,60.2,175.2"/>
			<path style="clip-path:url(#SVGID_00000051370649983922117680000017156903732984230788_);fill:#025157;" d="M97.7,175.2
				c0,0.4-0.4,0.8-0.9,0.8c-0.5,0-0.9-0.3-0.9-0.8c0-0.4,0.4-0.8,0.9-0.8C97.3,174.5,97.7,174.8,97.7,175.2"/>
			<path style="clip-path:url(#SVGID_00000051370649983922117680000017156903732984230788_);fill:#025157;" d="M99.9,175.2
				c0,0.4-0.4,0.8-0.9,0.8c-0.5,0-0.9-0.3-0.9-0.8c0-0.4,0.4-0.8,0.9-0.8C99.6,174.5,99.9,174.8,99.9,175.2"/>
			<path style="clip-path:url(#SVGID_00000051370649983922117680000017156903732984230788_);fill:#025157;" d="M38.7,184.6
				c0,0.4-0.4,0.8-0.9,0.8c-0.5,0-0.9-0.3-0.9-0.8c0-0.4,0.4-0.8,0.9-0.8C38.3,183.8,38.7,184.2,38.7,184.6"/>
			<path style="clip-path:url(#SVGID_00000051370649983922117680000017156903732984230788_);fill:#025157;" d="M40.9,184.6
				c0,0.4-0.4,0.8-0.9,0.8c-0.5,0-0.9-0.3-0.9-0.8c0-0.4,0.4-0.8,0.9-0.8C40.5,183.8,40.9,184.2,40.9,184.6"/>
			<path style="clip-path:url(#SVGID_00000051370649983922117680000017156903732984230788_);fill:#025157;" d="M46,184.6
				c0,0.4-0.4,0.8-0.9,0.8c-0.5,0-0.9-0.3-0.9-0.8c0-0.4,0.4-0.8,0.9-0.8C45.6,183.8,46,184.2,46,184.6"/>
			<path style="clip-path:url(#SVGID_00000051370649983922117680000017156903732984230788_);fill:#025157;" d="M91.6,184.6
				c0,0.4-0.4,0.8-0.9,0.8c-0.5,0-0.9-0.3-0.9-0.8c0-0.4,0.4-0.8,0.9-0.8C91.2,183.8,91.6,184.2,91.6,184.6"/>
			<path style="clip-path:url(#SVGID_00000051370649983922117680000017156903732984230788_);fill:#025157;" d="M162.6,184.6
				c0,0.4-0.4,0.8-0.9,0.8c-0.5,0-0.9-0.3-0.9-0.8c0-0.4,0.4-0.8,0.9-0.8C162.2,183.8,162.6,184.2,162.6,184.6"/>
			<path style="clip-path:url(#SVGID_00000051370649983922117680000017156903732984230788_);fill:#025157;" d="M164.8,184.6
				c0,0.4-0.4,0.8-0.9,0.8c-0.5,0-0.9-0.3-0.9-0.8c0-0.4,0.4-0.8,0.9-0.8C164.4,183.8,164.8,184.2,164.8,184.6"/>
			<path style="clip-path:url(#SVGID_00000051370649983922117680000017156903732984230788_);fill:#025157;" d="M32.8,174.8
				c0,0.4-0.4,0.8-0.9,0.8c-0.5,0-0.9-0.3-0.9-0.8c0-0.4,0.4-0.8,0.9-0.8C32.4,174.1,32.8,174.4,32.8,174.8"/>
			<path style="clip-path:url(#SVGID_00000051370649983922117680000017156903732984230788_);fill:#025157;" d="M148.4,189.5
				c0,0.2-0.2,0.5-0.4,0.5c-0.3,0-0.5-0.2-0.5-0.5c0-0.2,0.2-0.5,0.5-0.5C148.2,189,148.4,189.2,148.4,189.5"/>
			<path style="clip-path:url(#SVGID_00000051370649983922117680000017156903732984230788_);fill:#025157;" d="M110.5,189.5
				c0,0.2-0.2,0.5-0.4,0.5c-0.3,0-0.5-0.2-0.5-0.5c0-0.2,0.2-0.5,0.5-0.5C110.3,189,110.5,189.2,110.5,189.5"/>
			<path style="clip-path:url(#SVGID_00000051370649983922117680000017156903732984230788_);fill:#025157;" d="M49,189.5
				c0,0.2-0.2,0.5-0.5,0.5c-0.3,0-0.5-0.2-0.5-0.5c0-0.2,0.2-0.5,0.5-0.5C48.8,189,49,189.2,49,189.5"/>
			
				<path style="clip-path:url(#SVGID_00000051370649983922117680000017156903732984230788_);fill:none;stroke:#CBA076;stroke-width:2.3512;stroke-linecap:round;stroke-linejoin:round;stroke-miterlimit:10;" d="
				M146.3,89.6c0.3,0.1,0.6,0.2,0.9,0.4c0,0,4.9,1.9,10.4,5.3c2.6,1.6,4.9,3.3,6.9,5.1v0"/>
			
				<path style="clip-path:url(#SVGID_00000051370649983922117680000017156903732984230788_);fill:none;stroke:#CBA076;stroke-width:2.3512;stroke-linecap:round;stroke-linejoin:round;stroke-miterlimit:10;" d="
				M145.3,119.5c3.8,1.5,7.3,3.1,10.5,5"/>
			
				<path style="clip-path:url(#SVGID_00000051370649983922117680000017156903732984230788_);fill:none;stroke:#CBA076;stroke-width:2.3512;stroke-linecap:round;stroke-linejoin:round;stroke-miterlimit:10;" d="
				M65.5,135.2c4.9-2,10.4-3.7,16.2-4.9c0,0,2.5-0.5,5.1-0.9"/>
			
				<path style="clip-path:url(#SVGID_00000051370649983922117680000017156903732984230788_);fill:none;stroke:#CBA076;stroke-width:2.3512;stroke-linecap:round;stroke-linejoin:round;stroke-miterlimit:10;" d="
				M163.2,106.9c-0.8-0.7-1.7-1.4-2.6-2c0,0-0.9-0.6-2-1.3"/>
			
				<path style="clip-path:url(#SVGID_00000051370649983922117680000017156903732984230788_);fill:none;stroke:#CBA076;stroke-width:2.3512;stroke-linecap:round;stroke-linejoin:round;stroke-miterlimit:10;" d="
				M147.3,97.6c2.6,1.1,5.1,2.3,7.4,3.5"/>
			
				<path style="clip-path:url(#SVGID_00000051370649983922117680000017156903732984230788_);fill:none;stroke:#CBA076;stroke-width:2.3512;stroke-linecap:round;stroke-linejoin:round;stroke-miterlimit:10;" d="
				M54.9,102.8c-2.1,1.3-3.9,2.7-5.7,4.1"/>
			
				<path style="clip-path:url(#SVGID_00000051370649983922117680000017156903732984230788_);fill:none;stroke:#CBA076;stroke-width:2.3512;stroke-linecap:round;stroke-linejoin:round;stroke-miterlimit:10;" d="
				M67.2,96.7c-2.3,0.9-5.2,2.2-8.5,3.9"/>
			
				<path style="clip-path:url(#SVGID_00000051370649983922117680000017156903732984230788_);fill:none;stroke:#007367;stroke-width:3.525;stroke-linecap:round;stroke-linejoin:round;stroke-miterlimit:10;" d="
				M72.3,64.7c0.7-0.2,1.3-0.4,2-0.6l3.4-0.9c2.9-0.7,5.8-1.3,8.9-1.9c1.8-0.3,3.7-0.6,5.6-0.8"/>
			
				<path style="clip-path:url(#SVGID_00000051370649983922117680000017156903732984230788_);fill:none;stroke:#007367;stroke-width:3.525;stroke-linecap:round;stroke-linejoin:round;stroke-miterlimit:10;" d="
				M61.9,76.3c1.9-0.9,3.8-1.7,5.9-2.5c0.1,0,0.2-0.1,0.3-0.1c10.9-4,24-6.4,38.1-6.4c0.6,0,1.3,0,1.9,0c2.2,0,4.3,0.1,6.5,0.3"/>
			
				<path style="clip-path:url(#SVGID_00000051370649983922117680000017156903732984230788_);fill:none;stroke:#007367;stroke-width:3.525;stroke-linecap:round;stroke-linejoin:round;stroke-miterlimit:10;" d="
				M84.8,114.6c2.2-0.4,4.5-0.7,6.9-1c0.8-0.1,1.6-0.2,2.5-0.3c3.9-0.4,8-0.6,12.1-0.6c12.2,0,23.6,1.8,33.5,4.8"/>
			
				<path style="clip-path:url(#SVGID_00000051370649983922117680000017156903732984230788_);fill:none;stroke:#007367;stroke-width:3.525;stroke-linecap:round;stroke-linejoin:round;stroke-miterlimit:10;" d="
				M89,121.5c2.7-0.4,5.6-0.7,8.4-0.9c0.5,0,1-0.1,1.5-0.1c2.4-0.1,4.9-0.2,7.3-0.2c6.9,0,13.6,0.6,20,1.6c0,0,3.6,0.6,6.7,1.3"/>
			
				<path style="clip-path:url(#SVGID_00000051370649983922117680000017156903732984230788_);fill:none;stroke:#007367;stroke-width:3.525;stroke-linecap:round;stroke-linejoin:round;stroke-miterlimit:10;" d="
				M93.3,128.5c3.4-0.4,6.9-0.6,10.5-0.6c0.8,0,1.7,0,2.5,0c5.4,0,10.7,0.3,15.8,1c1.7,0.2,3.4,0.5,5,0.8"/>
			
				<path style="clip-path:url(#SVGID_00000051370649983922117680000017156903732984230788_);fill:none;stroke:#007367;stroke-width:3.525;stroke-linecap:round;stroke-linejoin:round;stroke-miterlimit:10;" d="
				M69.1,88.5l0.4-0.1c2.3-0.8,4.6-1.5,7.1-2.2l-0.2,0.1l0.2-0.1c9-2.4,19-3.7,29.7-3.7c9.5,0,18.6,1.1,26.9,3
				c2.5,0.6,4.9,1.2,7.2,2"/>
			
				<path style="clip-path:url(#SVGID_00000051370649983922117680000017156903732984230788_);fill:none;stroke:#007367;stroke-width:3.525;stroke-linecap:round;stroke-linejoin:round;stroke-miterlimit:10;" d="
				M76.8,101.2c1.1-0.3,2.1-0.5,3.2-0.8c1.6-0.4,3.3-0.7,5-1l0.3,0c6.6-1.2,13.6-1.8,21-1.8c17.6,0,33.7,3.7,45.8,9.7"/>
			
				<path style="clip-path:url(#SVGID_00000051370649983922117680000017156903732984230788_);fill:none;stroke:#007367;stroke-width:3.525;stroke-linecap:round;stroke-linejoin:round;stroke-miterlimit:10;" d="
				M80.7,107.9c1.6-0.4,3.2-0.7,4.9-1c1.4-0.2,2.8-0.5,4.2-0.6h-0.3c5.2-0.7,10.7-1.1,16.4-1.1c15.9,0,30.6,3,42.2,8"/>
			
				<path style="clip-path:url(#SVGID_00000051370649983922117680000017156903732984230788_);fill:none;stroke:#007367;stroke-width:3.525;stroke-linecap:round;stroke-linejoin:round;stroke-miterlimit:10;" d="
				M65.3,82.4l5.2-2c0.5-0.2,1.1-0.3,1.6-0.5c0.6-0.2,1.2-0.4,1.7-0.5c9.6-2.9,20.6-4.5,32.4-4.5c5,0,9.9,0.3,14.6,0.9
				c1.9,0.2,3.8,0.5,5.7,0.8"/>
			
				<path style="clip-path:url(#SVGID_00000051370649983922117680000017156903732984230788_);fill:none;stroke:#007367;stroke-width:3.525;stroke-linecap:round;stroke-linejoin:round;stroke-miterlimit:10;" d="
				M141.9,95.6C131.5,92,119.3,90,106.2,90c-12,0-23.3,1.7-33.2,4.7"/>
			
				<path style="clip-path:url(#SVGID_00000051370649983922117680000017156903732984230788_);fill:none;stroke:#BABABB;stroke-width:2.3512;stroke-linecap:round;stroke-linejoin:round;stroke-miterlimit:10;" d="
				M115.6,37.4c-0.3,0-0.7,0-1-0.1"/>
			
				<path style="clip-path:url(#SVGID_00000051370649983922117680000017156903732984230788_);fill:none;stroke:#BABABB;stroke-width:2.3512;stroke-linecap:round;stroke-linejoin:round;stroke-miterlimit:10;" d="
				M96,37.5c3.3-0.3,6.7-0.4,10.2-0.4c2.8,0,5.6,0.1,8.3,0.3"/>
			
				<path style="clip-path:url(#SVGID_00000051370649983922117680000017156903732984230788_);fill:none;stroke:#BABABB;stroke-width:2.3512;stroke-linecap:round;stroke-linejoin:round;stroke-miterlimit:10;" d="
				M126.7,46.3c-1.4-0.2-2.9-0.5-4.3-0.6c-5.2-0.7-10.6-1.1-16.2-1.1c-1.3,0-2.5,0-3.7,0.1"/>
			
				<path style="clip-path:url(#SVGID_00000051370649983922117680000017156903732984230788_);fill:none;stroke:#BABABB;stroke-width:2.3512;stroke-linecap:round;stroke-linejoin:round;stroke-miterlimit:10;" d="
				M144.8,51.2c-3.9-1.5-8.1-2.7-12.5-3.7c0,0-0.2-0.1-0.6-0.1"/>
			
				<path style="clip-path:url(#SVGID_00000051370649983922117680000017156903732984230788_);fill:none;stroke:#BABABB;stroke-width:2.3512;stroke-linecap:round;stroke-linejoin:round;stroke-miterlimit:10;" d="
				M72.8,49.4c6-1.9,12.6-3.2,19.6-4c0,0,2.2-0.3,5.3-0.5"/>
			
				<path style="clip-path:url(#SVGID_00000051370649983922117680000017156903732984230788_);fill:none;stroke:#BABABB;stroke-width:2.3512;stroke-linecap:round;stroke-linejoin:round;stroke-miterlimit:10;" d="
				M146.7,59.5c-7.1-2.9-15.3-5-24.2-6.2c0,0-2.5-0.3-5.6-0.6"/>
			
				<path style="clip-path:url(#SVGID_00000051370649983922117680000017156903732984230788_);fill:none;stroke:#BABABB;stroke-width:2.3512;stroke-linecap:round;stroke-linejoin:round;stroke-miterlimit:10;" d="
				M89.8,53.3c5.2-0.7,10.7-1.1,16.4-1.1c1.2,0,2.4,0,3.5,0"/>
			
				<path style="clip-path:url(#SVGID_00000051370649983922117680000017156903732984230788_);fill:none;stroke:#BABABB;stroke-width:2.3512;stroke-linecap:round;stroke-linejoin:round;stroke-miterlimit:10;" d="
				M60.4,61.9c6.1-3.1,13.3-5.5,21.1-7.2c0,0,2.2-0.5,3.2-0.7"/>
			
				<path style="clip-path:url(#SVGID_00000051370649983922117680000017156903732984230788_);fill:none;stroke:#BABABB;stroke-width:2.3512;stroke-linecap:round;stroke-linejoin:round;stroke-miterlimit:10;" d="
				M159.4,73.7c-5.2-3.5-11.6-6.6-18.8-8.9c-5.3-1.8-10.1-2.7-12.7-3.2"/>
			
				<path style="clip-path:url(#SVGID_00000051370649983922117680000017156903732984230788_);fill:none;stroke:#BABABB;stroke-width:2.3512;stroke-linecap:round;stroke-linejoin:round;stroke-miterlimit:10;" d="
				M97.9,60l3.2-0.2c3.1-0.1,6.1-0.1,6.1-0.1c4.7,0,9.2,0.3,13.6,0.8"/>
			
				<path style="clip-path:url(#SVGID_00000051370649983922117680000017156903732984230788_);fill:none;stroke:#BABABB;stroke-width:2.3512;stroke-linecap:round;stroke-linejoin:round;stroke-miterlimit:10;" d="
				M51.4,74.9c4.3-3.2,9.5-6,15.4-8.3"/>
			
				<path style="clip-path:url(#SVGID_00000051370649983922117680000017156903732984230788_);fill:none;stroke:#BABABB;stroke-width:2.3512;stroke-linecap:round;stroke-linejoin:round;stroke-miterlimit:10;" d="
				M142.1,72.9c9.1,3.1,16.7,7.3,22.3,12.3"/>
			
				<path style="clip-path:url(#SVGID_00000051370649983922117680000017156903732984230788_);fill:none;stroke:#BABABB;stroke-width:2.3495;stroke-linecap:round;stroke-linejoin:round;stroke-miterlimit:10;" d="
				M120.2,68.1c0.8,0.1,1.5,0.2,2.3,0.3c3.9,0.5,7.6,1.2,11.2,2.1"/>
			
				<path style="clip-path:url(#SVGID_00000051370649983922117680000017156903732984230788_);fill:none;stroke:#BABABB;stroke-width:2.3512;stroke-linecap:round;stroke-linejoin:round;stroke-miterlimit:10;" d="
				M157.8,87.8c2.6,1.7,5,3.5,7.1,5.4"/>
			
				<path style="clip-path:url(#SVGID_00000051370649983922117680000017156903732984230788_);fill:none;stroke:#BABABB;stroke-width:2.3512;stroke-linecap:round;stroke-linejoin:round;stroke-miterlimit:10;" d="
				M132.4,77.8c3.4,0.8,6.7,1.7,9.9,2.8c0,0,5.5,1.9,9.8,4.1c0.9,0.5,1.8,0.9,2.7,1.4"/>
			
				<path style="clip-path:url(#SVGID_00000051370649983922117680000017156903732984230788_);fill:none;stroke:#BABABB;stroke-width:2.3512;stroke-linecap:round;stroke-linejoin:round;stroke-miterlimit:10;" d="
				M47.5,93.3c1.7-1.6,3.6-3.1,5.7-4.5"/>
			
				<path style="clip-path:url(#SVGID_00000051370649983922117680000017156903732984230788_);fill:none;stroke:#BABABB;stroke-width:2.3512;stroke-linecap:round;stroke-linejoin:round;stroke-miterlimit:10;" d="
				M161.4,113c-1.1-0.8-2.3-1.7-3.5-2.4l-1-0.6"/>
			
				<path style="clip-path:url(#SVGID_00000051370649983922117680000017156903732984230788_);fill:none;stroke:#BABABB;stroke-width:2.3512;stroke-linecap:round;stroke-linejoin:round;stroke-miterlimit:10;" d="
				M51,113c4.9-3.7,11-6.9,18-9.4c0,0,0.6-0.2,1.8-0.6"/>
			
				<path style="clip-path:url(#SVGID_00000051370649983922117680000017156903732984230788_);fill:none;stroke:#BABABB;stroke-width:2.3512;stroke-linecap:round;stroke-linejoin:round;stroke-miterlimit:10;" d="
				M152.9,115.3c2.1,1.1,4.1,2.3,6,3.5"/>
			
				<path style="clip-path:url(#SVGID_00000051370649983922117680000017156903732984230788_);fill:none;stroke:#BABABB;stroke-width:2.3512;stroke-linecap:round;stroke-linejoin:round;stroke-miterlimit:10;" d="
				M74.6,109.4c-2.6,0.7-5.1,1.6-7.4,2.5c0,0-2.5,0.9-4.3,1.7"/>
			
				<path style="clip-path:url(#SVGID_00000051370649983922117680000017156903732984230788_);fill:none;stroke:#BABABB;stroke-width:2.3512;stroke-linecap:round;stroke-linejoin:round;stroke-miterlimit:10;" d="
				M53.5,118.8L53.5,118.8c1.2-0.8,2.4-1.5,3.7-2.3"/>
			
				<path style="clip-path:url(#SVGID_00000051370649983922117680000017156903732984230788_);fill:none;stroke:#BABABB;stroke-width:2.3512;stroke-linecap:round;stroke-linejoin:round;stroke-miterlimit:10;" d="
				M56.7,124.4c5.1-3,11.2-5.5,17.8-7.4c0,0,2.6-0.7,4.2-1"/>
			
				<path style="clip-path:url(#SVGID_00000051370649983922117680000017156903732984230788_);fill:none;stroke:#BABABB;stroke-width:2.3512;stroke-linecap:round;stroke-linejoin:round;stroke-miterlimit:10;" d="
				M60.6,129.9c1.4-0.7,2.9-1.4,4.5-2c0,0,3.9-1.5,5.6-2.2"/>
			
				<path style="clip-path:url(#SVGID_00000051370649983922117680000017156903732984230788_);fill:none;stroke:#BABABB;stroke-width:2.3512;stroke-linecap:round;stroke-linejoin:round;stroke-miterlimit:10;" d="
				M146.9,135.2c-1.4-0.6-2.9-1.1-4.4-1.7c0,0-5.1-1.6-6.9-2.1c-0.3-0.1-0.6-0.2-0.9-0.2l-1.2-0.3"/>
			
				<path style="clip-path:url(#SVGID_00000051370649983922117680000017156903732984230788_);fill:none;stroke:#BABABB;stroke-width:2.3512;stroke-linecap:round;stroke-linejoin:round;stroke-miterlimit:10;" d="
				M128,137.4c4.4,0.8,8.6,1.9,12.6,3.1"/>
			
				<path style="clip-path:url(#SVGID_00000051370649983922117680000017156903732984230788_);fill:none;stroke:#BABABB;stroke-width:2.3512;stroke-linecap:round;stroke-linejoin:round;stroke-miterlimit:10;" d="
				M119.6,136.1c-4.3-0.5-8.8-0.7-13.4-0.7c-2,0-4.1,0.1-6.1,0.1l-2.5,0.2"/>
			
				<path style="clip-path:url(#SVGID_00000051370649983922117680000017156903732984230788_);fill:none;stroke:#BABABB;stroke-width:2.3512;stroke-linecap:round;stroke-linejoin:round;stroke-miterlimit:10;" d="
				M71.9,140.5c5.4-1.7,11.3-3.1,17.5-3.9"/>
			
				<path style="clip-path:url(#SVGID_00000051370649983922117680000017156903732984230788_);fill:none;stroke:#BABABB;stroke-width:2.3512;stroke-linecap:round;stroke-linejoin:round;stroke-miterlimit:10;" d="
				M108.2,143c8.4,0.1,16.4,1.1,23.7,2.7"/>
			
				<path style="clip-path:url(#SVGID_00000051370649983922117680000017156903732984230788_);fill:none;stroke:#BABABB;stroke-width:2.3512;stroke-linecap:round;stroke-linejoin:round;stroke-miterlimit:10;" d="
				M80.6,145.7L80.6,145.7c5.6-1.3,11.6-2.1,17.9-2.5"/>
			
				<path style="clip-path:url(#SVGID_00000051370649983922117680000017156903732984230788_);fill:none;stroke:#BABABB;stroke-width:2.3512;stroke-linecap:round;stroke-linejoin:round;stroke-miterlimit:10;" d="
				M96.9,150.9c3-0.2,6.1-0.3,9.3-0.3c3.2,0,6.2,0.1,9.3,0.3"/>
			
				<path style="clip-path:url(#SVGID_00000051370649983922117680000017156903732984230788_);fill:none;stroke:#BABABB;stroke-width:2.3512;stroke-linecap:round;stroke-linejoin:round;stroke-miterlimit:10;" d="
				M48,100.4L48,100.4c3.5-3.1,7.8-5.9,12.7-8.4c0,0,0.6-0.4,2.7-1.3"/>
			
				<path style="clip-path:url(#SVGID_00000051370649983922117680000017156903732984230788_);fill:none;stroke:#BABABB;stroke-width:2.3512;stroke-linecap:round;stroke-linejoin:round;stroke-miterlimit:10;" d="
				M48,85.2c2.5-2.2,5.1-4.1,8.4-6"/>
			
				<path style="clip-path:url(#SVGID_00000051370649983922117680000017156903732984230788_);fill:none;stroke:#BABABB;stroke-width:2.3512;stroke-linecap:round;stroke-linejoin:round;stroke-miterlimit:10;" d="
				M75.4,124.3c2.2-0.6,4.9-1.2,7.2-1.7"/>
			
				<path style="clip-path:url(#SVGID_00000051370649983922117680000017156903732984230788_);fill:none;stroke:#BABABB;stroke-width:2.3512;stroke-linecap:round;stroke-linejoin:round;stroke-miterlimit:10;" d="
				M139.2,125c4.5,1.4,8.8,3,12.6,4.9"/>
			
				<path style="clip-path:url(#SVGID_00000051370649983922117680000017156903732984230788_);fill:none;stroke:#BABABB;stroke-width:2.3512;stroke-linecap:round;stroke-linejoin:round;stroke-miterlimit:10;" d="
				M59.8,84.9c-1.3,0.6-2,1-3.4,1.8"/>
		</g>
	</g>
</g>
<g id="Artwork_2_00000170280374517776678960000010766665375199411848_">
	<g>
		<defs>
			<rect id="SVGID_00000088842116219093197080000000593766927737884834_" x="28.8" y="35.9" width="153.1" height="160.3"/>
		</defs>
		<clipPath id="SVGID_00000044883451809733909220000005149487517600313014_">
			<use xlink:href="#SVGID_00000088842116219093197080000000593766927737884834_"  style="overflow:visible;"/>
		</clipPath>
	</g>
</g>


</svg>
