<svg xmlns="http://www.w3.org/2000/svg" xmlns:xlink="http://www.w3.org/1999/xlink" width="30.106" height="30.106" viewBox="0 0 30.106 30.106">
  <defs>
    <clipPath id="clip-path">
      <path id="Path_125164" data-name="Path 125164" d="M0,0H30.106V30.106H0Z" fill="#fff"/>
    </clipPath>
  </defs>
  <g id="suppliesFile" clip-path="url(#clip-path)">
    <path id="Path_125163" data-name="Path 125163" d="M1.386,26.435.5,11.381a1.075,1.075,0,0,1,1.075-1.2h9.914a1.1,1.1,0,0,1,1.054.817l.86,3.484H27.385a1.075,1.075,0,0,1,1.075,1.161l-.839,10.752a2.15,2.15,0,0,1-2.15,1.978H3.536a2.151,2.151,0,0,1-2.15-1.935ZM6.956,5.876v-4.3A1.075,1.075,0,0,1,8.031.5H26.31a1.075,1.075,0,0,1,1.075,1.075v8.6m-11.828-4.3h6.451" transform="translate(0.571 0.575)" fill="none" stroke="#cca079" stroke-linecap="round" stroke-linejoin="round" stroke-width="2"/>
  </g>
</svg>
