<svg id="close" xmlns="http://www.w3.org/2000/svg" width="32" height="32" viewBox="0 0 32 32">
  <path id="Path_125606" data-name="Path 125606" d="M0,16A16,16,0,0,1,16,0h0A16,16,0,0,1,32,16h0A16,16,0,0,1,16,32h0A16,16,0,0,1,0,16Z" fill="#f3f4f6"/>
  <path id="Path_125607" data-name="Path 125607" d="M9.725,9.725a.625.625,0,0,1,.884,0L16,15.116l5.391-5.391a.625.625,0,0,1,.884.884L16.884,16l5.391,5.391a.625.625,0,0,1-.884.884L16,16.884l-5.391,5.391a.625.625,0,0,1-.884-.884L15.116,16,9.725,10.609A.625.625,0,0,1,9.725,9.725Z" fill="#161616" fill-rule="evenodd"/>
</svg>
