<svg xmlns="http://www.w3.org/2000/svg" xmlns:xlink="http://www.w3.org/1999/xlink" width="56" height="42" viewBox="0 0 56 42">
  <defs>
    <clipPath id="clip-path">
      <rect id="Rectangle_15687" data-name="Rectangle 15687" width="56" height="42" rx="4" fill="#fff"/>
    </clipPath>
  </defs>
  <g id="Iraq" clip-path="url(#clip-path)">
    <rect id="Rectangle_15686" data-name="Rectangle 15686" width="56" height="42" fill="#fff"/>
    <path id="Path_126312" data-name="Path 126312" d="M0,0V42.1H56.133V0Z" fill="#f7fcff" fill-rule="evenodd"/>
    <g id="Group_125315" data-name="Group 125315">
      <path id="Path_126313" data-name="Path 126313" d="M0,0V14.033H56.133V0Z" fill="#bf2714" fill-rule="evenodd"/>
      <path id="Path_126314" data-name="Path 126314" d="M0,16V30.033H56.133V16Z" transform="translate(0 12.067)" fill="#272727" fill-rule="evenodd"/>
      <path id="Path_126315" data-name="Path 126315" d="M5.59,15.685A2.685,2.685,0,0,1,5,19.525a3.085,3.085,0,0,0,2.643-1.534H23.286V14.613s-.327-1.622-1.72-1.622-1.707,1.622-1.707,1.622h-5.5l5.323-4.7L18.645,9l-5.913,5.22v1.107h8.394v-.651a.435.435,0,0,1,.439-.377.286.286,0,0,1,.3.377v1.392H11.285v-1.9l-1.145.511v1.392a11.382,11.382,0,0,0-2.289-.381c-.886,0-.939-1.011-.939-1.011Zm21.243.13.858,2.136H24.278V9.376l1.44.461v5.979Zm15.9,0,.858,2.136H40.178V9.376l1.44.461v5.979ZM38.507,9.465l-.889.6V15.81h-.906V11.2l-1.493.86V15.81h-1v-2.6l-1.135.73v.706S30.9,14.8,30.9,17.881h7.6Zm-29.136,10a.442.442,0,1,0-.5-.439A.47.47,0,0,0,9.371,19.465Zm25.3-9.339c-.386.509-1.557,0-1.557,0l3.32-.385C36.091,10.41,34.671,10.126,34.671,10.126Z" transform="translate(3.771 6.788)" fill="#009c4e" fill-rule="evenodd"/>
    </g>
  </g>
</svg>
