<svg xmlns="http://www.w3.org/2000/svg" xmlns:xlink="http://www.w3.org/1999/xlink" width="56" height="42" viewBox="0 0 56 42">
  <defs>
    <clipPath id="clip-path">
      <rect id="Rectangle_15689" data-name="Rectangle 15689" width="56" height="42" rx="4" fill="#fff"/>
    </clipPath>
  </defs>
  <g id="Lebanon" clip-path="url(#clip-path)">
    <rect id="Rectangle_15688" data-name="Rectangle 15688" width="56" height="42" fill="#fff"/>
    <path id="Path_126316" data-name="Path 126316" d="M56.187,0H0V10.535H56.187Zm0,31.605H0V42.14H56.187Z" fill="#f50101" fill-rule="evenodd"/>
    <path id="Path_126317" data-name="Path 126317" d="M0,6H56.187V27.07H0Z" transform="translate(0 4.535)" fill="#f7fcff" fill-rule="evenodd"/>
    <path id="Path_126318" data-name="Path 126318" d="M29.259,16.807c.131,1.523-5.489-.632-5.489-.022s6.021,1.68,6.011,3.045-7.139-.389-5.54.224,5.031,2.083,4.641,3c-.833,1.955-6.367-1.357-6.827-.7-.743,1.053,4.083,3.509,4.043,3.744-.079.45-3.3-.707-4.043.227-.6-.17-.884-.984-1.071-1.092L19.8,9.913s1.066,14.421-.3,14.836-5.147,1.676-5.257,1.046C14.2,25.56,18.8,23.4,18.056,22.35c-.547-.776-6.1,1.976-6.45.382-1.577-1.137,5.107-2.121,5.107-3.283s-6.115,1.376-5.383-.242,5.627-2.2,5.718-2.422c.167-.41-5.442.638-5.442,0,0-1.207,3.358-1.445,5.442-2.532.123-1.24-5.057,1.221-5.442.227s6.622-3.569,6.45-3.77c-.271-.317-5.918,1.113-4.987.362a72.9,72.9,0,0,1,6.147-3.967s.1-.2.2-.132l.22-.142s0,1.247-.017.274,8.269,3.285,8.363,4.365c.109,1.261-5.12-.951-5,.289,1.063.659,4.087,1.933,5.336,2.494.567.254-4.175-.538-4.075-.149C24.5,15.1,29.122,15.219,29.259,16.807Z" transform="translate(8.518 5.164)" fill="#52ab0b" fill-rule="evenodd"/>
  </g>
</svg>
