<svg xmlns="http://www.w3.org/2000/svg" width="16.942" height="18.68" viewBox="0 0 16.942 18.68">
  <g id="locationIcon" transform="translate(-255.5 -4.833)">
    <path id="Path_125583" data-name="Path 125583" d="M262.859,8.5a3.692,3.692,0,1,0,3.692,3.692A3.692,3.692,0,0,0,262.859,8.5Zm-2.389,3.692a2.389,2.389,0,1,1,2.389,2.389A2.388,2.388,0,0,1,260.47,12.192Z" transform="translate(1.112 1.112)" fill="#007066" fill-rule="evenodd"/>
    <path id="Path_125584" data-name="Path 125584" d="M263.971,4.833A8.516,8.516,0,0,0,255.5,13.24a9.066,9.066,0,0,0,2.4,5.975,21.128,21.128,0,0,0,4.918,3.99l.01.007.012.007a2.293,2.293,0,0,0,2.252,0l.009-.006.01-.006a20.723,20.723,0,0,0,4.925-3.99,9.1,9.1,0,0,0,2.4-5.976A8.516,8.516,0,0,0,263.971,4.833ZM256.8,13.24a7.168,7.168,0,0,1,14.336,0,7.8,7.8,0,0,1-2.088,5.128,19.383,19.383,0,0,1-4.6,3.72.986.986,0,0,1-.95,0,19.821,19.821,0,0,1-4.6-3.723A7.768,7.768,0,0,1,256.8,13.24Z" fill="#007066" fill-rule="evenodd"/>
  </g>
</svg>
