<svg xmlns="http://www.w3.org/2000/svg" width="16.888" height="16.887" viewBox="0 0 16.888 16.887">
  <path id="phone" d="M258.028,116.862a1.534,1.534,0,0,1,1.019.786l.7,1.258a12.911,12.911,0,0,1,.617,1.193,2.02,2.02,0,0,1-.224,2.148,12.8,12.8,0,0,1-.851,1.04l-1.031,1.184c-.185.212-.278.319-.286.451s.067.246.219.472a18.3,18.3,0,0,0,4.964,4.965c.227.151.341.226.472.218s.239-.1.451-.285l1.185-1.032a13.113,13.113,0,0,1,1.039-.851,2.022,2.022,0,0,1,2.149-.224,12.814,12.814,0,0,1,1.192.619l1.259.7a1.537,1.537,0,0,1,.786,1.02,1.517,1.517,0,0,1-.348,1.272,4.885,4.885,0,0,1-4.706,1.834,11.507,11.507,0,0,1-3.61-1.388,18.65,18.65,0,0,1-6.721-6.721,11.558,11.558,0,0,1-1.388-3.609,4.889,4.889,0,0,1,1.834-4.707A1.517,1.517,0,0,1,258.028,116.862Z" transform="translate(-254.833 -116.833)" fill="#007066"/>
</svg>
