<svg xmlns="http://www.w3.org/2000/svg" width="19.047" height="29.061" viewBox="0 0 19.047 29.061">
  <g id="pin" transform="translate(0 0)">
    <path id="Path_125546" data-name="Path 125546" d="M291.424,207.2a8.994,8.994,0,0,0-3.645.772,9.474,9.474,0,0,0-3.091,2.2,10.258,10.258,0,0,0-2.065,3.3,10.758,10.758,0,0,0-.722,3.893c0,7.629,9.523,18.89,9.523,18.89s9.523-11.261,9.523-18.89a10.762,10.762,0,0,0-.724-3.893,10.232,10.232,0,0,0-2.064-3.3,9.488,9.488,0,0,0-3.091-2.2A8.993,8.993,0,0,0,291.424,207.2Zm0,13.8a3.251,3.251,0,0,1-1.891-.613,3.584,3.584,0,0,1-1.252-1.63,3.874,3.874,0,0,1-.194-2.1,3.714,3.714,0,0,1,.932-1.86,3.334,3.334,0,0,1,1.741-.993,3.2,3.2,0,0,1,1.964.206,3.471,3.471,0,0,1,1.527,1.337,3.822,3.822,0,0,1,.573,2.018,3.763,3.763,0,0,1-1,2.568A3.294,3.294,0,0,1,291.424,221.008Z" transform="translate(-281.901 -207.204)" fill="#248580"/>
  </g>
</svg>
