<svg xmlns="http://www.w3.org/2000/svg" width="54" height="40" viewBox="0 0 54 40">
  <g id="sauidaAr" transform="translate(0.637 0.492)">
    <rect id="Rectangle_15595" data-name="Rectangle 15595" width="54" height="40" rx="4" transform="translate(-0.637 -0.492)" fill="#006923"/>
    <path id="Path_125609" data-name="Path 125609" d="M18.446,5a.377.377,0,0,0-.177.067,1.3,1.3,0,0,0-.546.916c-.01.243-.057.243.1.4.113.16.233.147.46.023a.493.493,0,0,0,.223-.32c.053-.266-.29.133-.333-.173-.077-.28.143-.4.35-.666.007-.133.007-.233-.077-.24Zm3.341.017c-.067.013-.143.1-.253.293a1.216,1.216,0,0,0-.167,1.166,3.524,3.524,0,0,1,.187,1.815,3.452,3.452,0,0,1-.35.493.563.563,0,0,1-.739.1.785.785,0,0,1-.443-.62,8.51,8.51,0,0,0-.067-2.005.363.363,0,0,0-.606-.123A4.646,4.646,0,0,0,18.25,8.4c-.167.546-.35.386-.476.167-.31-.293-.333-2.565-.706-2.189-.6,1.712.343,3.588,1,3.4.466.2.766-.7.959-1.682.133-.276.233-.31.3-.167-.017,1.306.1,1.6.433,1.992a1.085,1.085,0,0,0,1.416.027l.583-.58a.353.353,0,0,1,.483-.027c.18.167.157.443.533.633a1.164,1.164,0,0,0,1.166-.243c.217-.366.267-.493.367-.633.153-.2.416-.11.416-.047-.023.117-.177.233-.073.433.183.133.227.047.333.017.38-.18.666-1.006.666-1.006.017-.306-.157-.283-.266-.22-.15.09-.157.12-.3.21-.19.027-.55.15-.726-.127a10.645,10.645,0,0,1-.323-1.133c0-.02-.243-.523-.02-.553.11.02.356.083.393-.12.12-.2-.256-.766-.513-1.046a.55.55,0,0,0-.823-.027c-.21.193-.177.406-.22.61a.963.963,0,0,0,.2.833A2.5,2.5,0,0,1,23.506,8.6a.663.663,0,0,1-.6.306c-.167-.033-.426-.1-.566-1.133a7.41,7.41,0,0,0-.3-2.375c-.077-.19-.14-.376-.246-.366ZM20.728,5.1c-.1.01-.21.127-.3.35a5.684,5.684,0,0,0-.157,1.066c-.067.266.276.38.433.04A3.206,3.206,0,0,0,20.951,5.4C20.918,5.2,20.828,5.1,20.728,5.1Zm3.907.067a.244.244,0,0,0-.213.227,2.276,2.276,0,0,0,.04.846,2.94,2.94,0,0,0,.473.72c.676.909,1.333,1.822,1.959,2.765.1.706.167,1.392.217,2.079a41.387,41.387,0,0,1,.043,4.947c.28.01.733-.456.889-1.133A32.781,32.781,0,0,0,28,12.2l-.033-.793c.733,1.2,1.439,2.465,2.132,3.851.256-.12.2-1.549.053-1.749-.56-1.2-1.332-2.385-1.576-2.842-.09-.167-.393-.623-.75-1.153-.067-.759-.14-1.4-.187-1.592-.117-.8.326.09.266-.373A5.161,5.161,0,0,0,26.8,5.473c-.167-.233-.167-.286-.423.06a1.511,1.511,0,0,0-.1.916c-.073-.1-.157-.213-.277-.36l-.849-.72A.97.97,0,0,0,24.635,5.17Zm11.579.123c-.05-.007-.1.017-.167.107a.688.688,0,0,0-.233.533c.023.416.1.846.127,1.266l.033.167a1.6,1.6,0,0,0-.11-.12c-.823-.866.376-.147-.16-.809a6.373,6.373,0,0,0-.966-.953c-.2-.12-.313-.36-.376.047A8.554,8.554,0,0,0,34.329,6.6a1.456,1.456,0,0,0,.326.666c.546.676,1.106,1.392,1.666,2.139.12,1.522.15,2.918.266,4.444-.013.653-.213,1.519-.4,1.6,0,0-.293.167-.486-.017A5.709,5.709,0,0,1,35,14.49a.428.428,0,0,0-.686,0A9.409,9.409,0,0,0,33.1,16.769c-.1.157-.377.293-.686-.013a3.175,3.175,0,0,1-.426-2.219,2.462,2.462,0,0,0-.233,2.388,1.856,1.856,0,0,0,.866.989.615.615,0,0,0,.913-.1c.413-.426.42-1.522.613-1.739a.361.361,0,0,1,.643-.153,1.624,1.624,0,0,0,.59.51.988.988,0,0,0,1.3.09,1.5,1.5,0,0,0,.693-.846,29.032,29.032,0,0,0,.057-4.77l.866,1.253a31.745,31.745,0,0,1,.133,3.907c-.027.25.876-.746.866-1.219,0-.41.007-.786,0-1.133q.665,1.049,1.266,2.132c.25-.133.167-1.542.01-1.732-.42-.706-.959-1.466-1.376-2.059-.083-.743-.193-1.619-.246-1.889-.077-.42-.157-1.049-.276-1.546a4.915,4.915,0,0,1-.1-.866c.047-.143.233,0,.323-.16a5.594,5.594,0,0,0-.783-2.179c-.11-.2-.313-.133-.56.2-.233.213-.147.706-.06,1.176.227,1.2.433,2.412.593,3.631-.3-.45-.666-.989-1.026-1.506l-.047-.233c0-.027-.047-.983-.09-1.209-.01-.093-.033-.12.067-.107a.556.556,0,0,0,.177.12c.107.013.2-.16.133-.323l-.966-1.779A.215.215,0,0,0,36.2,5.3Zm-29.88.033c-.183-.007-.376.1-.3.316-.047.117.346.51.416.726.057.157-.067.65.067.7.117.05.28-.346.34-.71.033-.2.01-.886-.456-1.026a.485.485,0,0,0-.073-.01Zm34.044,0c-.043.007-.093.067-.167.233a2.114,2.114,0,0,0-.173,1.3,72.7,72.7,0,0,1,.833,8.461,3,3,0,0,1-.167.7,5.5,5.5,0,0,1-.816.946c-.267.2-.84.393-1.026.54-.6.34-.6.733-.12.749a2.97,2.97,0,0,0,2.478-1.183,3.886,3.886,0,0,0,.4-1.532,35.384,35.384,0,0,0-.45-7.482,3.728,3.728,0,0,1-.08-.7c.05-.14.32.01.416-.147.143-.147-.7-1.223-.993-1.682-.06-.113-.1-.21-.147-.2Zm-8.671.047c-.033.007-.08.06-.173.183A3.975,3.975,0,0,0,31.311,7.4a39.844,39.844,0,0,1,1.106,8.861c.28,0,.606-.643.746-1.283a11.067,11.067,0,0,0-.073-1.932c-.023-.52-.586-4.717-.7-5.107-.14-.74.546-.1.473-.526-.24-.546-.833-1.332-1.013-1.809-.067-.127-.08-.243-.133-.233Zm-21.1.06a.227.227,0,0,0-.167.167c-.017.067.027.177-.033.21-.033.033-.16.01-.153-.167a.32.32,0,0,0-.067-.157.167.167,0,0,0-.09-.017c-.057,0-.057.017-.087.067a.523.523,0,0,0-.033.147c-.007.067-.033.083-.077.093s-.043.007-.083-.023-.06-.033-.06-.08a.514.514,0,0,0-.027-.16.16.16,0,0,0-.1-.057c-.22,0-.233.26-.223.353-.017.02-.023.466.276.593.4.193,1.159.11,1.133-.54,0-.057-.017-.25-.023-.3a.174.174,0,0,0-.19-.123Zm5.416.007a.874.874,0,0,0-.366.1.7.7,0,0,0-.12.923c.2.1.41.3.273.416-.58.616-2.089,1.652-2.165,1.842v.02h.013v.007a4.246,4.246,0,0,0,1.126,0h.007a16.02,16.02,0,0,0,1.865-1.882c-.08-.067-.153-.12-.233-.19s-.077-.147,0-.22a.612.612,0,0,0,.06-.933.965.965,0,0,0-.46-.09Zm14.157,0c-.04.01-.09.067-.167.233a2.544,2.544,0,0,0-.29,1.3c.393,2.732.513,5.12.773,7.851a1.089,1.089,0,0,1-.193.8,7.745,7.745,0,0,1-2.608,1.9c-.11.123.273.646.766.646a2.93,2.93,0,0,0,2.232-1.782,3.164,3.164,0,0,0,.5-1.366,29.392,29.392,0,0,0-.553-6.929,1.179,1.179,0,0,1,.027-.486c.053-.067.233,0,.333-.157.14-.147-.38-1.342-.673-1.8C30.268,5.533,30.235,5.436,30.182,5.44ZM8.25,5.53a.353.353,0,0,0-.273.233A7.656,7.656,0,0,0,8.01,7.035a13.953,13.953,0,0,1,.353,2.055c.033.973-.56.42-.533-.06a4.427,4.427,0,0,0-.02-1.859c-.1-.25-.207-.31-.44-.266-.183-.013-.66.5-.793,1.366a7.44,7.44,0,0,0-.16.833c-.067.443-.36.76-.566-.06-.177-.6-.283-2.065-.58-1.726-.087,1.146-.187,3.165.786,3.371,1.179.113.526-1.992.953-2.375.083-.183.233-.187.243.05v1.789a.852.852,0,0,0,.666.873c.31-.023.513-.013.633.286l.15,3.1s.713.2.746-1.742a17.67,17.67,0,0,1-.077-2.322c.007-.22.286-.233.48-.123.31.217.446.483.926.376.733-.2,1.166-.553,1.176-1.113a4.58,4.58,0,0,0-.333-1.6c.033-.093-.133-.343-.1-.44.127.2.326.187.366,0a1.55,1.55,0,0,0-.626-.966c-.256-.233-.633-.183-.773.29a2.562,2.562,0,0,0,.6,1.722,1.724,1.724,0,0,1,.147.859.467.467,0,0,1-.6-.117s-.576-.433-.576-.533a2.056,2.056,0,0,0-.05-1.366,1.9,1.9,0,0,0-.383-.759c-.147-.157-.343-.157-.433,0A2.563,2.563,0,0,0,9.239,8.4c.133.393.34.64.243.64-.08.217-.247.167-.366-.09a6.588,6.588,0,0,1-.207-1.676c-.05-.44-.107-1.382-.4-1.622a.272.272,0,0,0-.256-.133Zm4.137,0c-.057.013-.123.047-.2.067a.579.579,0,0,0-.41.713c.3,1.8.49,3.175.786,4.973.043.213-.133.49-.36.466-.386-.266-.483-.8-1.143-.773A1.278,1.278,0,0,0,9.968,12a2.517,2.517,0,0,0,0,1.179.959.959,0,0,0,1.093.267c.29-.117.533-.4.633-.333.067.11-.007,1.046-1.366,1.765-.839.38-1.506.466-1.865-.213-.22-.426.02-2.052-.526-1.679-1.619,4.171,3.788,4.75,4.39.173.04-.133.157-.26.243-.227.033.017.067.067.08.16-.127,4.144-4.184,4.43-4.87,3.125a3.949,3.949,0,0,1-.24-1.4.705.705,0,0,0-.167-.45c-.167-.123-.386.2-.433.756a5.157,5.157,0,0,0-.05,1.006C7.11,19.407,12.33,18,13.18,15.3a9.185,9.185,0,0,0,.133-2.585l.01-.007h.01l.017-.007c.52.56,1.246.067,1.406-.123a.228.228,0,0,1,.36-.033.839.839,0,0,0,1.259-.366,11.012,11.012,0,0,0,.177-1.549,1.623,1.623,0,0,0-.566.233.189.189,0,0,0-.04.077l-.067.443a.044.044,0,0,1-.013.033.136.136,0,0,1-.047.05c-.093.05-.256.023-.266-.113-.123-.566-.64-.64-.953.243-.21.167-.6.2-.633-.053.05-.593-.19-.673-.666-.393l-.46-3.464c.2-.01.38.133.566-.093a6.652,6.652,0,0,0-.853-1.979h-.007l-.033-.033c0-.007-.01-.01-.017-.013l-.013-.02a.079.079,0,0,1-.033-.01A.2.2,0,0,0,12.387,5.53Zm16.129.013c-.207-.007-.433.123-.347.383-.053.143.443.623.523.883.143.4-.11.789.04.846s.333-.416.4-.859A1.314,1.314,0,0,0,28.6,5.553l-.083-.007Zm-12.568.436a.325.325,0,0,1,.266.2c.057.133.027.256-.067.28a.287.287,0,0,1-.286-.193c-.06-.133-.033-.256.067-.28h.02Zm23.308.606A.3.3,0,0,0,38.943,7c-.047.153.4.673.476.959.067.2-.1.853.033.913s.3-.453.367-.933c.04-.266-.153-1.183-.483-1.346a.284.284,0,0,0-.077-.013Zm-12.891.32a1.384,1.384,0,0,1,.05.233c.04.167.073.333.107.506-.147-.207-.266-.373-.323-.433C25.865,6.812,26.2,6.952,26.364,6.905Zm2.975,1.459a.222.222,0,0,0-.167.177c-.02.06.027.167-.033.2-.033.033-.167.013-.157-.167a.307.307,0,0,0-.067-.157.138.138,0,0,0-.09-.023c-.057,0-.057.017-.087.067a.52.52,0,0,0-.033.15.087.087,0,0,1-.073.1.111.111,0,0,1-.087-.023c-.027-.033-.057-.04-.057-.087a.455.455,0,0,0-.027-.16.166.166,0,0,0-.1-.057c-.217,0-.233.253-.22.346-.013.02-.023.473.276.6.407.19,1.166.1,1.133-.546,0-.057-.017-.25-.02-.3a.178.178,0,0,0-.19-.123ZM15.781,8.5a.37.37,0,0,0-.19.06.824.824,0,0,0-.266,1.1.526.526,0,0,0,.576.19c.35.047.556-.653.556-.653s.01-.2-.4.173c-.18.033-.2-.033-.246-.133a.83.83,0,0,1,.05-.543c.04-.11,0-.18-.08-.187Zm19.164.09a.457.457,0,0,0-.466.39c0,.16.073.247.06.393-.017.083-.1.133-.306.04.033-.033-.133-.26-.133-.26-.157-.1-.366,0-.506.093a.772.772,0,0,0-.047.616c.227.423,1.009,1.143,1.382,1.149.007-.38.043-.886.067-1.2.007-.12.033-.25.15-.28s.31.113.31-.01a1.653,1.653,0,0,0-.2-.766.415.415,0,0,0-.307-.167ZM19.079,9.91l-.01.01a.012.012,0,0,0-.01.007,1.224,1.224,0,0,1-.19.167c-.177.2-.207.343-.2.743.013.043.333.943.61,1.572a4.885,4.885,0,0,1,.233,2.119,5.223,5.223,0,0,1-2.142,2.242,1.138,1.138,0,0,1-.9-.007.552.552,0,0,1-.233-.513v-.01a5.056,5.056,0,0,0,2.149-2.222,2.269,2.269,0,0,0,.06-1.6,1.545,1.545,0,0,0-.366-.746h.007c.12-.057.433.173.483.033a2.4,2.4,0,0,0-.616-1.143.52.52,0,0,0-.76-.047c-.26.147-.313.666-.19,1.119.14.34.516.4.783,1.089a1.28,1.28,0,0,1-.043.71,8.576,8.576,0,0,1-1.616,1.512l-.01.007-.007.007H16.1v-.01a2.01,2.01,0,0,1,0-.21c-.01-.207.077-.676.067-.759v-.007c-.466.3-.623,1.216-.706,1.489A22.062,22.062,0,0,0,12.18,17.7c-.4.633,2.758-.713,3.125-.876l.01.01c.073.077.077.343.286.586a1.675,1.675,0,0,0,1.706.546,5.384,5.384,0,0,0,2.465-2.049c.093-.133.243-.246.383-.14a3.852,3.852,0,0,0,3.491,1.832c.4-.48.21-.716.05-.816-.05-.033-.849-.346-.976-.656-.077-.286.113-.543.493-.733a17.174,17.174,0,0,0,3.225-.62,2.811,2.811,0,0,1,.356-1.106.521.521,0,0,1,.18-.193v-.007h.007v-.043l-.18-.107-3.508-.013a.334.334,0,0,1-.093-.05l-.007-.01a.007.007,0,0,1-.007-.007.007.007,0,0,0-.007-.007v-.017l.007-.01a.373.373,0,0,1,.11-.067c.84-.11,2.325-.353,2.425-1.782a1.175,1.175,0,1,0-2.308.047c-.033.19.067.566-.133.61-1.286.12-2.692.926-2.738,1.506h-.02c0,.007-.01.007-.01.007h-.033a.345.345,0,0,1-.173-.356,6.936,6.936,0,0,0-.883-3c-.183-.183-.266-.256-.313-.266h-.03Zm3.358.526a.226.226,0,0,0-.167.173c-.017.067.033.173-.027.207-.033.033-.167.013-.16-.167a.335.335,0,0,0-.067-.157.134.134,0,0,0-.087-.02c-.057,0-.06.013-.09.06a.466.466,0,0,0-.033.15c-.007.067-.033.087-.077.093s-.04.01-.083-.017c-.027-.027-.06-.04-.06-.087a.608.608,0,0,0-.023-.167.253.253,0,0,0-.1-.047c-.223,0-.233.25-.223.346-.017.017-.027.466.273.593.4.193,1.366.08,1.133-.543,0-.057-.017-.25-.02-.3a.18.18,0,0,0-.193-.123Zm13.541.556h-.033s-1.872,1.332-1.915,1.379c-.187.167-.093.743,0,.676a7.464,7.464,0,0,0,1.979-1.376c.083.007.123-.656-.033-.683Zm-11.772.2a.478.478,0,0,1,.266.067c.143.087.233.207.217.3v.013c-.007,0-.007,0-.007.007v.007a.007.007,0,0,0-.007.007c0,.007-.01.013-.017.02-.067.067-.22.053-.366-.033a.364.364,0,0,1-.217-.286v-.01l.017-.033a.012.012,0,0,1,.007-.01l.017-.02a.155.155,0,0,1,.09-.033Zm-16.383.333A3.126,3.126,0,0,0,5.4,13.491l3.065-1.466C8.3,11.772,8.453,11.546,7.823,11.526Zm3.141.433a.276.276,0,0,1,.247.187.319.319,0,0,1-.057.313v.01c-.047.053-.187.033-.29.033a.278.278,0,0,1-.256-.127c-.04-.117.067-.227.117-.306l.023-.033a.294.294,0,0,1,.167-.067l.043-.007Zm24.651.39a.325.325,0,0,0-.266.443c-.047.153.233.69.31.973.067.2-.087.776.05.833s.456-.333.446-.846c.033-.266-.093-1.233-.423-1.392A.346.346,0,0,0,35.615,12.349Zm-20.933.946c-.153.01-.29.09-.227.306-.01.153.433.343.456.7.06.153-.1.633.033.673s.287-.333.35-.68c.033-.193-.153-.866-.466-.989a.458.458,0,0,0-.15-.013Zm6.263.853h.04a10.118,10.118,0,0,0,1.466.167c.41.033.61.346.233.483s-.743.233-.743.773a.742.742,0,0,1-.007.466c0,.01-.013.02-.013.02a.007.007,0,0,1-.007.007v.007H21.9l-.023.01h-.017c-.09.017-.22-.067-.317-.12a1.978,1.978,0,0,1-.976-1.432.364.364,0,0,1,.366-.383Zm-15.3.666c-.023,0-.067.073-.133.157a3.028,3.028,0,0,0-.313,2.7.677.677,0,0,0,.653.217,1.182,1.182,0,0,0,.433-1.159c-.117-.19-.213-.22-.333-.06-.257.516-.366.16-.383-.133a6.544,6.544,0,0,1,.073-1.449c.033-.2.033-.276,0-.276Zm19.644,1.206a.255.255,0,0,0-.133.033,2.3,2.3,0,0,0-.543.46c-.08.06-.067.11-.047.217.06.143.167.1.293.033.167-.027.243.083.233.28a.368.368,0,0,0,.033.357.276.276,0,0,0,.343.043,6.157,6.157,0,0,1,1.183-.417c.143,0,.133-.386-.093-.4a1.339,1.339,0,0,0-.866.266c-.183.04-.213-.073-.256-.173-.047-.246.107-.42.073-.606a.474.474,0,0,0-.223-.087Zm12.578.466-.266.027c-.12.023-.16.077-.183.223.01.217.143.207.283.293a.243.243,0,0,1-.007.367c-.133.117-.223.183-.357.3-.057.107-.1.266.093.32.35.1,1.159-.426,1.159-.433a.262.262,0,0,0,.077-.29c-.08-.087-.253-.033-.366-.05-.057,0-.233-.027-.153-.187a1.07,1.07,0,0,0,.15-.28c.05-.12,0-.2-.193-.266a.946.946,0,0,0-.243-.023Z" transform="translate(3.171 3.102)" fill="#fff" fill-rule="evenodd"/>
    <path id="Path_125610" data-name="Path 125610" d="M36.789,16.33H33.364v-.663c0-.366-.219-.663-.489-.663s-.489.3-.489.663v.663H6.451a5.785,5.785,0,0,0,4.4,1.988h21.53v1.325c0,.366.219.663.489.663h3.914c.81,0,1.468-.892,1.468-1.988S37.6,16.33,36.789,16.33Zm0,2.65H33.364v-.663h3.915l-.088-.357a.8.8,0,0,1,.088.357C37.278,18.684,37.059,18.98,36.789,18.98Z" transform="translate(4.137 9.76)" fill="#fff"/>
  </g>
</svg>
