<svg xmlns="http://www.w3.org/2000/svg" xmlns:xlink="http://www.w3.org/1999/xlink" width="56" height="42" viewBox="0 0 56 42">
  <defs>
    <clipPath id="clip-path">
      <rect id="Rectangle_15681" data-name="Rectangle 15681" width="56" height="42" rx="4" fill="#fff"/>
    </clipPath>
  </defs>
  <g id="South_Africa" data-name="South Africa" clip-path="url(#clip-path)">
    <rect id="Rectangle_15680" data-name="Rectangle 15680" width="56" height="42" fill="#fff"/>
    <path id="Path_126300" data-name="Path 126300" d="M0,0H56.387V42.29H0Z" fill="#f7fcff" fill-rule="evenodd"/>
    <path id="Path_126301" data-name="Path 126301" d="M0,0V14.1H56.387V0Z" fill="#e31d1c" fill-rule="evenodd"/>
    <path id="Path_126302" data-name="Path 126302" d="M0,16V30.1H56.387V16Z" transform="translate(0 12.193)" fill="#3d58db" fill-rule="evenodd"/>
    <path id="Path_126303" data-name="Path 126303" d="M27.187,19.145,0-2V47.338L27.187,26.193h29.2V19.145Z" transform="translate(0 -1.524)" fill="#5eaa22" fill-rule="evenodd"/>
    <path id="Path_126304" data-name="Path 126304" d="M1.524,1.116,3.688-1.665-2-6.089V1.116ZM28.711,22.261l-2.164,2.782.955.742h1.209ZM1.524,50.455H-2V57.66l5.688-4.424ZM28.711,29.31V25.786H27.5l-.955.742Zm29.2,0v3.524h3.524V29.31Zm0-7.048h3.524V18.737H57.911ZM-.639,3.9,26.547,25.043l4.327-5.564L3.688-1.665ZM5.048,50.455V1.116H-2V50.455Zm21.5-23.927L-.639,47.673l4.327,5.564L30.874,32.092Zm31.364-.742h-29.2v7.048h29.2Zm-3.524-3.524V29.31h7.048V22.261ZM28.711,25.786h29.2V18.737h-29.2Z" transform="translate(-1.524 -4.641)" fill="#f7fcff"/>
    <path id="Path_126305" data-name="Path 126305" d="M1.819,6.115-1,4V32.193l2.819-2.115,14.1-10.573L17.8,18.1l-1.88-1.41Z" transform="translate(-0.762 3.048)" fill="#272727" stroke="#feca00" stroke-width="2"/>
  </g>
</svg>
