<svg xmlns="http://www.w3.org/2000/svg" xmlns:xlink="http://www.w3.org/1999/xlink" width="56" height="42" viewBox="0 0 56 42">
  <defs>
    <clipPath id="clip-path">
      <rect id="Rectangle_15691" data-name="Rectangle 15691" width="56" height="42" rx="4" fill="#fff"/>
    </clipPath>
  </defs>
  <g id="Turkey" clip-path="url(#clip-path)">
    <rect id="Rectangle_15690" data-name="Rectangle 15690" width="56" height="42" fill="#fff"/>
    <path id="Path_126319" data-name="Path 126319" d="M0,0V42H56.373V0Z" fill="#e31d1c" fill-rule="evenodd"/>
    <g id="Group_125320" data-name="Group 125320" transform="translate(14.617 7.09)">
      <path id="Path_126320" data-name="Path 126320" d="M21.237,24.959a8.453,8.453,0,0,1-6.463-8.585,8.825,8.825,0,0,1,6.569-8.852,11.113,11.113,0,0,1,7.53,1.1c-1.107-2.665-4.952-4.538-8.1-4.532A12.4,12.4,0,0,0,8.593,16.373c-.056,7.7,6.7,12.08,12.638,12.069A7.8,7.8,0,0,0,28.72,23.7S24.88,25.874,21.237,24.959Zm8.3-10.042-3.629,1.36L30,17.75l-.07,4.4,2.7-3.3,4.457.33-3.532-3.1,2.319-3.3-3.776,1.3-2.7-3.06Z" transform="translate(-8.592 -4.085)" fill="#f7fcff" fill-rule="evenodd"/>
    </g>
  </g>
</svg>
