<svg xmlns="http://www.w3.org/2000/svg" xmlns:xlink="http://www.w3.org/1999/xlink" width="56" height="42" viewBox="0 0 56 42">
  <defs>
    <clipPath id="clip-path">
      <rect id="Rectangle_15624" data-name="Rectangle 15624" width="56" height="42" rx="4" transform="translate(183 82.934)" fill="#fff"/>
    </clipPath>
  </defs>
  <g id="UK" transform="translate(-183 -82.934)" clip-path="url(#clip-path)">
    <rect id="Rectangle_15623" data-name="Rectangle 15623" width="56" height="42" transform="translate(183 82.934)" fill="#fff"/>
    <path id="Path_126177" data-name="Path 126177" d="M183,83v41.934h55.912V83Z" transform="translate(0)" fill="#2e42a5" fill-rule="evenodd"/>
    <g id="Group_125258" data-name="Group 125258" transform="translate(175.606 76.011)">
      <path id="Path_126178" data-name="Path 126178" d="M179.437,123.568l12.3,5.2,50.113-38.483,6.489-7.732-13.157-1.739L214.747,97.4l-16.452,11.174Z" transform="translate(-178.268 -77.642)" fill="#fff"/>
      <path id="Path_126179" data-name="Path 126179" d="M180.4,126.778l6.267,3.019,58.623-48.4h-8.8Z" transform="translate(-177.548 -77.206)" fill="#f50100"/>
      <path id="Path_126180" data-name="Path 126180" d="M248.032,123.568l-12.3,5.2L185.615,90.288l-6.489-7.732,13.157-1.739L212.722,97.4l16.452,11.174Z" transform="translate(-178.5 -77.642)" fill="#fff"/>
      <path id="Path_126181" data-name="Path 126181" d="M247.88,125.431l-6.269,3.019L216.65,107.729l-7.4-2.315L178.768,81.827h8.8l30.461,23.027,8.091,2.776Z" transform="translate(-178.768 -76.887)" fill="#f50100"/>
      <path id="Path_126182" data-name="Path 126182" d="M219.03,81h-13.2V98.472h-24.8V112.45h24.8v17.472h13.2V112.45h24.9V98.472h-24.9Z" transform="translate(-177.079 -77.506)" fill="#f50100" fill-rule="evenodd"/>
      <path id="Path_126183" data-name="Path 126183" d="M207.323,82.494V79h-3.494v3.494Zm13.2,0h3.494V79h-3.494Zm-13.2,17.472v3.494h3.494V99.967Zm-24.8,0V96.472h-3.494v3.494Zm0,13.978h-3.494v3.494h3.494Zm24.8,0h3.494V110.45h-3.494Zm0,17.472h-3.494v3.494h3.494Zm13.2,0v3.494h3.494v-3.494Zm0-17.472V110.45H217.03v3.494Zm24.9,0v3.494h3.494v-3.494Zm0-13.978h3.494V96.472h-3.494Zm-24.9,0H217.03v3.494h3.494Zm-13.2-13.978h13.2V79h-13.2Zm3.494,13.978V82.494h-6.989V99.967Zm-28.295,3.494h24.8V96.472h-24.8Zm3.494,10.483V99.967h-6.989v13.978Zm21.306-3.494h-24.8v6.989h24.8Zm3.494,20.967V113.945h-6.989v17.472Zm9.708-3.494h-13.2v6.989h13.2Zm-3.494-13.978v17.472h6.989V113.945Zm28.393-3.494h-24.9v6.989h24.9Zm-3.494-10.483v13.978h6.989V99.967Zm-21.4,3.494h24.9V96.472h-24.9ZM217.03,82.494V99.967h6.989V82.494Z" transform="translate(-178.574 -79)" fill="#fff"/>
    </g>
  </g>
</svg>
