<svg xmlns="http://www.w3.org/2000/svg" xmlns:xlink="http://www.w3.org/1999/xlink" width="56" height="42" viewBox="0 0 56 42">
  <defs>
    <clipPath id="clip-path">
      <rect id="Rectangle_15613" data-name="Rectangle 15613" width="56" height="42" rx="4" transform="translate(99)" fill="#fff"/>
    </clipPath>
  </defs>
  <g id="USA" transform="translate(-99)" clip-path="url(#clip-path)">
    <rect id="Rectangle_15611" data-name="Rectangle 15611" width="56" height="42" transform="translate(99)" fill="#fff"/>
    <path id="Path_126143" data-name="Path 126143" d="M99,0h56.422V43.477H99Z" fill="#f7fcff" fill-rule="evenodd"/>
    <path id="Path_126144" data-name="Path 126144" d="M99,14.667V18.29h56.422V14.667Z" transform="translate(0 11.902)" fill="#e31d1c" fill-rule="evenodd"/>
    <path id="Path_126145" data-name="Path 126145" d="M99,18.333v3.623h56.422V18.333Z" transform="translate(0 14.878)" fill="#e31d1c" fill-rule="evenodd"/>
    <path id="Path_126146" data-name="Path 126146" d="M99,7.333v3.623h56.422V7.333Z" transform="translate(0 5.951)" fill="#e31d1c" fill-rule="evenodd"/>
    <path id="Path_126147" data-name="Path 126147" d="M99,22v3.623h56.422V22Z" transform="translate(0 17.853)" fill="#e31d1c" fill-rule="evenodd"/>
    <path id="Path_126148" data-name="Path 126148" d="M99,11v3.623h56.422V11Z" transform="translate(0 8.927)" fill="#e31d1c" fill-rule="evenodd"/>
    <path id="Path_126149" data-name="Path 126149" d="M99,0V3.623h56.422V0Z" fill="#e31d1c" fill-rule="evenodd"/>
    <path id="Path_126150" data-name="Path 126150" d="M99,3.667V7.29h56.422V3.667Z" transform="translate(0 2.976)" fill="#e31d1c" fill-rule="evenodd"/>
    <rect id="Rectangle_15612" data-name="Rectangle 15612" width="35" height="24" transform="translate(99)" fill="#2e42a5"/>
    <path id="Path_126151" data-name="Path 126151" d="M101.581,4.326l-1.28.922.432-1.641L99.6,2.568h1.486l.5-1.339.584,1.339h1.266l-.994,1.04.384,1.641Zm7.053,0-1.28.922.432-1.641-1.135-1.04h1.485l.5-1.339.584,1.339h1.266l-.994,1.04.384,1.641Zm5.773.922,1.28-.922,1.238.922-.384-1.641.994-1.04h-1.266l-.584-1.339-.5,1.339H113.7l1.135,1.04Zm8.333-.922-1.28.922.432-1.641-1.135-1.04h1.485l.5-1.339.584,1.339h1.266l-.994,1.04.384,1.641ZM100.3,12.494l1.28-.922,1.238.922-.384-1.641.994-1.04h-1.266l-.584-1.339-.5,1.339H99.6l1.136,1.04Zm8.332-.922-1.28.922.432-1.641-1.135-1.04h1.485l.5-1.339.584,1.339h1.266l-.994,1.04.384,1.641Zm5.773.922,1.28-.922,1.238.922-.384-1.641.994-1.04h-1.266l-.584-1.339-.5,1.339H113.7l1.135,1.04Zm8.333-.922-1.28.922.432-1.641-1.135-1.04h1.485l.5-1.339.584,1.339h1.266l-.994,1.04.384,1.641ZM100.3,19.74l1.28-.922,1.238.922-.384-1.641.994-1.04h-1.266l-.584-1.339-.5,1.339H99.6l1.136,1.04Zm8.332-.922-1.28.922.432-1.641-1.135-1.04h1.485l.5-1.339.584,1.339h1.266l-.994,1.04.384,1.641Zm5.773.922,1.28-.922,1.238.922L116.54,18.1l.994-1.04h-1.266l-.584-1.339-.5,1.339H113.7l1.135,1.04Zm8.333-.922-1.28.922.432-1.641-1.135-1.04h1.485l.5-1.339.584,1.339h1.266l-.994,1.04.384,1.641Zm5.773-13.57,1.28-.922,1.238.922-.384-1.641.994-1.04h-1.266l-.584-1.339-.5,1.339h-1.485l1.135,1.04Zm1.28,6.324-1.28.922.432-1.641-1.135-1.04h1.485l.5-1.339.584,1.339h1.266l-.994,1.04.384,1.641Zm-1.28,8.168,1.28-.922,1.238.922-.384-1.641.994-1.04h-1.266l-.584-1.339-.5,1.339h-1.485l1.135,1.04Zm-23.4-11.791-1.28.922.432-1.641-1.135-1.04h1.485l.5-1.339.584,1.339h1.266l-.994,1.04.384,1.641Zm5.773.922,1.28-.922,1.238.922-.384-1.641.994-1.04h-1.266l-.584-1.339-.5,1.339h-1.485l1.135,1.04Zm8.333-.922-1.28.922.432-1.641-1.135-1.04h1.485l.5-1.339.584,1.339h1.266l-.994,1.04.384,1.641Zm-15.386,8.168,1.28-.922,1.238.922-.384-1.641.994-1.04h-1.266l-.584-1.339-.5,1.339h-1.485l1.135,1.04Zm8.333-.922-1.28.922.432-1.641-1.135-1.04h1.485l.5-1.339.584,1.339h1.266l-.994,1.04.384,1.641Zm5.773.922,1.28-.922,1.238.922-.384-1.641.994-1.04h-1.266l-.584-1.339-.5,1.339h-1.485l1.135,1.04Zm8.333-8.168-1.28.922.432-1.641-1.135-1.04h1.485l.5-1.339.584,1.339h1.266l-.994,1.04.384,1.641Zm-1.28,8.168,1.28-.922,1.238.922-.384-1.641.994-1.04h-1.266l-.584-1.339-.5,1.339h-1.485l1.135,1.04Z" transform="translate(0.455 0.997)" fill="#f7fcff" fill-rule="evenodd"/>
  </g>
</svg>
