<svg xmlns="http://www.w3.org/2000/svg" width="16.941" height="18.679" viewBox="0 0 16.941 18.679">
  <g id="user" transform="translate(-255.5 -60.833)">
    <path id="Path_125587" data-name="Path 125587" d="M263.061,60.833a4.561,4.561,0,1,0,4.561,4.561A4.561,4.561,0,0,0,263.061,60.833ZM259.8,65.394a3.258,3.258,0,1,1,3.258,3.258A3.258,3.258,0,0,1,259.8,65.394Z" transform="translate(0.91 0)" fill="#007066" fill-rule="evenodd"/>
    <path id="Path_125588" data-name="Path 125588" d="M269.382,70.423c-.141-.08-.266-.15-.366-.21a9.917,9.917,0,0,0-10.089,0c-.1.06-.225.131-.367.21a10.9,10.9,0,0,0-2.2,1.505,2.626,2.626,0,0,0-.852,1.544,2.233,2.233,0,0,0,.811,1.869,5.477,5.477,0,0,0,3.82,1.747h7.66a5.477,5.477,0,0,0,3.82-1.747,2.232,2.232,0,0,0,.809-1.869,2.617,2.617,0,0,0-.851-1.544A10.87,10.87,0,0,0,269.382,70.423Zm-9.788.909a8.612,8.612,0,0,1,8.755,0c.146.087.306.178.473.272a9.171,9.171,0,0,1,1.847,1.255,1.359,1.359,0,0,1,.467.754c.017.155-.022.411-.413.783a4.193,4.193,0,0,1-2.92,1.387h-7.66a4.191,4.191,0,0,1-2.92-1.387c-.391-.373-.431-.628-.414-.783a1.371,1.371,0,0,1,.468-.754A9.165,9.165,0,0,1,259.12,71.6C259.287,71.51,259.447,71.419,259.593,71.332Z" transform="translate(0 2.425)" fill="#007066" fill-rule="evenodd"/>
  </g>
</svg>
