<svg xmlns="http://www.w3.org/2000/svg" width="60" height="60" viewBox="0 0 60 60">
  <g id="IconServ7" transform="translate(-3.591 -2.5)">
    <path id="Path_137347" data-name="Path 137347" d="M63.59,13.115a1.583,1.583,0,0,0-1.119-1.5L34.09,2.578a1.648,1.648,0,0,0-1,0L4.706,11.617a1.583,1.583,0,0,0-1.115,1.5v3.5c0,21.99,12.15,40.83,29.546,45.818a1.653,1.653,0,0,0,.91,0c17.4-4.991,29.544-23.832,29.544-45.821Zm-30,46.157C17.805,54.474,6.822,37.017,6.822,16.616V14.262L33.591,5.739l26.768,8.523v2.353C60.358,37.017,49.376,54.474,33.591,59.273Z" transform="translate(0 0)" fill="#cca079"/>
    <g id="Group_125197" data-name="Group 125197">
      <path id="Path_137346" data-name="Path 137346" d="M51.413,32.692V29.128a8.975,8.975,0,0,0-17.945,0v3.564a6.789,6.789,0,0,0-4.847,6.448v10.9a3.234,3.234,0,0,0,3.266,3.191H52.994a3.234,3.234,0,0,0,3.266-3.191V39.14a6.789,6.789,0,0,0-4.846-6.448ZM36.7,29.128a5.742,5.742,0,0,1,11.481,0v3.254H36.7ZM53.028,50.037a.034.034,0,0,1-.034.033l-21.14-.033V39.14a3.648,3.648,0,0,1,3.685-3.6h13.8a3.648,3.648,0,0,1,3.684,3.6Z" transform="translate(-8.85 -6.581)" fill="#007066"/>
      <path id="Path_137348" data-name="Path 137348" d="M48.332,48.648A3.035,3.035,0,0,0,45.4,50.8a2.942,2.942,0,0,0,1.316,3.345v2.082a1.616,1.616,0,0,0,3.232,0V54.145A2.942,2.942,0,0,0,51.265,50.8a3.035,3.035,0,0,0-2.933-2.153Zm0,2.805h.009Z" transform="translate(-14.741 -17.003)" fill="#007066"/>
    </g>
  </g>
</svg>
