<svg xmlns="http://www.w3.org/2000/svg" xmlns:xlink="http://www.w3.org/1999/xlink" width="60" height="60" viewBox="0 0 60 60">
  <defs>
    <clipPath id="clip-path">
      <path id="Path_54299" data-name="Path 54299" d="M0,0H49.626l.628,41.493H42.507V7.466H0Z" fill="#fff" stroke="#cca079" stroke-width="2.2"/>
    </clipPath>
  </defs>
  <g id="IconServ5" transform="translate(-2 15.14)">
    <rect id="base" width="59.656" height="60" transform="translate(2 -15.14)" fill="none"/>
    <g id="Group_125195" data-name="Group 125195" transform="translate(2 -9.14)">
      <g id="Group_125193" data-name="Group 125193" transform="translate(8)">
        <g id="Mask_Group_1" data-name="Mask Group 1" transform="translate(1.746)" clip-path="url(#clip-path)">
          <path id="Path_54298" data-name="Path 54298" d="M37.567,40.929H13.856C4.371,40.929,2,38.822,2,30.393V13.536C2,5.107,4.371,3,13.856,3H37.567c9.484,0,11.856,2.107,11.856,10.536V30.393C49.422,38.822,47.051,40.929,37.567,40.929Z" transform="translate(-0.698 -2.054)" fill="none" stroke="#cca079" stroke-linecap="round" stroke-linejoin="round" stroke-width="2.2"/>
        </g>
        <path id="Path_54296" data-name="Path 54296" d="M10.43,15.3a3.815,3.815,0,1,0-3.74-3.814A3.777,3.777,0,0,0,10.43,15.3Z" transform="translate(-2.859 12.242)" fill="none" stroke="#cca079" stroke-linecap="round" stroke-linejoin="round" stroke-width="2.2"/>
        <path id="Path_54297" data-name="Path 54297" d="M19.465,19.383A6.3,6.3,0,0,0,13.8,13.652a15.645,15.645,0,0,0-3.141,0A6.321,6.321,0,0,0,5,19.383" transform="translate(-5 18.777)" fill="none" stroke="#cca079" stroke-linecap="round" stroke-linejoin="round" stroke-width="2.2"/>
      </g>
      <g id="Group_125194" data-name="Group 125194" transform="translate(0 10.071)">
        <g id="Path_54292" data-name="Path 54292" transform="translate(-2 -3)" fill="none" stroke-linecap="round" stroke-linejoin="round">
          <path d="M39.3,40.929H14.433C4.487,40.929,2,38.822,2,30.393V13.536C2,5.107,4.487,3,14.433,3H39.3c9.946,0,12.433,2.107,12.433,10.536V30.393C51.731,38.822,49.244,40.929,39.3,40.929Z" stroke="none"/>
          <path d="M 39.2982292175293 38.72865676879883 C 43.89926147460938 38.72865676879883 46.52812194824219 38.23965454101562 47.82210922241211 37.14310455322266 C 49.01990127563477 36.1280632019043 49.53096008300781 34.10932540893555 49.53096008300781 30.39291572570801 L 49.53096008300781 13.53573513031006 C 49.53096008300781 9.819324493408203 49.01990127563477 7.80058479309082 47.82210922241211 6.785544872283936 C 46.52812194824219 5.688994884490967 43.89926147460938 5.199995040893555 39.2982292175293 5.199995040893555 L 14.43274021148682 5.199995040893555 C 9.831710815429688 5.199995040893555 7.202850341796875 5.688994884490967 5.908860206604004 6.785544872283936 C 4.711060523986816 7.80058479309082 4.200000286102295 9.819334983825684 4.200000286102295 13.53573513031006 L 4.200000286102295 30.39291572570801 C 4.200000286102295 34.10931396484375 4.711060523986816 36.1280632019043 5.908860206604004 37.14310455322266 C 7.202850341796875 38.23965454101562 9.831710815429688 38.72865676879883 14.43274021148682 38.72865676879883 L 39.2982292175293 38.72865676879883 M 39.2982292175293 40.92865371704102 L 14.43274021148682 40.92865371704102 C 4.486550331115723 40.92865371704102 2.000000476837158 38.82150650024414 2.000000476837158 30.39291572570801 L 2.000000476837158 13.53573513031006 C 2.000000476837158 5.107144832611084 4.486550331115723 2.999994993209839 14.43274021148682 2.999994993209839 L 39.2982292175293 2.999994993209839 C 49.24441909790039 2.999994993209839 51.73096084594727 5.107144832611084 51.73096084594727 13.53573513031006 L 51.73096084594727 30.39291572570801 C 51.73096084594727 38.82150650024414 49.24441909790039 40.92865371704102 39.2982292175293 40.92865371704102 Z" stroke="none" fill="#007066"/>
        </g>
        <path id="Path_54293" data-name="Path 54293" d="M14,8H27.578" transform="translate(14.737 2.536)" fill="none" stroke="#007066" stroke-linecap="round" stroke-linejoin="round" stroke-width="2.2"/>
        <path id="Path_54294" data-name="Path 54294" d="M15,12h8.32" transform="translate(18.995 6.964)" fill="none" stroke="#007066" stroke-linecap="round" stroke-linejoin="round" stroke-width="2.2"/>
        <path id="Path_54295" data-name="Path 54295" d="M17,16h4.16" transform="translate(21.155 11.393)" fill="none" stroke="#007066" stroke-linecap="round" stroke-linejoin="round" stroke-width="2.2"/>
      </g>
    </g>
  </g>
</svg>
