<svg id="IconServ1" xmlns="http://www.w3.org/2000/svg" width="60" height="60" viewBox="0 0 60 60">
  <g id="Group_125183" data-name="Group 125183">
    <g id="Group_125184" data-name="Group 125184">
      <path id="Path_48923" data-name="Path 48923" d="M210.711,205.334a5.373,5.373,0,1,0-5.37,5.377,5.376,5.376,0,0,0,5.37-5.377m-5.37,3.5a3.5,3.5,0,1,1,3.495-3.5,3.506,3.506,0,0,1-3.495,3.5" transform="translate(-175.338 -175.337)" fill="#cca079"/>
      <path id="Path_48925" data-name="Path 48925" d="M39.684,115.779h5.45a.937.937,0,1,0,0-1.875H40.622v-4.869a2.641,2.641,0,1,0-1.875,0v5.806A.937.937,0,0,0,39.684,115.779Zm0-9.962a.761.761,0,1,1-.765.765.766.766,0,0,1,.765-.765" transform="translate(-32.482 -91.141)" fill="#cca079"/>
      <path id="Path_48927" data-name="Path 48927" d="M5.1,225.759h7.552a.937.937,0,1,0,0-1.875H5.1a2.635,2.635,0,1,0,0,1.875m-2.461-.176a.762.762,0,1,1,.765-.758.762.762,0,0,1-.765.758" transform="translate(0 -194.822)" fill="#cca079"/>
      <path id="Path_48928" data-name="Path 48928" d="M377.777,115.779h5.45a.937.937,0,0,0,.937-.937v-5.806a2.641,2.641,0,1,0-1.875,0V113.9h-4.513a.938.938,0,0,0,0,1.875Zm5.45-9.962a.761.761,0,1,1-.765.765.766.766,0,0,1,.765-.765" transform="translate(-330.43 -91.141)" fill="#cca079"/>
      <path id="Path_48930" data-name="Path 48930" d="M387.79,222.184a2.639,2.639,0,0,0-2.459,1.7h-7.553a.937.937,0,1,0,0,1.875h7.552a2.637,2.637,0,1,0,2.461-3.574m0,3.4a.762.762,0,1,1,.765-.758.762.762,0,0,1-.765.758" transform="translate(-330.43 -194.821)" fill="#cca079"/>
      <path id="Path_48931" data-name="Path 48931" d="M114.84,46.071a.937.937,0,0,0,.937-.937v-5.45a.937.937,0,0,0-.937-.937h-5.807a2.64,2.64,0,1,0,0,1.875H113.9v4.513a.937.937,0,0,0,.937.938m-8.267-5.622a.765.765,0,1,1,.765-.765.762.762,0,0,1-.765.765" transform="translate(-91.14 -32.481)" fill="#cca079"/>
      <path id="Path_48932" data-name="Path 48932" d="M224.822,13.59a.937.937,0,0,0,.937-.937V5.1a2.634,2.634,0,1,0-1.875,0v7.551A.937.937,0,0,0,224.822,13.59Zm0-11.715a.765.765,0,1,1-.757.765A.766.766,0,0,1,224.817,1.875Z" transform="translate(-194.822)" fill="#cca079"/>
      <path id="Path_48933" data-name="Path 48933" d="M298.965,39.683a2.631,2.631,0,0,0-5.093-.937h-5.807a.937.937,0,0,0-.937.937v5.45a.937.937,0,1,0,1.875,0V40.621h4.87a2.631,2.631,0,0,0,5.093-.938m-2.64.765a.765.765,0,1,1,.765-.765.762.762,0,0,1-.765.765" transform="translate(-251.766 -32.481)" fill="#cca079"/>
    </g>
    <g id="Group_125185" data-name="Group 125185">
      <path id="Path_48924" data-name="Path 48924" d="M144.1,155.3a14.642,14.642,0,0,0,4.71-1.963.938.938,0,0,0,.227-1.376,2.078,2.078,0,0,1,2.921-2.921.937.937,0,0,0,1.376-.227A14.481,14.481,0,0,0,155.3,144.1a.937.937,0,0,0-.81-1.132,2.078,2.078,0,0,1,0-4.134.937.937,0,0,0,.815-1.136,14.8,14.8,0,0,0-1.954-4.708.94.94,0,0,0-1.375-.233,2.083,2.083,0,0,1-2.93-2.93.937.937,0,0,0-.232-1.375A14.793,14.793,0,0,0,144.1,126.5a.937.937,0,0,0-1.136.814,2.078,2.078,0,0,1-4.133,0,.937.937,0,0,0-1.132-.81,14.457,14.457,0,0,0-4.715,1.956.938.938,0,0,0-.228,1.375,2.078,2.078,0,0,1-2.922,2.922.939.939,0,0,0-1.375.228,14.654,14.654,0,0,0-1.962,4.71.937.937,0,0,0,.815,1.136,2.078,2.078,0,0,1,0,4.134.936.936,0,0,0-.81,1.131,14.474,14.474,0,0,0,1.956,4.715.938.938,0,0,0,1.376.228,2.077,2.077,0,0,1,2.921,2.921.939.939,0,0,0,.228,1.376,14.464,14.464,0,0,0,4.715,1.956.937.937,0,0,0,1.132-.81,2.078,2.078,0,0,1,4.133,0A.937.937,0,0,0,144.1,155.3Zm-3.2-4.55a3.956,3.956,0,0,0-3.674,2.488,12.555,12.555,0,0,1-2.455-1.022,3.953,3.953,0,0,0-5.192-5.19,12.591,12.591,0,0,1-1.021-2.456,3.953,3.953,0,0,0,0-7.344,12.678,12.678,0,0,1,1.024-2.454,3.952,3.952,0,0,0,5.19-5.191,12.593,12.593,0,0,1,2.457-1.021,3.952,3.952,0,0,0,7.343,0,12.852,12.852,0,0,1,2.454,1.021,3.954,3.954,0,0,0,5.193,5.194,12.882,12.882,0,0,1,1.021,2.454,3.952,3.952,0,0,0,0,7.344,12.646,12.646,0,0,1-1.022,2.456,3.952,3.952,0,0,0-5.19,5.19,12.763,12.763,0,0,1-2.454,1.025,3.944,3.944,0,0,0-3.669-2.491" transform="translate(-110.902 -110.899)" fill="#007066"/>
      <path id="Path_48926" data-name="Path 48926" d="M45.133,289.01a.937.937,0,1,0,0-1.875h-5.45a.937.937,0,0,0-.937.937v5.807a2.64,2.64,0,1,0,1.875,0V289.01Zm-5.45,8.087a.761.761,0,1,1,.765-.757.762.762,0,0,1-.765.757" transform="translate(-32.481 -251.773)" fill="#007066"/>
      <path id="Path_48929" data-name="Path 48929" d="M383.228,287.134h-5.45a.937.937,0,1,0,0,1.875h4.513v4.869a2.64,2.64,0,1,0,1.875,0v-5.807a.937.937,0,0,0-.937-.937m0,9.962a.761.761,0,1,1,.765-.757.762.762,0,0,1-.765.757" transform="translate(-330.43 -251.772)" fill="#007066"/>
      <path id="Path_48934" data-name="Path 48934" d="M288.072,384.165h5.806a2.64,2.64,0,1,0,0-1.875H289.01v-4.513a.937.937,0,1,0-1.875,0v5.45a.937.937,0,0,0,.937.937m8.259-1.7a.765.765,0,1,1-.757.765.766.766,0,0,1,.757-.765" transform="translate(-251.772 -330.43)" fill="#007066"/>
      <path id="Path_48935" data-name="Path 48935" d="M224.822,376.839a.937.937,0,0,0-.937.938v7.551a2.638,2.638,0,1,0,1.875,0v-7.553a.937.937,0,0,0-.937-.937m0,11.715a.765.765,0,1,1,.765-.765A.762.762,0,0,1,224.817,388.554Z" transform="translate(-194.822 -330.429)" fill="#007066"/>
      <path id="Path_48936" data-name="Path 48936" d="M106.573,385.868a2.639,2.639,0,0,0,2.46-1.7h5.807a.937.937,0,0,0,.937-.937v-5.45a.937.937,0,1,0-1.875,0v4.513h-4.869a2.634,2.634,0,1,0-2.46,3.578m0-3.406a.765.765,0,1,1-.757.765.766.766,0,0,1,.757-.765" transform="translate(-91.14 -330.43)" fill="#007066"/>
    </g>
  </g>
</svg>
