<svg xmlns="http://www.w3.org/2000/svg" width="60" height="60" viewBox="0 0 60 60">
  <g id="IconServ8" transform="translate(-0.474 -0.475)">
    <rect id="base" width="60" height="60" transform="translate(0.474 0.475)" fill="none"/>
    <g id="Group_58877" data-name="Group 58877" transform="translate(2.062 2.063)">
      <path id="Path_137353" data-name="Path 137353" d="M-39.595-39.595-43.44-43.44" transform="translate(49.005 49.006)" fill="none" stroke="#cca079" stroke-linecap="round" stroke-linejoin="round" stroke-miterlimit="10" stroke-width="2.5"/>
      <path id="Path_137354" data-name="Path 137354" d="M-54.1-14.4l-5.254-1.4" transform="translate(59.353 31.024)" fill="none" stroke="#cca079" stroke-linecap="round" stroke-linejoin="round" stroke-miterlimit="10" stroke-width="2.5"/>
      <path id="Path_137355" data-name="Path 137355" d="M0,0,1.4,5.254" transform="translate(15.225)" fill="none" stroke="#cca079" stroke-linecap="round" stroke-linejoin="round" stroke-miterlimit="10" stroke-width="2.5"/>
      <path id="Path_137356" data-name="Path 137356" d="M0-59.684,3.505-63.19a7.823,7.823,0,0,1,11.063,0,7.8,7.8,0,0,1,2.291,5.532,7.8,7.8,0,0,1-2.291,5.53l-3.505,3.505" transform="translate(18.763 72.917)" fill="none" stroke="#cca079" stroke-linecap="round" stroke-linejoin="round" stroke-miterlimit="10" stroke-width="2.5"/>
      <path id="Path_137357" data-name="Path 137357" d="M-173.6-113.92l-3.505,3.505a7.823,7.823,0,0,1-11.063,0,7.8,7.8,0,0,1-2.291-5.532,7.8,7.8,0,0,1,2.291-5.53l3.505-3.505" transform="translate(197.896 143.745)" fill="none" stroke="#cca079" stroke-linecap="round" stroke-linejoin="round" stroke-miterlimit="10" stroke-width="2.5"/>
      <path id="Path_137358" data-name="Path 137358" d="M0-100.665l9.776-9.776" transform="translate(16.64 127.082)" fill="none" stroke="#cca079" stroke-linecap="round" stroke-linejoin="round" stroke-miterlimit="10" stroke-width="2.5"/>
    </g>
    <path id="Path_137359" data-name="Path 137359" d="M-255.872-65.016-263.52-60.4-259-54.6a3.557,3.557,0,0,1-.289,4.7h0a3.557,3.557,0,0,1-4.7.289l-5.794-4.52-4.619,7.648-6.315-24.847Z" transform="translate(314.758 105.372)" fill="none" stroke="#007066" stroke-linecap="round" stroke-linejoin="round" stroke-miterlimit="10" stroke-width="2.5"/>
  </g>
</svg>
