<svg xmlns="http://www.w3.org/2000/svg" width="60" height="60" viewBox="0 0 60 60">
  <g id="IconServ6" transform="translate(-838 -1005)">
    <rect id="base" width="60" height="60" transform="translate(838 1005)" fill="none"/>
    <path id="Path_125351" data-name="Path 125351" d="M24.674,46.756V23.161h-7.26V46.756ZM6.631,34.264v-11.1H14V35.439c0,8.648-5.872,11.317-10.89,11.317A9.184,9.184,0,0,1,1.4,46.649l.641-7.367h.747C3.535,39.389,6.631,39.389,6.631,34.264ZM56.169,46.756v-11.1c0-5.125,3.2-5.018,3.843-5.018h.747l.641-7.367a9.184,9.184,0,0,0-1.708-.107c-5.018,0-10.89,2.669-10.89,11.317V46.756ZM40.048,32.77A8.4,8.4,0,0,1,44.1,35.439a6.239,6.239,0,0,1,1.281,3.95c0,4.591-3.737,7.26-8.861,7.26-4.484,0-7.794-2.028-8.541-6.512l5.658-1.708v.107a2.778,2.778,0,0,0,2.669,2.242,1.614,1.614,0,0,0,1.815-1.495c0-.427-.214-1.068-1.388-1.495l-.534-.214-2.669-1.068a7.664,7.664,0,0,1-4.057-2.989,6.39,6.39,0,0,1-1.068-3.737c0-4.377,3.843-6.94,8.221-6.94,4.164,0,7.26,2.456,8.007,6.085l-5.552,1.6h0C38.66,28.82,37.592,28.5,36.952,28.5c-1.174,0-1.495.747-1.495,1.281s.214,1.068,1.388,1.388c.107,0,.107,0,.214.107Z" transform="translate(836.6 1004.7)" fill="#007066" fill-rule="evenodd"/>
    <path id="Path_125352" data-name="Path 125352" d="M22.432,14.62a3.167,3.167,0,0,0-2.776,0,3.028,3.028,0,0,0-1.174.854,2.562,2.562,0,0,0-.747,1.281,3.41,3.41,0,0,0-.32,1.495,4.212,4.212,0,0,0,1.068,2.669,3.311,3.311,0,0,0,2.562,1.068,3.728,3.728,0,0,0,2.562-1.068,4.212,4.212,0,0,0,1.068-2.669,3.768,3.768,0,0,0-.32-1.495,7.963,7.963,0,0,0-.747-1.281A2.239,2.239,0,0,0,22.432,14.62Z" transform="translate(836.6 1004.7)" fill="#cca079" fill-rule="evenodd"/>
  </g>
</svg>
