<svg xmlns="http://www.w3.org/2000/svg" width="60" height="60" viewBox="0 0 60 60">
  <g id="IconServ9" transform="translate(-2.001 -2.001)">
    <path id="Path_137351" data-name="Path 137351" d="M38.8,58.856a1.347,1.347,0,0,0-.184-.559,1.363,1.363,0,0,0-1.876-.446,9.356,9.356,0,0,1-3.376,1.3V45.635h2.2a1.363,1.363,0,1,0,0-2.727h-2.2V33.362h3.2a1.363,1.363,0,1,0,0-2.727h-3.2V21.089H45.739A46.748,46.748,0,0,1,47,32a1.363,1.363,0,0,0,1.363,1.363H59.2a26.5,26.5,0,0,1-.5,4.15,1.365,1.365,0,0,0,2.669.566A29.362,29.362,0,0,0,62,32,30,30,0,1,0,32,62a29.046,29.046,0,0,0,6.338-.688A1.358,1.358,0,0,0,38.8,58.86Zm-8.164.29c-4.962-.815-9.224-6.048-11.608-13.51H30.636Zm0-16.24H18.262a46.34,46.34,0,0,1-1.223-9.545h13.6ZM4.8,33.364h9.515a49.414,49.414,0,0,0,1.147,9.545H7.021A27.051,27.051,0,0,1,4.8,33.364ZM7.022,21.091H15.46a49.414,49.414,0,0,0-1.147,9.545H4.8a27.05,27.05,0,0,1,2.224-9.545Zm23.615,9.545h-13.6a46.339,46.339,0,0,1,1.223-9.545H30.636Zm0-25.784V18.364H19.029C21.411,10.9,25.674,5.671,30.636,4.853Zm2.727,13.511V4.853c4.962.818,9.224,6.049,11.607,13.511ZM48.542,21.09h8.435A27.05,27.05,0,0,1,59.2,30.635H49.711a49.173,49.173,0,0,0-1.169-9.545Zm7.041-2.727H47.835A28.981,28.981,0,0,0,41.358,6.417,27.388,27.388,0,0,1,55.582,18.364ZM22.657,6.412a28.927,28.927,0,0,0-6.492,11.952H8.417A27.383,27.383,0,0,1,22.657,6.411ZM8.417,45.636h7.747a28.927,28.927,0,0,0,6.492,11.952A27.379,27.379,0,0,1,8.417,45.636Z" fill="#cca079"/>
    <path id="Path_137352" data-name="Path 137352" d="M50.635,34.062,32.985,25.589a2.732,2.732,0,0,0-3.9,2.729L31.01,47.8a2.729,2.729,0,0,0,4.73,1.575L38.2,46.7l3.2,4.573a4.1,4.1,0,0,0,5.7,1.006l2.234-1.568A4.1,4.1,0,0,0,50.342,45l-3.2-4.573,3.354-1.387a2.73,2.73,0,0,0,.138-4.985Zm-6.11,4.5a1.368,1.368,0,0,0-.593,2.045l4.178,5.965a1.368,1.368,0,0,1-.335,1.9L45.534,50.04a1.365,1.365,0,0,1-1.9-.335L39.454,43.74A1.363,1.363,0,0,0,37.33,43.6l-3.6,3.934L31.806,28.051l17.648,8.473-4.927,2.038Z" transform="translate(9.816 8.446)" fill="#007066"/>
  </g>
</svg>
