<svg xmlns="http://www.w3.org/2000/svg" width="62.235" height="62.2" viewBox="0 0 62.235 62.2">
  <g id="IconServ3" transform="translate(1.118 1.1)">
    <g id="Group_125190" data-name="Group 125190">
      <path id="Path_48945" data-name="Path 48945" d="M276.141,189.489l4.209-11.641a2.94,2.94,0,0,1,3.238-2.094,2.892,2.892,0,0,1,2.388,3.321l-3.861,16.007A20.7,20.7,0,0,1,275.1,205.8l-6.672,4.922v2.9a1.239,1.239,0,0,1-1.22,1.258H256.021v-7.3a14.8,14.8,0,0,1,6.928-13.109l9.154-6.059a2.725,2.725,0,0,1,1.51-.458,2.756,2.756,0,0,1,1.981.847,2.951,2.951,0,0,1,.048,4.027l-6.164,5.013" transform="translate(-226.002 -154.88)" fill="none" stroke="#007066" stroke-linecap="round" stroke-linejoin="round" stroke-width="2.2"/>
      <path id="Path_48946" data-name="Path 48946" d="M26.524,197.845l-6.164-5.013a2.951,2.951,0,0,1,.048-4.027,2.756,2.756,0,0,1,1.981-.847,2.725,2.725,0,0,1,1.51.458l9.154,6.059a14.8,14.8,0,0,1,6.928,13.109v7.3H28.792a1.239,1.239,0,0,1-1.22-1.258v-2.9L20.9,205.8a20.7,20.7,0,0,1-7.014-10.714l-3.862-16.007a2.892,2.892,0,0,1,2.388-3.321,2.94,2.94,0,0,1,3.238,2.094l4.209,11.641" transform="translate(-10 -154.88)" fill="none" stroke="#007066" stroke-linecap="round" stroke-linejoin="round" stroke-width="2.2"/>
    </g>
    <g id="Group_125189" data-name="Group 125189">
      <path id="Path_48947" data-name="Path 48947" d="M190.626,178.871h-1.544a1.239,1.239,0,0,1-1.22-1.258v-6.742a4.867,4.867,0,0,1,4.791-4.94h7.037a4.867,4.867,0,0,1,4.791,4.94v6.742a1.239,1.239,0,0,1-1.22,1.258h-1.524" transform="translate(-166.173 -146.322)" fill="none" stroke="#cca079" stroke-linecap="round" stroke-linejoin="round" stroke-width="2.2"/>
      <ellipse id="Ellipse_297" data-name="Ellipse 297" cx="5.655" cy="5.831" rx="5.655" ry="5.831" transform="translate(24.345 7.947)" fill="none" stroke="#cca079" stroke-linecap="round" stroke-linejoin="round" stroke-width="2.2"/>
      <path id="Path_48948" data-name="Path 48948" d="M303.737,102.74h7.313a4.867,4.867,0,0,1,4.791,4.94v6.659a1.32,1.32,0,0,1-1.3,1.34h-8.323" transform="translate(-267.916 -91.078)" fill="none" stroke="#cca079" stroke-linecap="round" stroke-linejoin="round" stroke-width="2.2"/>
      <ellipse id="Ellipse_298" data-name="Ellipse 298" cx="5.655" cy="5.831" rx="5.655" ry="5.831" transform="translate(33.961)" fill="none" stroke="#cca079" stroke-linecap="round" stroke-linejoin="round" stroke-width="2.2"/>
      <path id="Path_48949" data-name="Path 48949" d="M118.636,115.68h-8.323a1.32,1.32,0,0,1-1.3-1.34V107.68a4.867,4.867,0,0,1,4.791-4.94h7.48" transform="translate(-96.938 -91.078)" fill="none" stroke="#cca079" stroke-linecap="round" stroke-linejoin="round" stroke-width="2.2"/>
      <ellipse id="Ellipse_299" data-name="Ellipse 299" cx="5.655" cy="5.831" rx="5.655" ry="5.831" transform="translate(14.729)" fill="none" stroke="#cca079" stroke-linecap="round" stroke-linejoin="round" stroke-width="2.2"/>
      <line id="Line_1" data-name="Line 1" transform="translate(30 32.549)" fill="none" stroke="#cca079" stroke-linecap="round" stroke-linejoin="round" stroke-width="2.2"/>
    </g>
  </g>
</svg>
