<svg xmlns="http://www.w3.org/2000/svg" width="16.34" height="16.34" viewBox="0 0 16.34 16.34">
  <path id="IconDownload" d="M6.893,0H9.446a.764.764,0,0,1,.766.766V6.127h2.8a.637.637,0,0,1,.45,1.088L8.607,12.073a.618.618,0,0,1-.871,0L2.875,7.216a.637.637,0,0,1,.45-1.088h2.8V.766A.764.764,0,0,1,6.893,0ZM16.34,12v3.574a.764.764,0,0,1-.766.766H.766A.764.764,0,0,1,0,15.574V12a.764.764,0,0,1,.766-.766H5.448L7.011,12.8a1.635,1.635,0,0,0,2.317,0l1.564-1.564h4.682A.764.764,0,0,1,16.34,12Zm-3.957,2.808a.638.638,0,1,0-.638.638A.64.64,0,0,0,12.382,14.808Zm2.042,0a.638.638,0,1,0-.638.638A.64.64,0,0,0,14.425,14.808Z" fill="#cca079"/>
</svg>
