<svg xmlns="http://www.w3.org/2000/svg" width="60" height="60" viewBox="0 0 60 60">
  <g id="IconServ2" transform="translate(-0.18 -0.142)">
    <g id="Group_125186" data-name="Group 125186" transform="translate(0.18 0.142)">
      <g id="Group_125187" data-name="Group 125187" transform="translate(22.969)">
        <path id="Path_48938" data-name="Path 48938" d="M216,0h-2.966a17.033,17.033,0,1,0,0,34.065H216a17.065,17.065,0,0,0,4.323-.554L224.7,37.89a1.172,1.172,0,0,0,2-.829v-6.78a17.2,17.2,0,0,0,4.477-5.52,16.849,16.849,0,0,0,1.851-7.729A17.052,17.052,0,0,0,216,0m8.828,28.774a1.172,1.172,0,0,0-.467.936v4.523l-2.868-2.866a1.171,1.171,0,0,0-1.173-.291,14.693,14.693,0,0,1-4.32.646h-2.966a14.689,14.689,0,1,1,0-29.378H216a14.689,14.689,0,0,1,8.828,26.43" transform="translate(-196)" fill="#cca079"/>
        <path id="Path_48939" data-name="Path 48939" d="M324.373,74.675a4.962,4.962,0,0,0-9.911.349,1.172,1.172,0,0,0,2.344,0,2.618,2.618,0,0,1,2.806-2.611A2.618,2.618,0,0,1,320,77.579a2.218,2.218,0,0,0-1.747,2.174v2.815a1.172,1.172,0,1,0,2.344,0V79.847a4.936,4.936,0,0,0,3.777-5.171" transform="translate(-300.58 -61.852)" fill="#cca079"/>
        <path id="Path_48940" data-name="Path 48940" d="M348.8,206.673a1.173,1.173,0,1,0,.343.829,1.181,1.181,0,0,0-.343-.829" transform="translate(-329.128 -182.151)" fill="#cca079"/>
      </g>
      <g id="Group_125188" data-name="Group 125188" transform="translate(0 20.391)">
        <path id="Path_48937" data-name="Path 48937" d="M40.547,190.992a1.172,1.172,0,0,0-1.172,1.172v8.086a5.866,5.866,0,0,1-5.859,5.859H20.863a1.172,1.172,0,0,0-1.172,1.171l0,2.33-2.8-2.8a1.172,1.172,0,0,0-1.075-.7H8.2a5.866,5.866,0,0,1-5.859-5.859V182.2A5.866,5.866,0,0,1,8.2,176.344H20.039a1.172,1.172,0,0,0,0-2.344H8.2A8.212,8.212,0,0,0,0,182.2V200.25a8.212,8.212,0,0,0,8.2,8.2h7.015l4.813,4.813a1.172,1.172,0,0,0,2-.828l0-3.985H33.516a8.212,8.212,0,0,0,8.2-8.2v-8.086a1.172,1.172,0,0,0-1.172-1.172" transform="translate(0 -174)" fill="#007066"/>
        <path id="Path_48941" data-name="Path 48941" d="M79.9,310H55.172a1.172,1.172,0,0,0,0,2.344H79.9a1.172,1.172,0,0,0,0-2.344" transform="translate(-47.672 -294.062)" fill="#007066"/>
        <path id="Path_48942" data-name="Path 48942" d="M267,366.343a1.171,1.171,0,1,0,.343.828,1.18,1.18,0,0,0-.343-.828" transform="translate(-233.945 -343.5)" fill="#007066"/>
        <path id="Path_48943" data-name="Path 48943" d="M75.289,366H55.172a1.172,1.172,0,0,0,0,2.344H75.289a1.172,1.172,0,0,0,0-2.344" transform="translate(-47.672 -343.5)" fill="#007066"/>
        <path id="Path_48944" data-name="Path 48944" d="M72.281,254H55.172a1.172,1.172,0,1,0,0,2.344H72.281a1.172,1.172,0,0,0,0-2.344" transform="translate(-47.672 -244.625)" fill="#007066"/>
      </g>
    </g>
  </g>
</svg>
