<svg xmlns="http://www.w3.org/2000/svg" width="17.673" height="17.673" viewBox="0 0 17.673 17.673">
  <path id="DownLoad" d="M7.456,0h2.761a.826.826,0,0,1,.828.828v5.8h3.027A.689.689,0,0,1,14.56,7.8l-5.25,5.254a.669.669,0,0,1-.942,0L3.11,7.8A.689.689,0,0,1,3.6,6.627H6.627V.828A.826.826,0,0,1,7.456,0ZM17.673,12.979v3.866a.826.826,0,0,1-.828.828H.828A.826.826,0,0,1,0,16.845V12.979a.826.826,0,0,1,.828-.828H5.892l1.691,1.691a1.769,1.769,0,0,0,2.506,0l1.691-1.691h5.064A.826.826,0,0,1,17.673,12.979Zm-4.28,3.038a.69.69,0,1,0-.69.69A.692.692,0,0,0,13.393,16.016Zm2.209,0a.69.69,0,1,0-.69.69A.692.692,0,0,0,15.6,16.016Z" fill="#fff"/>
</svg>
