<svg xmlns="http://www.w3.org/2000/svg" width="19.5" height="21.5" viewBox="0 0 19.5 21.5">
  <g id="calendar-2" transform="translate(0.75 0.75)">
    <path id="Path_124956" data-name="Path 124956" d="M8,2V5" transform="translate(-3 -2)" fill="none" stroke="#fff" stroke-linecap="round" stroke-linejoin="round" stroke-miterlimit="10" stroke-width="1.5"/>
    <path id="Path_124957" data-name="Path 124957" d="M16,2V5" transform="translate(-3 -2)" fill="none" stroke="#fff" stroke-linecap="round" stroke-linejoin="round" stroke-miterlimit="10" stroke-width="1.5"/>
    <path id="Path_124958" data-name="Path 124958" d="M3.5,9.09h17" transform="translate(-3 -2)" fill="none" stroke="#fff" stroke-linecap="round" stroke-linejoin="round" stroke-miterlimit="10" stroke-width="1.5"/>
    <path id="Path_124959" data-name="Path 124959" d="M21,8.5V17c0,3-1.5,5-5,5H8c-3.5,0-5-2-5-5V8.5c0-3,1.5-5,5-5h8C19.5,3.5,21,5.5,21,8.5Z" transform="translate(-3 -2)" fill="none" stroke="#fff" stroke-linecap="round" stroke-linejoin="round" stroke-miterlimit="10" stroke-width="1.5"/>
    <path id="Path_124960" data-name="Path 124960" d="M12,13.7H12" transform="translate(-3 -2)" fill="none" stroke="#fff" stroke-linecap="round" stroke-linejoin="round" stroke-width="2"/>
    <path id="Path_124961" data-name="Path 124961" d="M8.294,13.7H8.3" transform="translate(-3 -2)" fill="none" stroke="#fff" stroke-linecap="round" stroke-linejoin="round" stroke-width="2"/>
    <path id="Path_124962" data-name="Path 124962" d="M8.294,16.7H8.3" transform="translate(-3 -2)" fill="none" stroke="#fff" stroke-linecap="round" stroke-linejoin="round" stroke-width="2"/>
  </g>
</svg>
