<svg xmlns="http://www.w3.org/2000/svg" width="19.5" height="21.5" viewBox="0 0 19.5 21.5">
  <g id="calendar" transform="translate(0.75 0.75)">
    <path id="Path_124971" data-name="Path 124971" d="M8,2V5" transform="translate(-3 -2)" fill="none" stroke="#758d8b" stroke-linecap="round" stroke-linejoin="round" stroke-miterlimit="10" stroke-width="1.5"/>
    <path id="Path_124972" data-name="Path 124972" d="M16,2V5" transform="translate(-3 -2)" fill="none" stroke="#758d8b" stroke-linecap="round" stroke-linejoin="round" stroke-miterlimit="10" stroke-width="1.5"/>
    <path id="Path_124973" data-name="Path 124973" d="M3.5,9.09h17" transform="translate(-3 -2)" fill="none" stroke="#758d8b" stroke-linecap="round" stroke-linejoin="round" stroke-miterlimit="10" stroke-width="1.5"/>
    <path id="Path_124974" data-name="Path 124974" d="M21,8.5V17c0,3-1.5,5-5,5H8c-3.5,0-5-2-5-5V8.5c0-3,1.5-5,5-5h8C19.5,3.5,21,5.5,21,8.5Z" transform="translate(-3 -2)" fill="none" stroke="#758d8b" stroke-linecap="round" stroke-linejoin="round" stroke-miterlimit="10" stroke-width="1.5"/>
    <path id="Path_124975" data-name="Path 124975" d="M15.695,13.7H15.7" transform="translate(-3 -2)" fill="none" stroke="#758d8b" stroke-linecap="round" stroke-linejoin="round" stroke-width="2"/>
    <path id="Path_124976" data-name="Path 124976" d="M15.695,16.7H15.7" transform="translate(-3 -2)" fill="none" stroke="#758d8b" stroke-linecap="round" stroke-linejoin="round" stroke-width="2"/>
    <path id="Path_124977" data-name="Path 124977" d="M12,13.7H12" transform="translate(-3 -2)" fill="none" stroke="#758d8b" stroke-linecap="round" stroke-linejoin="round" stroke-width="2"/>
    <path id="Path_124978" data-name="Path 124978" d="M12,16.7H12" transform="translate(-3 -2)" fill="none" stroke="#758d8b" stroke-linecap="round" stroke-linejoin="round" stroke-width="2"/>
    <path id="Path_124979" data-name="Path 124979" d="M8.294,13.7H8.3" transform="translate(-3 -2)" fill="none" stroke="#758d8b" stroke-linecap="round" stroke-linejoin="round" stroke-width="2"/>
    <path id="Path_124980" data-name="Path 124980" d="M8.294,16.7H8.3" transform="translate(-3 -2)" fill="none" stroke="#758d8b" stroke-linecap="round" stroke-linejoin="round" stroke-width="2"/>
  </g>
</svg>
