<svg xmlns="http://www.w3.org/2000/svg" width="85.042" height="60.724" viewBox="0 0 85.042 60.724">
  <g id="horn-icon" transform="matrix(0.996, -0.087, 0.087, 0.996, -12533.548, 1362.039)">
    <path id="Path_125174" data-name="Path 125174" d="M12605.627-231.846s-.514-7.432,6.168-10.121,6.957.791,21.348-1.582,29.414-14.232,29.414-14.232V-206.7s-18.5-13.283-29.414-14.707-13.56,1.423-20.241-.949S12605.627-231.846,12605.627-231.846Z" fill="none" stroke="#fff" stroke-linejoin="round" stroke-width="3"/>
    <path id="Path_125175" data-name="Path 125175" d="M12617.646-221.093l2.847,17.079,8.276-3.958-1.635-13.753" fill="none" stroke="#fff" stroke-linejoin="round" stroke-width="3"/>
    <line id="Line_8624" data-name="Line 8624" x1="7" y2="4" transform="translate(12676.5 -247.5)" fill="none" stroke="#fff" stroke-linecap="round" stroke-width="3"/>
    <line id="Line_8625" data-name="Line 8625" x1="7" transform="translate(12678.5 -232.5)" fill="none" stroke="#fff" stroke-linecap="round" stroke-width="3"/>
    <line id="Line_8626" data-name="Line 8626" x1="7" y1="4" transform="translate(12676.5 -221.5)" fill="none" stroke="#fff" stroke-linecap="round" stroke-width="3"/>
    <path id="Path_125176" data-name="Path 125176" d="M12662.557-241.318s8.416,1.273,8.527,9.025-8.527,9.08-8.527,9.08" fill="none" stroke="#fff" stroke-linecap="round" stroke-width="3"/>
  </g>
</svg>
