<svg xmlns="http://www.w3.org/2000/svg" width="29.553" height="31.097" viewBox="0 0 29.553 31.097">
  <g id="IconExch" transform="translate(0.136 0.1)">
    <path id="Path_45795" data-name="Path 45795" d="M260.256,270.75a.519.519,0,0,1-.505-.531.559.559,0,0,1,.024-.162,5.813,5.813,0,0,1,2.521-3.315.49.49,0,0,1,.693.182.55.55,0,0,1-.172.731l-.014.009a4.761,4.761,0,0,0-2.064,2.714.509.509,0,0,1-.481.373" transform="translate(-243.358 -248.908)" fill="#758d8b" stroke="#758d8b" stroke-width="0.2"/>
    <path id="Path_45796" data-name="Path 45796" d="M36.263,46.873a.52.52,0,0,1-.5-.534.559.559,0,0,1,.023-.159A5.814,5.814,0,0,1,38.3,42.865a.491.491,0,0,1,.687.206.549.549,0,0,1-.181.716A4.76,4.76,0,0,0,36.744,46.5a.509.509,0,0,1-.481.373" transform="translate(-33.501 -39.948)" fill="#758d8b" stroke="#758d8b" stroke-width="0.2"/>
    <path id="Path_45797" data-name="Path 45797" d="M104.583,32a.533.533,0,1,1-.5.533.519.519,0,0,1,.5-.533" transform="translate(-97.509 -29.869)" fill="#758d8b" stroke="#758d8b" stroke-width="0.2"/>
    <path id="Path_45798" data-name="Path 45798" d="M328.583,256a.533.533,0,1,1-.5.533.519.519,0,0,1,.5-.533" transform="translate(-307.372 -238.953)" fill="#758d8b" stroke="#758d8b" stroke-width="0.2"/>
    <path id="Path_45799" data-name="Path 45799" d="M90.6,67.2h-1.01a.533.533,0,0,1,0-1.065h2.02a.533.533,0,0,0,0-1.065H90.6v-.533a.506.506,0,1,0-1.01,0v.533a1.6,1.6,0,0,0,0,3.2H90.6a.533.533,0,0,1,0,1.065h-2.02a.533.533,0,0,0,0,1.065h1.01v.533a.506.506,0,1,0,1.01,0v-.533a1.6,1.6,0,0,0,0-3.2" transform="translate(-82.519 -59.738)" fill="#758d8b" stroke="#758d8b" stroke-width="0.2"/>
    <path id="Path_45800" data-name="Path 45800" d="M7.651,15.981A7.79,7.79,0,0,1,.078,7.991,7.79,7.79,0,0,1,7.651,0a7.79,7.79,0,0,1,7.573,7.991,7.8,7.8,0,0,1-7.573,7.991m0-14.916A6.752,6.752,0,0,0,1.088,7.991a6.752,6.752,0,0,0,6.564,6.925,6.752,6.752,0,0,0,6.564-6.925A6.759,6.759,0,0,0,7.651,1.065" transform="translate(-0.073)" fill="#758d8b" stroke="#758d8b" stroke-width="0.2"/>
    <path id="Path_45801" data-name="Path 45801" d="M231.651,239.981a8,8,0,1,1,7.573-7.991,7.79,7.79,0,0,1-7.573,7.991m0-14.916a6.935,6.935,0,1,0,6.564,6.925,6.752,6.752,0,0,0-6.564-6.925" transform="translate(-209.936 -209.084)" fill="#758d8b" stroke="#758d8b" stroke-width="0.2"/>
    <path id="Path_45802" data-name="Path 45802" d="M300.207,300.76a1.1,1.1,0,0,1-.846.568c-.558,0-1.072-.684-1.218-1.6h1.218a.533.533,0,0,0,0-1.065h-1.218c.146-.915.659-1.6,1.218-1.6a1.1,1.1,0,0,1,.846.568.488.488,0,0,0,.7.128.552.552,0,0,0,.129-.73A2.05,2.05,0,0,0,299.361,296c-1.108,0-2.026,1.064-2.232,2.59,0,.024,0,.049-.005.074h-.54a.533.533,0,0,0,0,1.065h.54c0,.025,0,.05.005.075.205,1.524,1.123,2.589,2.232,2.589a2.05,2.05,0,0,0,1.679-1.031.551.551,0,0,0-.141-.739.488.488,0,0,0-.692.136" transform="translate(-277.393 -276.29)" fill="#758d8b" stroke="#758d8b" stroke-width="0.2"/>
    <path id="Path_45803" data-name="Path 45803" d="M13.637,252.34h-1.01A10.38,10.38,0,0,1,2.54,241.918l.642.677a.486.486,0,0,0,.714-.013.554.554,0,0,0,0-.74l-1.515-1.6a.5.5,0,0,0-.714,0l-1.514,1.6a.554.554,0,0,0-.011.753.486.486,0,0,0,.714.011l.011-.011.657-.694c.117,6.384,5.051,11.5,11.1,11.5h1.01a.533.533,0,0,0,0-1.065" transform="translate(0 -224.106)" fill="#758d8b" stroke="#758d8b" stroke-width="0.2"/>
    <path id="Path_45804" data-name="Path 45804" d="M240.566,25.065h1.01a10.379,10.379,0,0,1,10.087,10.422l-.642-.677a.486.486,0,0,0-.714.011.554.554,0,0,0,0,.742l1.515,1.6a.5.5,0,0,0,.714,0l1.514-1.6a.554.554,0,0,0-.012-.753.486.486,0,0,0-.7,0l-.658.694c-.117-6.384-5.051-11.5-11.1-11.5h-1.01a.533.533,0,0,0,0,1.065" transform="translate(-224.91 -22.402)" fill="#758d8b" stroke="#758d8b" stroke-width="0.2"/>
  </g>
</svg>
