<svg xmlns="http://www.w3.org/2000/svg" width="41" height="41" viewBox="0 0 41 41">
  <g id="IconEmpNew" transform="translate(0.5 0.5)">
    <rect id="BG" width="40" height="40" rx="20" fill="#fff" stroke="#007066" stroke-width="1"/>
    <g id="user-add" transform="translate(10.455 10)">
      <path id="Path_124968" data-name="Path 124968" d="M21.09,21.5a.5.5,0,0,1-.5.5H3.41a.5.5,0,0,1-.5-.5C2.91,17.36,6.99,14,12,14a10.514,10.514,0,0,1,2.95.41A4.022,4.022,0,0,0,14,17a3.921,3.921,0,0,0,.58,2.06,3.684,3.684,0,0,0,.76.91A3.921,3.921,0,0,0,18,21a3.963,3.963,0,0,0,2.85-1.2A5.97,5.97,0,0,1,21.09,21.5Z" transform="translate(-2.91 -2)" fill="#cca079" opacity="0.4"/>
      <path id="Path_124969" data-name="Path 124969" d="M20.97,14.33A3.944,3.944,0,0,0,18,13a3.994,3.994,0,0,0-4,4,3.921,3.921,0,0,0,.58,2.06,3.684,3.684,0,0,0,.76.91A3.921,3.921,0,0,0,18,21a3.97,3.97,0,0,0,3.42-1.94,3.734,3.734,0,0,0,.46-1.13A3.594,3.594,0,0,0,22,17,3.984,3.984,0,0,0,20.97,14.33Zm-1.47,3.4h-.75v.78a.75.75,0,0,1-1.5,0v-.78H16.5a.75.75,0,0,1,0-1.5h.75v-.71a.75.75,0,0,1,1.5,0v.71h.75a.75.75,0,0,1,0,1.5Z" transform="translate(-2.91 -2)" fill="#cca079"/>
      <path id="Path_124970" data-name="Path 124970" d="M12,12A5,5,0,1,0,7,7,5,5,0,0,0,12,12Z" transform="translate(-2.91 -2)" fill="#cca079"/>
    </g>
  </g>
</svg>
