<svg xmlns="http://www.w3.org/2000/svg" width="33.768" height="29.155" viewBox="0 0 33.768 29.155">
  <g id="IconWth" transform="translate(0 0)">
    <path id="Path_45740" data-name="Path 45740" d="M170.732,38.945a.989.989,0,0,0,.989-.989V35.963a.989.989,0,1,0-1.979,0v1.992A.989.989,0,0,0,170.732,38.945Z" transform="translate(-158.548 -34.974)" fill="#cca079"/>
    <path id="Path_45741" data-name="Path 45741" d="M3.209,134.1l-1.725-1a.989.989,0,1,0-.989,1.713l1.725,1a.989.989,0,0,0,.989-1.714Z" transform="translate(0 -126.507)" fill="#cca079"/>
    <path id="Path_45742" data-name="Path 45742" d="M2.22,314,.495,315a.989.989,0,1,0,.989,1.713l1.725-1A.989.989,0,1,0,2.22,314Z" transform="translate(0 -295.473)" fill="#cca079"/>
    <path id="Path_45743" data-name="Path 45743" d="M314.806,135.812l1.725-1a.989.989,0,0,0-.989-1.713l-1.725,1a.989.989,0,1,0,.989,1.714Z" transform="translate(-292.657 -126.507)" fill="#cca079"/>
    <path id="Path_45744" data-name="Path 45744" d="M86.782,135.292a7.437,7.437,0,0,0-6.9-4.636,7.913,7.913,0,1,0-11.476,9.9,5.584,5.584,0,0,0,4.71,8.564c15.566-.016,14.714.04,14.985-.044a6.926,6.926,0,0,0-1.318-13.787Zm-20.061-1.4a5.934,5.934,0,0,1,11.094-2.932A7.42,7.42,0,0,0,72.484,138a5.479,5.479,0,0,0-2.707,1.075A5.94,5.94,0,0,1,66.722,133.888Zm21,13.24c-.352.029-9.33.012-14.611.017a3.605,3.605,0,0,1-2.425-6.26,3.561,3.561,0,0,1,2.756-.923.99.99,0,0,0,1.069-1.123,5.442,5.442,0,0,1,10.638-2.194.99.99,0,0,0,1.155.709,4.947,4.947,0,1,1,1.417,9.773Z" transform="translate(-60.473 -119.971)" fill="#cca079"/>
  </g>
</svg>
