<svg xmlns="http://www.w3.org/2000/svg" width="19.339" height="26.015" viewBox="0 0 19.339 26.015">
  <path id="IconPr" d="M9.016,0a3.371,3.371,0,0,0-.144,6.564v.83c-.935,1.457-3.02,2.453-4.994,3.661C1.684,12.4.019,14.071,0,16.816a7.572,7.572,0,0,0,1.077,4.1.422.422,0,1,0,.719-.444,6.626,6.626,0,0,1-.95-3.658c.031-2.588,1.725-3.941,3.481-5.045S8.1,9.806,9.294,8.25c1.192,1.556,3.092,2.3,4.968,3.521,1.913,1.241,3.523,2.586,3.481,5.045a6.18,6.18,0,0,1-2.234,5.068H1.266A1.275,1.275,0,0,0,0,23.154V24.84a.423.423,0,0,0,.421.424H18.165a.423.423,0,0,0,.424-.424V23.154a1.278,1.278,0,0,0-1.269-1.27h-.548a7.29,7.29,0,0,0,1.815-5.068c-.036-2.917-1.861-4.493-3.878-5.761-1.958-1.231-4.057-2.2-4.993-3.658V6.675a3.369,3.369,0,0,0,3.256-2.489.428.428,0,0,0-.652-.523A2.111,2.111,0,0,1,9.349.694.422.422,0,0,0,9.016,0M8.108,1.351a2.944,2.944,0,0,0,3.556,3.555A2.527,2.527,0,1,1,8.108,1.351ZM1.266,22.729H17.32a.416.416,0,0,1,.424.425v1.266H.845V23.154a.413.413,0,0,1,.421-.425" transform="translate(0.375 0.376)" fill="#007066" stroke="#007066" stroke-width="0.75"/>
</svg>
