<svg xmlns="http://www.w3.org/2000/svg" width="22.411" height="25.133" viewBox="0 0 22.411 25.133">
  <g id="notification" transform="translate(0.762 0.75)">
    <path id="Path_124950" data-name="Path 124950" d="M13.562,2A7.809,7.809,0,0,0,5.75,9.811v2.463a6.09,6.09,0,0,1-.739,2.674l-1.49,2.486a2.5,2.5,0,0,0,1.407,3.812,27.374,27.374,0,0,0,17.276,0,2.6,2.6,0,0,0,1.407-3.812l-1.49-2.486a6.134,6.134,0,0,1-.739-2.674V9.811A7.856,7.856,0,0,0,13.562,2Z" transform="translate(-3.103 -2)" fill="none" stroke="#007066" stroke-linecap="round" stroke-miterlimit="10" stroke-width="1.5"/>
    <path id="Path_124951" data-name="Path 124951" d="M16.481,18.82a3.906,3.906,0,0,1-7.811,0" transform="translate(-2.14 0.908)" fill="none" stroke="#007066" stroke-miterlimit="10" stroke-width="1.5"/>
  </g>
</svg>
