<svg xmlns="http://www.w3.org/2000/svg" width="60" height="60" viewBox="0 0 60 60">
  <g id="serviceIcon" transform="translate(-5 -5)">
    <rect id="base" width="60" height="60" transform="translate(5 5)" fill="none"/>
    <path id="Path_48923" data-name="Path 48923" d="M212.525,206.24a6.28,6.28,0,1,0-6.276,6.284,6.283,6.283,0,0,0,6.276-6.284m-6.276,4.093a4.088,4.088,0,1,1,4.084-4.093,4.1,4.1,0,0,1-4.084,4.093" transform="translate(-160.696 -162.496)" fill="#cca079"/>
    <path id="Path_124952" data-name="Path 124952" d="M209.065,204.511a4.55,4.55,0,1,0-4.547,4.553,4.552,4.552,0,0,0,4.547-4.553m-4.547,2.966a2.962,2.962,0,1,1,2.959-2.966,2.969,2.969,0,0,1-2.959,2.966" transform="translate(-148.312 -210.496) rotate(9)" fill="#cca079"/>
    <path id="Path_48924" data-name="Path 48924" d="M147.078,160.162a17.113,17.113,0,0,0,5.505-2.294,1.1,1.1,0,0,0,.265-1.608,2.428,2.428,0,0,1,3.414-3.414,1.1,1.1,0,0,0,1.608-.265,16.924,16.924,0,0,0,2.287-5.509,1.1,1.1,0,0,0-.947-1.322,2.429,2.429,0,0,1,0-4.831,1.1,1.1,0,0,0,.952-1.328,17.3,17.3,0,0,0-2.283-5.5,1.1,1.1,0,0,0-1.607-.272,2.435,2.435,0,0,1-3.424-3.424,1.1,1.1,0,0,0-.271-1.607,17.289,17.289,0,0,0-5.5-2.282,1.1,1.1,0,0,0-1.328.951,2.428,2.428,0,0,1-4.83,0,1.1,1.1,0,0,0-1.322-.947,16.9,16.9,0,0,0-5.511,2.286,1.1,1.1,0,0,0-.266,1.607,2.429,2.429,0,0,1-3.415,3.415,1.1,1.1,0,0,0-1.607.266,17.126,17.126,0,0,0-2.293,5.505,1.1,1.1,0,0,0,.952,1.328,2.429,2.429,0,0,1,0,4.831,1.094,1.094,0,0,0-.947,1.321,16.916,16.916,0,0,0,2.286,5.511,1.1,1.1,0,0,0,1.608.266,2.428,2.428,0,0,1,3.414,3.413,1.1,1.1,0,0,0,.266,1.608,16.9,16.9,0,0,0,5.511,2.287,1.1,1.1,0,0,0,1.322-.947,2.428,2.428,0,0,1,4.83,0A1.1,1.1,0,0,0,147.078,160.162Zm-3.739-5.318a4.624,4.624,0,0,0-4.294,2.908,14.675,14.675,0,0,1-2.87-1.194,4.62,4.62,0,0,0-6.068-6.066,14.715,14.715,0,0,1-1.193-2.871,4.62,4.62,0,0,0,0-8.583,14.816,14.816,0,0,1,1.2-2.868,4.619,4.619,0,0,0,6.066-6.067,14.719,14.719,0,0,1,2.872-1.193,4.619,4.619,0,0,0,8.582,0A15.02,15.02,0,0,1,150.5,130.1a4.621,4.621,0,0,0,6.069,6.07,15.055,15.055,0,0,1,1.193,2.868,4.619,4.619,0,0,0,0,8.583,14.781,14.781,0,0,1-1.194,2.871,4.619,4.619,0,0,0-6.066,6.066,14.917,14.917,0,0,1-2.868,1.2,4.609,4.609,0,0,0-4.288-2.911" transform="translate(-97.787 -99.585)" fill="#007066"/>
    <path id="Path_124953" data-name="Path 124953" d="M141.4,150.884a12.4,12.4,0,0,0,3.989-1.662.794.794,0,0,0,.192-1.165,1.76,1.76,0,0,1,2.474-2.474.794.794,0,0,0,1.165-.192,12.262,12.262,0,0,0,1.657-3.992.793.793,0,0,0-.686-.958,1.76,1.76,0,0,1,0-3.5.793.793,0,0,0,.69-.962,12.537,12.537,0,0,0-1.654-3.986.8.8,0,0,0-1.165-.2,1.764,1.764,0,0,1-2.481-2.481.793.793,0,0,0-.2-1.164,12.527,12.527,0,0,0-3.986-1.654.793.793,0,0,0-.962.689,1.76,1.76,0,0,1-3.5,0,.794.794,0,0,0-.958-.686,12.243,12.243,0,0,0-3.993,1.656.794.794,0,0,0-.193,1.165,1.76,1.76,0,0,1-2.475,2.475.8.8,0,0,0-1.164.193,12.409,12.409,0,0,0-1.661,3.989.793.793,0,0,0,.69.962,1.76,1.76,0,0,1,0,3.5.793.793,0,0,0-.686.957,12.257,12.257,0,0,0,1.656,3.993.8.8,0,0,0,1.165.193,1.759,1.759,0,0,1,2.474,2.473.8.8,0,0,0,.193,1.165,12.248,12.248,0,0,0,3.993,1.657.794.794,0,0,0,.958-.686,1.76,1.76,0,0,1,3.5,0A.794.794,0,0,0,141.4,150.884Zm-2.709-3.853a3.35,3.35,0,0,0-3.111,2.107,10.633,10.633,0,0,1-2.079-.865,3.348,3.348,0,0,0-4.4-4.4,10.661,10.661,0,0,1-.864-2.08,3.347,3.347,0,0,0,0-6.219,10.735,10.735,0,0,1,.867-2.078,3.347,3.347,0,0,0,4.395-4.4,10.665,10.665,0,0,1,2.081-.864,3.347,3.347,0,0,0,6.219,0,10.883,10.883,0,0,1,2.078.864,3.348,3.348,0,0,0,4.4,4.4,10.909,10.909,0,0,1,.864,2.078,3.347,3.347,0,0,0,0,6.219,10.71,10.71,0,0,1-.865,2.08,3.347,3.347,0,0,0-4.4,4.4,10.809,10.809,0,0,1-2.078.868,3.34,3.34,0,0,0-3.107-2.109" transform="translate(-93.597 -135.185) rotate(9)" fill="#007066"/>
  </g>
</svg>
