<svg xmlns="http://www.w3.org/2000/svg" width="30" height="30" viewBox="0 0 30 30">
  <path id="settings" d="M2.295,12.383A14.838,14.838,0,0,1,5.586,6.95a.954.954,0,0,1,1-.239l3.546,1.21a1.873,1.873,0,0,0,2.363-1.068,1.7,1.7,0,0,0,.078-.277l.676-3.54a.9.9,0,0,1,.717-.7,16.593,16.593,0,0,1,6.571,0,.9.9,0,0,1,.717.7l.678,3.541a1.844,1.844,0,0,0,2.15,1.419,1.918,1.918,0,0,0,.29-.074l3.547-1.21a.954.954,0,0,1,1,.239,14.84,14.84,0,0,1,3.292,5.434.858.858,0,0,1-.281.944l-2.875,2.33a1.71,1.71,0,0,0-.213,2.487,1.811,1.811,0,0,0,.213.2l2.875,2.33a.858.858,0,0,1,.281.944,14.838,14.838,0,0,1-3.292,5.434.954.954,0,0,1-1,.239l-3.547-1.21a1.874,1.874,0,0,0-2.363,1.068,1.7,1.7,0,0,0-.078.278l-.678,3.54a.9.9,0,0,1-.717.7,16.59,16.59,0,0,1-6.571,0,.9.9,0,0,1-.717-.7l-.676-3.54a1.844,1.844,0,0,0-2.15-1.419,1.918,1.918,0,0,0-.29.074l-3.547,1.21a.954.954,0,0,1-1-.239,14.836,14.836,0,0,1-3.291-5.434.857.857,0,0,1,.281-.944l2.875-2.33a1.71,1.71,0,0,0,.213-2.487,1.807,1.807,0,0,0-.213-.2l-2.875-2.33a.857.857,0,0,1-.281-.944ZM12.685,17a4.474,4.474,0,0,0,4.565,4.376A4.474,4.474,0,0,0,21.815,17a4.474,4.474,0,0,0-4.565-4.376A4.474,4.474,0,0,0,12.685,17Z" transform="translate(-2.25 -2.002)" fill="#007066"/>
</svg>
