<svg xmlns="http://www.w3.org/2000/svg" width="54.046" height="54" viewBox="0 0 54.046 54">
  <g id="survey" transform="translate(-0.961 -1)">
    <circle id="Ellipse_302" data-name="Ellipse 302" cx="1.174" cy="1.174" r="1.174" transform="translate(29.135 29.174)" fill="#fff"/>
    <path id="Path_125159" data-name="Path 125159" d="M16.348,16.4,18.7,18.743a1.173,1.173,0,0,0,1.66,0l4.7-4.7a1.174,1.174,0,1,0-1.66-1.66l-3.866,3.866-1.518-1.518a1.174,1.174,0,1,0-1.66,1.66Zm0,11.739L18.7,30.482a1.173,1.173,0,0,0,1.66,0l4.7-4.7a1.174,1.174,0,1,0-1.66-1.66l-3.866,3.866-1.518-1.518a1.174,1.174,0,1,0-1.66,1.66ZM28.918,14.391H40.657a1.174,1.174,0,1,0,0-2.348H28.918a1.174,1.174,0,1,0,0,2.348Zm0,11.739h4.741a1.174,1.174,0,1,0,0-2.348H28.918a1.174,1.174,0,1,0,0,2.348Zm0-7.044h7.044a1.174,1.174,0,0,0,0-2.348H28.918a1.174,1.174,0,1,0,0,2.348Zm-17.609,5.87V7.935a.585.585,0,0,1,.587-.587h2.981a1.174,1.174,0,1,0,0-2.348H11.9A2.935,2.935,0,0,0,8.961,7.935V24.957a1.174,1.174,0,1,0,2.348,0Z" transform="translate(1.391 0.696)" fill="#fff" fill-rule="evenodd"/>
    <path id="Path_125160" data-name="Path 125160" d="M33.831,5.7V4.522a3.522,3.522,0,1,0-7.044,0V5.7H20.963a1.174,1.174,0,1,0,0,2.348H47.331a.59.59,0,0,1,.587.587l.046,5.293a1.174,1.174,0,1,0,2.348-.021L50.266,8.62A2.936,2.936,0,0,0,47.331,5.7ZM31.483,4.522a1.174,1.174,0,0,0-2.348,0V5.7h2.348ZM47.964,44.428l-.046,7.638a.585.585,0,0,1-.587.587H25.659a1.174,1.174,0,0,0,0,2.348H47.331a2.935,2.935,0,0,0,2.935-2.935l.046-7.623a1.174,1.174,0,1,0-2.348-.014ZM5.86,43.341a5.871,5.871,0,0,0-4.9,5.79v2.935A2.935,2.935,0,0,0,3.9,55H19.157a2.935,2.935,0,0,0,2.935-2.935V49.131a5.872,5.872,0,0,0-4.9-5.79,8.218,8.218,0,1,0-11.333,0ZM17.4,52.653h1.761a.587.587,0,0,0,.587-.587V49.131a3.522,3.522,0,0,0-3.522-3.522H6.831a3.522,3.522,0,0,0-3.522,3.522v2.935a.587.587,0,0,0,.587.587H5.657V49.131a1.174,1.174,0,0,1,2.348,0v3.522h7.044V49.131a1.174,1.174,0,0,1,2.348,0Zm-5.87-21.131a5.87,5.87,0,1,1-5.87,5.87A5.873,5.873,0,0,1,11.526,31.522ZM47.792,18.294c-1.354,1.354-22.9,23.012-22.9,23.012a1.172,1.172,0,0,0-.34.826v4.7A1.174,1.174,0,0,0,25.731,48h4.7a1.174,1.174,0,0,0,.832-.346s10.766-10.837,17.9-18l.324.324a.586.586,0,0,1,0,.83l-4.554,4.554a2.93,2.93,0,0,0,0,4.15l1.1,1.1a1.174,1.174,0,1,0,1.66-1.66l-1.1-1.1a.592.592,0,0,1,0-.83l4.554-4.554a2.935,2.935,0,0,0,0-4.15l-.326-.328c1.375-1.381,2.533-2.542,3.333-3.342a2.935,2.935,0,0,0,0-4.15l-2.206-2.206a2.935,2.935,0,0,0-4.15,0Zm-5.625,8.971L45.2,30.3C39.084,36.45,31.613,43.969,29.938,45.655H26.9V42.618c1.668-1.68,9.14-9.2,15.262-15.353Zm4.692,1.371L43.823,25.6q2.813-2.828,5.63-5.649a.587.587,0,0,1,.829,0l2.206,2.206a.587.587,0,0,1,0,.83q-2.817,2.82-5.629,5.647Z" transform="translate(0)" fill="#fff" fill-rule="evenodd"/>
  </g>
</svg>
